Libertine_R.sfdir
StartChar: exclam
Encoding: 33 33 0
Width: 288
VWidth: 999
Flags: MW
HStem: -7 100<108.012 186.198> 638 20G<141 162.667>
VStem: 97 100<4.15561 81.2822 399.177 650.535>
LayerCount: 2
Fore
SplineSet
97 45 m 3
 97 69 125 93 149 93 c 3
 176 93 197 65 197 41 c 3
 197 20 173 -7 145 -7 c 3
 121 -7 97 19 97 45 c 3
153 658 m 3
 172.333 658 197 649.333 197 601 c 3
 197 574.6 192.048 525.398 185.822 488.333 c 0
 173 412 164.875 254.96 163 199 c 1
 155.75 191.5 136.625 188.875 128 196 c 1
 125.598 256.046 114.413 395.154 102.272 469.333 c 0
 95.7392 509.25 91 549.401 91 592 c 3
 91 652 129 658 153 658 c 3
EndSplineSet
Colour: ff9ccc
EndChar
StartChar: numbersign
Encoding: 35 35 2
Width: 465
VWidth: 487
Flags: W
HStem: 192 53<34 119 165 269 316 404> 360 53<61 146 191 297 342 430>
DStem2: 91 14 128 14 0.158856 0.987302<5.87769 180.188 239.822 350.344 409.819 585.275> 242 14 280 14 0.155524 0.987832<5.9099 180.033 239.698 350.344 409.697 585.12>
LayerCount: 2
Fore
SplineSet
335 360 m 1
 316 245 l 1
 411 245 l 1
 404 192 l 1
 310 192 l 1
 280 14 l 1
 242 14 l 1
 269 192 l 1
 157 192 l 1
 128 14 l 1
 91 14 l 1
 119 192 l 1
 26 192 l 1
 34 245 l 1
 128 245 l 1
 146 360 l 1
 53 360 l 1
 61 413 l 1
 154 413 l 1
 183 592 l 1
 221 592 l 1
 191 413 l 1
 305 413 l 1
 333 592 l 1
 371 592 l 1
 342 413 l 1
 438 413 l 1
 430 360 l 1
 335 360 l 1
279 245 m 1
 297 360 l 1
 184 360 l 1
 165 245 l 1
 279 245 l 1
EndSplineSet
EndChar
StartChar: dollar
Encoding: 36 36 3
Width: 465
VWidth: 999
Flags: MW
HStem: -8 34<136.993 187 225 294.882> 578 32<170.612 219>
VStem: 51 67<416.528 530.337> 339 78<90.5577 213.13>
LayerCount: 2
Back
SplineSet
181.555 -98.2666 m 5x33
 224.805 689.483 l 5
 234 693 249 694.5 261.75 694.5 c 5
 218.5 -93.25 l 5
 211.199 -97.4727 191.555 -98.2666 181.555 -98.2666 c 5x33
371 585 m 1xd8
 381 536 385 510 388 465 c 1
 380 458 368 459 357 459 c 1
 338 520 310 578 220 578 c 3
 165 578 118 528 118 476 c 3xd4
 118 385 244 352 289 333 c 0
 356 304 417 260 417 171 c 3
 417 112 383 54 330 21 c 0
 298 1 257 -9 215 -9 c 3
 132 -9 107 12 48 12 c 1
 37 58 33 81 29 153 c 1
 38 158 48 160 59 156 c 1xe8
 80 63 136 24 223 24 c 3
 297 24 339 64 339 139 c 3
 339 246 245 263 186 288 c 0
 114 319 51 364 51 451 c 3
 51 550 134 610 228 610 c 3
 319 610 317 592 371 585 c 1xd8
34.875 610.125 m 25
 383.168 610.125 l 1049
-12 600.012 m 1
 474.965 600.012 l 1
 474.965 0 l 1
 -12 0 l 1
 -12 600.012 l 1
EndSplineSet
Fore
SplineSet
371 585 m 1
 381 536 385 510 388 465 c 1
 380 458 368 459 357 459 c 1
 341 511 318 562 255 575 c 1
 243 351 l 1
 261 344 278 338 289 333 c 0
 356 304 417 260 417 171 c 0
 417 112 383 54 330 21 c 0
 300 2 262 -8 223 -9 c 1
 218 -93 l 1
 211 -97 192 -98 182 -98 c 1
 187 -8 l 1
 126 -4 100 12 48 12 c 1
 37 58 33 81 29 153 c 1
 38 158 48 160 59 156 c 1
 77 76 121 36 188 26 c 1
 202 281 l 1
 196 283 191 286 186 288 c 0
 114 319 51 364 51 451 c 0
 51 547 129 607 220 610 c 1
 225 689 l 1
 234 693 249 694 262 694 c 1
 257 609 l 1
 319 606 323 591 371 585 c 1
238 268 m 1
 225 24 l 1
 298 25 339 65 339 139 c 0
 339 217 288 248 238 268 c 1
207 367 m 1
 219 578 l 1
 165 577 118 528 118 476 c 0
 118 422 162 389 207 367 c 1
EndSplineSet
EndChar
StartChar: percent
Encoding: 37 37 4
Width: 637
VWidth: 999
Flags: W
HStem: -12 31<446.255 513.747> 225 31<488.273 551.957> 303 31<124.294 192.057> 484 37<279.857 459.046> 540 31<166.55 231.846>
VStem: 57 54<341.762 480.46> 244 33<402.471 504.773> 378 55<26.327 164.53> 565 33<87.2343 214.183>
DStem2: 102 3 136 -12 0.584454 0.811427<7.70004 615.532 651.531 704.931>
LayerCount: 2
Back
SplineSet
357.494 492.437 m 4
 360.602 492.437 361.489 492.881 362.821 492.881 c 4
 390.786 491.548 465.804 496.875 506.641 541.265 c 5
 524.399 518.628 l 5
 479.121 468.911 424.078 466.691 364.597 461.809 c 6
 357.494 461.365 l 6
 320.207 461.365 264.721 487.998 248.74 499.985 c 5
 263.39 521.733 l 5
 263.39 521.733 309.11 492.437 357.494 492.437 c 4
460.921 37.0049 m 4
 474.238 31.6777 487.999 35.2285 503.979 45.8828 c 4
 523.511 57.8672 534.609 80.5059 543.931 106.252 c 4
 553.252 130.666 558.135 156.411 555.913 179.05 c 4
 553.696 199.469 545.703 213.674 528.394 220.775 c 4
 527.949 221.22 l 4
 510.64 227.878 493.77 219.443 481.34 208.347 c 4
 464.028 193.254 454.263 175.942 445.385 153.748 c 4
 434.288 126.67 429.849 100.925 433.844 76.9551 c 4
 437.395 56.5352 445.829 43.2188 460.921 37.0049 c 4
579.438 200.801 m 4
 589.204 172.836 582.993 134.66 570.117 98.2617 c 4
 557.246 64.082 535.493 34.3408 510.64 20.1367 c 4
 481.784 3.71289 454.263 6.37598 433.844 16.1416 c 4
 412.537 26.7949 402.327 40.1123 392.118 68.9648 c 4
 383.24 93.8223 382.796 129.777 397.001 163.514 c 4
 410.762 198.137 432.068 224.326 461.809 240.751 c 4
 485.779 253.18 511.968 256.287 540.376 245.189 c 4
 566.567 234.536 570.117 228.766 579.438 200.801 c 4
546.592 542.153 m 5
 166.621 12.1465 l 5
 126.227 12.1465 l 5
 507.085 542.153 l 5
 546.592 542.153 l 5
168.396 323.759 m 4
 181.713 317.988 195.474 321.982 211.454 332.192 c 4
 230.985 344.621 242.083 366.816 251.848 393.006 c 4
 260.726 416.977 265.608 443.166 263.39 465.805 c 4
 261.17 486.223 253.18 500.43 235.868 507.529 c 4
 235.424 507.529 l 4
 218.112 514.189 201.244 505.757 188.815 495.103 c 4
 171.504 479.564 161.738 462.697 152.86 440.059 c 4
 141.763 412.98 137.324 387.68 141.318 363.266 c 4
 144.87 343.29 153.305 329.529 168.396 323.759 c 4
286.916 487.111 m 4
 296.682 459.146 290.467 420.971 277.594 384.572 c 4
 264.721 350.393 243.414 321.096 218.112 306.447 c 4
 189.259 290.023 161.738 293.13 141.763 302.451 c 4
 120.013 313.105 109.803 326.865 99.5928 355.275 c 4
 90.7158 380.133 90.7158 416.088 104.476 450.268 c 4
 118.236 484.892 139.544 510.64 169.284 527.061 c 4
 193.255 539.937 219.443 543.042 247.853 531.943 c 4
 274.043 520.845 277.594 515.078 286.916 487.111 c 4
EndSplineSet
Fore
SplineSet
111 398 m 3
 111 346 137 334 155 334 c 3
 210 334 244 421 244 479 c 3
 244 529 219 540 201 540 c 3
 152 540 111 456 111 398 c 3
364 521 m 3
 406 521 483 533 514 575 c 1
 546 559 l 1
 136 -12 l 1
 102 3 l 1
 461 503 l 1
 423 488 384 484 354 484 c 3
 331 484 293 494 274 505 c 1
 276 498 277 489 277 480 c 3
 277 416 233 303 149 303 c 3
 87 303 57 361 57 412 c 3
 57 500.142 118 571 190 571 c 3
 218 571 247 558 257 546 c 1
 311 521 346 521 364 521 c 3
378 98 m 3
 378 180.024 438 256 512 256 c 3
 552 256 598 238 598 165 c 3
 598 98 554 -12 471 -12 c 3
 410 -12 378 45 378 98 c 3
433 83 m 3
 433 31 458 19 477 19 c 3
 532 19 565 108 565 164 c 3
 565 216 537 225 523 225 c 3
 474 225 433 141 433 83 c 3
EndSplineSet
Validated: 3073
EndChar
StartChar: ampersand
Encoding: 38 38 252
Width: 705
VWidth: 479
Flags: MW
HStem: -10 54<530.578 619.411> -10 33<177.422 310.883> 393 33<478.625 532.943 598.375 664.375> 614 33<286.872 368.932>
VStem: 43 82<70.8337 236.43> 177 74<443.428 582.391> 390 69<482.605 598.362>
LayerCount: 2
Back
SplineSet
433.594 118.652 m 4x7e
 570.312 324.219 576.836 404.297 631.836 404.297 c 6
 660.156 404.297 l 6
 665.039 404.297 669.434 406.25 669.922 412.109 c 6
 669.922 428.711 l 5
 667.969 431.152 l 5
 667.969 431.152 613.472 429.199 578.613 429.199 c 28
 544.326 429.199 490.723 431.152 490.723 431.152 c 5
 488.77 428.711 l 5
 488.77 411.133 l 6
 488.77 408.203 489.258 404.785 494.141 404.297 c 6
 522.949 404.297 l 6
 560.913 404.297 534.18 337.891 411.682 160.427 c 4
 352.712 74.9961 314.941 25.3906 231.934 25.3906 c 4x7e
 166.992 25.3906 102.539 61.5234 102.539 163.086 c 4
 102.539 244.629 147.508 296.748 273.926 361.816 c 4
 373.535 413.086 457.031 486.793 457.031 550.293 c 4
 457.031 613.867 399.915 657.227 328.125 657.227 c 4
 225.886 657.227 171.875 587.466 171.875 527.832 c 4
 171.875 481.934 190.479 434.878 246.238 345.703 c 4
 329.59 212.402 449.846 61.5234 449.846 61.5234 c 6
 497.31 -4.72461 535.298 -8.78906 566.895 -8.78906 c 4
 602.051 -8.78906 643.369 23.4111 666.504 95.7031 c 5
 650.879 103.516 l 5
 630.371 63.4766 606.934 46.3867 572.754 46.3867 c 4xbe
 556.401 46.3867 526.562 68.209 494.521 113.281 c 6
 494.521 113.281 342.058 317.451 310.547 372.07 c 4
 266.602 448.242 245.117 499.512 245.117 529.785 c 4
 245.117 596.68 296.613 623.047 323.242 623.047 c 4
 364.746 623.047 389.16 596.191 389.16 550.293 c 4
 389.16 506.406 332.52 445.312 245.495 397.477 c 4
 135.39 336.954 21.9727 266.602 21.9727 162.598 c 4
 21.9727 30.7617 112.793 -8.78906 225.098 -8.78906 c 4
 319.336 -8.78906 384.27 44.4902 433.594 118.652 c 4x7e
EndSplineSet
Fore
SplineSet
289 409 m 1x3e
 353 451 390 503 390 539 c 3
 390 584 367 614 326 614 c 3
 300 614 251 585 251 519 c 3
 251 496 263 458 289 409 c 1x3e
421 94 m 1
 375 31 320 -10 235 -10 c 3x7e
 128 -10 43 34 43 156 c 3
 43 235 96 302 228 376 c 1
 191 440 177 479 177 517 c 3
 177 576 231 647 331 647 c 3
 401 647 459 602 459 539 c 3
 459 484 393 419 310 371 c 1
 314 363 l 2
 332 332 390 249 436 187 c 1
 472 240 496 283 513 315 c 0
 551 385 536 390 482 393 c 1
 476 399 476 420 482 426 c 1
 502 425 543 424 577 424 c 3
 611 424 641 425 661 426 c 1
 667 420 667 399 661 393 c 1
 600 389 593 384 547 302 c 0
 520 254 498 214 458 157 c 1
 494 107 l 2
 525 64 555 44 571 44 c 3
 604 44 627 59 647 98 c 1
 658 98 663 93 668 88 c 1
 645 18 600 -10 565 -10 c 3xbe
 534 -10 497 -8 450 57 c 2
 421 94 l 1
250 338 m 1
 147 281 125 227 125 156 c 3
 125 58 179 23 242 23 c 3
 313 23 349 59 398 126 c 1
 341 201 261 317 250 338 c 1
EndSplineSet
Substitution2: "'ss06' Stilgruppe 6-1" ampersand.alt
Substitution2: "'salt' Stilistische Alternativformen 1" uniE050
Substitution2: "'smcp' Gemeine nach Kapitaelchen 1" ampersand.sc
Substitution2: "'c2sc' Versale nach Kapitaelchen 1" uniE050
AlternateSubs2: "'aalt' Alle Alternativen zeigen 1" uniE050
EndChar
StartChar: quotesingle
Encoding: 39 39 253
Width: 190
VWidth: 999
Flags: W
HStem: 426 218<75.8119 108.678>
VStem: 53 86<487.695 633.98>
LayerCount: 2
Fore
SplineSet
79 426 m 1
 79 426 53 585 53 594 c 0
 53 616 74 644 104 644 c 0
 130 644 139 627 139 611 c 0
 139 595 106 430 106 430 c 1
 79 426 l 1
EndSplineSet
Validated: 3073
EndChar
StartChar: parenleft
Encoding: 40 40 5
Width: 298
VWidth: 999
Flags: W
GlyphCompositionVertical: 3  uni239D%0,0,136,894 uni239C%1,893,893,894 uni239B%0,136,0,894
VStem: 44 83<97.6984 405.148>
LayerCount: 2
Back
SplineSet
101.562 -0.488281 m 4
 64.4531 81.0547 43.9453 164.551 43.9453 251.953 c 4
 43.9453 342.773 62.9883 424.805 102.051 503.418 c 4
 124.023 548.828 168.945 632.324 256.348 707.031 c 5
 273.926 689.453 l 5
 203.613 610.352 173.828 533.203 160.156 491.699 c 4
 134.277 416.504 121.582 337.891 121.582 251.953 c 4
 121.582 166.504 133.789 85.9375 160.156 10.7422 c 4
 174.316 -31.7383 203.613 -108.398 273.926 -187.012 c 5
 256.348 -203.613 l 5
 188.477 -145.02 138.184 -79.5898 101.562 -0.488281 c 4
EndSplineSet
Fore
SplineSet
44 252 m 7
 44 438 137 605 256 707 c 5
 267.386 706.238 273.568 699.261 277 689 c 5
 245 653 127 515 127 252 c 7
 127 -11 244 -149 277 -187 c 5
 274 -195 266 -202 256 -204 c 5
 48 -24 44 207 44 252 c 7
EndSplineSet
Validated: 3073
Substitution2: "'smcp' Gemeine nach Kapitaelchen 1" parenleft.sc
Substitution2: "'c2sc' Versale nach Kapitaelchen 1" uniF6AE
AlternateSubs2: "'aalt' Alle Alternativen zeigen 1" uniF6AE
Substitution2: "'sinf' Wissenschaftliche Indices 1" parenleft.inferior
Substitution2: "'sups' Hochgestellte 1" parenleft.superior
Substitution2: "'case' Versalformen 1" parenleft.sc
EndChar
StartChar: asterisk
Encoding: 42 42 7
Width: 369
VWidth: 999
Flags: HMW
LayerCount: 2
Back
SplineSet
155.273 557.129 m 4
 123.535 558.105 102.051 560.547 92.2852 566.406 c 4
 82.0312 572.266 76.6602 580.078 75.1953 588.867 c 4
 74.707 591.309 74.707 592.773 74.707 594.727 c 4
 74.707 600.586 76.1719 605.957 79.5898 610.84 c 4
 84.9609 619.141 91.7969 622.07 99.1211 623.535 c 4
 102.539 624.512 104.98 624.512 107.91 624.512 c 4
 114.258 624.512 119.629 623.535 125 621.582 c 4
 135.254 618.164 149.902 607.91 167.969 594.238 c 4
 180.176 584.473 192.383 578.125 204.102 573.242 c 5
 202.637 587.891 199.219 601.562 194.824 613.77 c 4
 186.035 637.207 181.641 653.32 181.152 663.086 c 4
 181.152 663.086 181.152 664.062 181.152 664.551 c 4
 181.152 673.828 183.105 681.641 187.012 688.477 c 4
 191.406 696.289 197.266 700.684 205.078 703.125 c 4
 208.496 704.102 210.938 704.59 213.867 704.102 c 4
 219.238 704.102 223.145 703.125 227.539 700.684 c 4
 236.816 695.312 241.699 687.012 243.652 677.734 c 4
 244.141 674.805 244.141 672.363 244.141 669.434 c 4
 244.141 656.25 239.746 637.207 233.398 614.746 c 4
 229.004 598.633 225.586 584.473 224.609 572.754 c 5
 238.281 578.613 250 585.449 260.742 593.75 c 4
 280.273 608.887 294.434 618.164 303.223 621.094 c 4
 309.57 623.535 314.941 624.023 320.312 624.023 c 4
 323.73 624.023 326.172 624.023 329.102 623.047 c 4
 338.379 621.582 344.238 617.188 348.633 610.352 c 4
 352.051 604.98 353.516 600.098 353.516 594.238 c 4
 353.516 591.797 353.516 590.332 353.027 588.379 c 4
 351.074 578.613 345.215 571.289 335.938 565.918 c 4
 324.707 559.57 300.781 557.617 272.949 557.129 c 4
 256.348 556.641 242.188 555.176 230.469 553.223 c 5
 240.723 541.992 251.465 533.203 262.207 526.367 c 4
 282.715 513.184 296.387 502.93 302.246 495.605 c 4
 308.594 487.793 312.012 479.98 312.988 471.68 c 4
 313.477 469.727 313.477 468.262 313.477 466.797 c 4
 313.477 459.473 311.523 454.102 307.617 449.219 c 4
 302.734 442.383 296.387 438.477 288.574 437.5 c 4
 286.621 437.012 285.645 437.012 284.18 437.012 c 4
 274.902 437.012 267.578 440.918 261.719 446.289 c 4
 251.953 454.59 241.699 475.586 231.934 501.953 c 4
 225.586 518.555 219.727 531.25 213.379 541.504 c 5
 207.031 530.273 201.172 517.578 195.312 501.953 c 4
 184.082 472.656 174.316 453.125 165.527 446.289 c 4
 158.203 439.941 150.879 437.012 143.066 437.012 c 4
 141.113 437.012 140.137 437.012 138.672 437.5 c 4
 129.395 438.965 124.023 442.871 119.141 449.219 c 4
 115.234 455.078 113.281 460.449 113.77 466.797 c 4
 113.77 468.75 113.77 470.215 113.77 471.68 c 4
 115.234 480.469 119.141 488.281 124.512 495.605 c 4
 131.348 503.906 146.484 514.648 165.039 526.367 c 4
 178.711 534.668 189.453 543.945 198.242 553.711 c 5
 185.059 556.152 170.41 557.129 155.273 557.129 c 4
EndSplineSet
Fore
SplineSet
168 547 m 5
 155 550 141 551 126 551 c 4
 77 551 45 558 45 588 c 4
 45 602 54 618 78 618 c 4
 112 618 130 585 174 567 c 5
 170 606 151 633 151 659 c 4
 151 680 163 698 181 698 c 4
 199 698 214 687 214 663 c 4
 214 636 197 596 195 566 c 5
 241 586 257 618 290 618 c 4
 317 618 324 598 324 588 c 4
 324 558 289 551 255 551 c 4
 236 551 218 550 200 547 c 5
 234 510 283 500 283 460 c 4
 283 442 268 431 254 431 c 4
 215 431 208 496 183 535 c 5
 158 490 151 431 113 431 c 4
 96 431 84 444 84 459 c 4
 84 502 135 510 168 547 c 5
EndSplineSet
Validated: 3073
EndChar
StartChar: plus
Encoding: 43 43 8
Width: 550
VWidth: 999
Flags: W
HStem: 226 50<62.4893 250 300 486.691> 442 20G<278 287>
VStem: 250 50<43.4893 226 276 458.691>
LayerCount: 2
Back
SplineSet
498 227 m 5
 292 227 l 5
 292 0 l 5
 235 0 l 5
 235 227 l 5
 28 227 l 5
 28 275 l 5
 235 275 l 5
 235 480 l 5
 292 480 l 5
 292 275 l 5
 498 275 l 5
 498 227 l 5
-58 257 m 25
 565 257 l 1049
0 572 m 1
 527 572 l 1
 527 0 l 1
 0 0 l 1
 0 572 l 1
EndSplineSet
Fore
SplineSet
250 435 m 6
 250 448 273 462 283 462 c 4
 291 462 300 458 300 448 c 6
 300 276 l 5
 476 276 l 6
 486 276 490 267 490 259 c 4
 490 249 476 226 463 226 c 6
 300 226 l 5
 300 66 l 6
 300 54 281 41 266 41 c 4
 258 41 250 47 250 56 c 6
 250 226 l 5
 75 226 l 6
 66 226 60 234 60 242 c 4
 60 257 73 276 85 276 c 6
 250 276 l 5
 250 435 l 6
EndSplineSet
Validated: 3073
AlternateSubs2: "'aalt' Alle Alternativen zeigen 1" plus.superior plus.inferior uni2098
Substitution2: "'sinf' Wissenschaftliche Indices 1" plus.inferior
Substitution2: "'sups' Hochgestellte 1" plus.superior
EndChar
StartChar: comma
Encoding: 44 44 254
Width: 220
VWidth: 999
Flags: W
HStem: -133 24<46.6184 71.5424> 2 93<59.5957 129.663>
VStem: 131 39<-65.6657 27.2782>
LayerCount: 2
Back
SplineSet
101 101 m 0
 136 101 180 69 180 3 c 0
 180 -76 120 -121 50 -142 c 1
 41 -139 38 -123 44 -118 c 1
 75 -108 126 -83 126 -31 c 0
 126 11 78 22 69 27 c 0
 56 34 52 44 52 56 c 0
 52 79 69 101 101 101 c 0
49.8047 42.9688 m 0
 49.8047 72.2656 73.7305 96.1914 103.027 96.1914 c 0
 132.324 96.1914 156.25 72.2656 156.25 42.9688 c 0
 156.25 13.6719 132.324 -10.2539 103.027 -10.2539 c 0
 73.7305 -10.2539 49.8047 13.6719 49.8047 42.9688 c 0
EndSplineSet
Fore
SplineSet
104 95 m 7
 144 95 170 56 170 -4 c 7
 170 -74 112 -122 52 -133 c 5
 45 -126 43 -119 43 -109 c 5
 95 -96 131 -50 131 -29 c 7
 131 -6 114 0 95 2 c 4
 77 5 51 14.5 51 46 c 7
 51 74 73 95 104 95 c 7
EndSplineSet
Validated: 3073
Substitution2: "'sinf' Wissenschaftliche Indices 1" uniE163
Substitution2: "'sups' Hochgestellte 1" uniE141
EndChar
StartChar: hyphen
Encoding: 45 45 255
Width: 338
VWidth: 999
Flags: W
HStem: 223 60<44.125 292.485>
VStem: 40 258<224.539 282.417>
LayerCount: 2
Back
SplineSet
280 253 m 1
 265 198 l 1
 37 198 l 1
 51 253 l 1
 280 253 l 1
-58.1055 256.836 m 25
 565.43 256.836 l 1053
0 572.012 m 1
 527.344 572.012 l 1
 527.344 0 l 1
 0 0 l 1
 0 572.012 l 1
EndSplineSet
Fore
SplineSet
271 223 m 2
 55 223 l 2
 46 223 40 232 40 242 c 3
 40 260 53 283 65 283 c 2
 284 283 l 2
 294 283 298 273 298 263 c 3
 298 251 284 223 271 223 c 2
EndSplineSet
Validated: 3073
Position2: "'lfbd' Left Bounds lookup 5-1" dx=-43 dy=0 dh=-43 dv=0
Position2: "'rtbd' Rechte R+AOQA-nder lookup 4-1" dx=0 dy=0 dh=0 dv=0
Substitution2: "'sinf' Wissenschaftliche Indices 1" minus.inferior
Substitution2: "'sups' Hochgestellte 1" minus.superior
Substitution2: "'c2sc' Versale nach Kapitaelchen 1" uniE06D
AlternateSubs2: "'aalt' Alle Alternativen zeigen 1" uniE06D
Substitution2: "'smcp' Gemeine nach Kapitaelchen 1" hyphen.sc
Substitution2: "'case' Versalformen 1" hyphen.cap
EndChar
StartChar: period
Encoding: 46 46 256
Width: 220
VWidth: 999
Flags: W
HStem: -10 106<69.6687 150.319>
VStem: 57 106<2.78108 82.4969>
LayerCount: 2
Back
SplineSet
44.3896 42.4521 m 4
 44.3896 66.709 64.0771 86.3975 88.334 86.3975 c 4
 112.593 86.3975 132.279 66.709 132.279 42.4521 c 4
 132.279 18.1943 112.593 -1.49316 88.334 -1.49316 c 4
 64.0771 -1.49316 44.3896 18.1943 44.3896 42.4521 c 4
EndSplineSet
Fore
SplineSet
57 45 m 7
 57 70 87 96 112 96 c 7
 141 96 163 66 163 41 c 7
 163 19 138 -10 108 -10 c 7
 83 -10 57 17 57 45 c 7
EndSplineSet
Substitution2: "'sinf' Wissenschaftliche Indices 1" uniE162
Substitution2: "'sups' Hochgestellte 1" uniE140
EndChar
StartChar: slash
Encoding: 47 47 9
Width: 323
VWidth: 999
Flags: W
HStem: 626 20G<245.277 293>
VStem: 15 278
LayerCount: 2
Back
SplineSet
267.97 661.299 m 1
 50.0186 17.6553 l 1
 14.5068 17.6553 l 1
 232.458 661.299 l 1
 267.97 661.299 l 1
EndSplineSet
Fore
SplineSet
293 646 m 5
 56 -59 l 5
 15 -59 l 5
 252 646 l 5
 293 646 l 5
EndSplineSet
Validated: 3073
Substitution2: "'pnum' Proportionalziffern 1" slash.long
Substitution2: "'sups' Hochgestellte 1" fraction
Ligature2: "'frac' Brueche 1" uni2215
AlternateSubs2: "'aalt' Alle Alternativen zeigen 1" uni2215
EndChar
StartChar: zero
Encoding: 48 48 257
Width: 465
VWidth: 487
Flags: W
HStem: -10 35<184.86 274.867> 575 35<190.242 276.878>
VStem: 39 87<150.118 443.88> 335 87<148.096 451.846>
LayerCount: 2
Back
SplineSet
-10 610.012 m 5
 474.965 610.012 l 5
 474.965 -10 l 5
 -10 -10 l 5
 -10 610.012 l 5
0 600.012 m 5
 464.965 600.012 l 5
 464.965 0 l 5
 0 0 l 5
 0 600.012 l 5
EndSplineSet
Fore
SplineSet
228 -10 m 3
 189.33 -10 154.992 3.62988 126.552 32 c 0
 71.8838 86.5312 39 187.439 39 294 c 3
 39 492 133 610 232 610 c 3
 285.963 610 327.788 579.667 354 545 c 0
 398 487 422 402 422 303 c 3
 422 68 305 -10 228 -10 c 3
232 575 m 3
 187 575 126 529 126 283 c 3
 126 196 136 25 229 25 c 3
 247 25 296 34 318 116 c 0
 332 167 335 230 335 322 c 3
 335 456 308 532 277 558 c 0
 265 569 249 575 232 575 c 3
EndSplineSet
Validated: 3073
Substitution2: "'case' Versalformen 1" zero.cap
AlternateSubs2: "'aalt' Alle Alternativen zeigen 1" uniE020 uniE010 uniF638 uniE00F uniE01F
Substitution2: "'zero' gestrichene Null 1" uniF638
Substitution2: "'sups' Hochgestellte 1" zero.superior
Substitution2: "'sinf' Wissenschaftliche Indices 1" zero.inferior
Substitution2: "'pnum' Proportionalziffern 1" uniE010
Substitution2: "'onum' Minuskelziffern 1" uniE118
EndChar
StartChar: one
Encoding: 49 49 10
Width: 465
VWidth: 999
Flags: W
HStem: -2 33<110.625 188.75 305.25 378.375> 588 20G<257.333 286.75>
VStem: 211 77<47.6546 505.982>
LayerCount: 2
Back
SplineSet
46.875 610.125 m 29
 395.168 610.125 l 1053
0 600.012 m 5
 486.965 600.012 l 5
 486.965 0 l 5
 0 0 l 5
 0 600.012 l 5
EndSplineSet
Fore
SplineSet
288 122 m 2
 288 39 305 34 375 31 c 1
 381 25 381 4 375 -2 c 1
 325 -1 300.586 0 253 0 c 27
 198.784 0 163 -1 114 -2 c 1
 108 4 108 25 114 31 c 1
 184 34 211 39 211 122 c 2
 211 448 l 2
 211 482 207.5 506 191 506 c 3
 172 506 149.5 500 104 481 c 1
 95.0264 487.124 90.6152 496.551 89 508 c 1
 177 549 229.667 573.667 285 608 c 1
 288.5 608 291 607.75 291 603 c 1
 289.333 590 288 529 288 469 c 2
 288 122 l 2
EndSplineSet
Validated: 3073
Substitution2: "'case' Versalformen 1" one.cap
AlternateSubs2: "'aalt' Alle Alternativen zeigen 1" uniE021 one.superior uniE011
Substitution2: "'sups' Hochgestellte 1" one.superior
Substitution2: "'sinf' Wissenschaftliche Indices 1" one.inferior
Substitution2: "'pnum' Proportionalziffern 1" uniE011
Substitution2: "'onum' Minuskelziffern 1" uniE119
EndChar
StartChar: two
Encoding: 50 50 11
Width: 465
VWidth: 487
Flags: MW
HStem: 0 65<135 355.125> 429 21G<90.5 109.5> 575 35<165.232 283.068>
VStem: 61 87<450.908 530.348> 321 89<375.51 538.36> 383 29<114.301 159.634>
DStem2: 166 206 209 186 0.721245 0.69268<-100.107 213.619>
LayerCount: 2
Back
SplineSet
24.875 610.125 m 29
 373.168 610.125 l 1053
-22 600.012 m 5
 464.965 600.012 l 5
 464.965 0 l 5
 -22 0 l 5
 -22 600.012 l 5
EndSplineSet
Fore
SplineSet
61 468 m 7xf8
 61 528 130 610 241 610 c 7
 322 610 410 566 410 458 c 7xf8
 410 382 367.471 338.195 310 283 c 6
 209 186 l 6
 183.423 161.436 135 113 135 65 c 5
 313 65 l 6
 349 65 366 90 383 161 c 5
 393 163 406 161 412 156 c 5xf4
 411 126 401 51 388 -2 c 5
 388 -2 342 0 310 0 c 6
 135 0 l 6
 103 0 52 -2 52 -2 c 5
 52 57 60.1161 102.978 166 206 c 6
 240 278 l 6
 301.9 338.227 321 390 321 454 c 7
 321 550 271 575 235 575 c 7
 162 575 136 539 136 514 c 7
 136 505.82 138.962 499.981 142 494 c 4
 146 486.125 148 479.553 148 469 c 7
 148 446.909 118 429 101 429 c 7
 80 429 61 447 61 468 c 7xf8
EndSplineSet
Substitution2: "'case' Versalformen 1" two.cap
AlternateSubs2: "'aalt' Alle Alternativen zeigen 1" uniE022 two.superior uniE012
Substitution2: "'sups' Hochgestellte 1" two.superior
Substitution2: "'sinf' Wissenschaftliche Indices 1" two.inferior
Substitution2: "'pnum' Proportionalziffern 1" uniE012
Substitution2: "'onum' Minuskelziffern 1" uniE11A
EndChar
StartChar: three
Encoding: 51 51 12
Width: 465
VWidth: 487
Flags: W
HStem: -10 35<146.553 258.169> 312 32<144.906 193.387> 575 35<153.013 268.092>
VStem: 47 73<450.746 535.946> 298.148 78.2256<424.408 549.929> 325 88<104.879 268.015>
LayerCount: 2
Back
SplineSet
24.875 610.125 m 29
 373.168 610.125 l 1053
-22 600.012 m 5
 464.965 600.012 l 5
 464.965 0 l 5
 -22 0 l 5
 -22 600.012 l 5
EndSplineSet
Fore
SplineSet
215 575 m 3xf8
 189 575 120 563 120 499 c 0
 120 480 116.004 447 81 447 c 3
 57 447 47 467 47 481 c 3
 47 514 89 610 236 610 c 3
 288.33 610 323.154 593.135 345 571.049 c 0
 369.31 546.471 376.374 521.969 376.374 491.943 c 3xf8
 376.374 439.234 353.322 397.604 271 359 c 1
 272 357 l 1
 331 347 413 308 413 199 c 3
 413 67 307 -10 188 -10 c 3
 128 -10 44 17 44 57 c 3
 44 73 65 92 86 92 c 3
 106 92 119 80 129 66 c 0
 141 48 150 25 201 25 c 3
 236 25 325 52 325 185 c 3xf4
 325 298 251 314 194 314 c 3
 181 314 163 314 146 312 c 1
 141 344 l 1
 240.108 358.089 298.148 434.489 298.148 484.677 c 3
 298.148 548.99 258.2 575 215 575 c 3xf8
EndSplineSet
Validated: 3073
Substitution2: "'case' Versalformen 1" three.cap
AlternateSubs2: "'aalt' Alle Alternativen zeigen 1" uniE023 three.superior uniE013
Substitution2: "'sups' Hochgestellte 1" three.superior
Substitution2: "'sinf' Wissenschaftliche Indices 1" three.inferior
Substitution2: "'pnum' Proportionalziffern 1" uniE013
Substitution2: "'onum' Minuskelziffern 1" uniE11B
EndChar
StartChar: four
Encoding: 52 52 13
Width: 465
VWidth: 487
Flags: W
HStem: -2 33<186.625 258.87 354.729 420.375> 172 47<80 271 347 442.734>
VStem: 271 76<40.5879 172 219 507.017>
LayerCount: 2
Back
SplineSet
440 172 m 5
 347 172 l 5
 347 102 l 6
 347 37 351 33 429 26 c 5
 429 0 l 5
 182 0 l 5
 182 26 l 5
 266 33 270 38 270 102 c 6
 270 172 l 5
 19 172 l 5
 19 199 l 5
 111 336 210 479 309 610 c 5
 347 610 l 5
 347 217 l 5
 440 217 l 5
 440 172 l 5
270 217 m 5
 270 503 l 5
 268 503 l 5
 206 416 144 324 80 217 c 5
 270 217 l 5
25 610 m 25
 373 610 l 1049
-22 600 m 1
 465 600 l 1
 465 0 l 1
 -22 0 l 1
 -22 600 l 1
EndSplineSet
Fore
SplineSet
347 496 m 2
 347 219 l 1
 430 219 l 2
 441 219 445 213 445 203 c 0
 445 191 430 172 416 172 c 2
 347 172 l 1
 347 80 l 2
 347 33 368 35 417 31 c 1
 423 25 423 4 417 -2 c 1
 385 -1 347.397 0 308 0 c 0
 261.974 0 222 -1 190 -2 c 1
 184 4 184 25 190 31 c 1
 233 34 271 34 271 80 c 2
 271 172 l 1
 57 172 l 18
 37.21 172 19.0918 173.346 19.0918 187.666 c 3
 19.0918 197.35 22.5552 206.265 28 214 c 2
 28 214 236 521.5 299 599 c 0
 302.678 603.524 308 610.041 315 610 c 2
 343.301 609.834 l 2
 348.001 609.834 351 607.435 351 601 c 9
 351 601 347 561 347 496 c 2
271 507.017 m 1
 202.028 412.799 131.348 301.158 80 219 c 1
 271 219 l 1
 271 507.017 l 1
EndSplineSet
Substitution2: "'case' Versalformen 1" four.cap
AlternateSubs2: "'aalt' Alle Alternativen zeigen 1" uniE024 four.superior uniE014
Substitution2: "'sups' Hochgestellte 1" four.superior
Substitution2: "'sinf' Wissenschaftliche Indices 1" four.inferior
Substitution2: "'pnum' Proportionalziffern 1" uniE014
Substitution2: "'onum' Minuskelziffern 1" uniE11C
EndChar
StartChar: five
Encoding: 53 53 14
Width: 465
VWidth: 487
Flags: W
HStem: -11 35<164.28 257.615> 341 50<131.938 269.703> 533 67<150.245 373.874> 539 72<150.512 216.266 220.485 265.756 269.409 373>
VStem: 319 89<105.219 288.312>
DStem2: 76 317 131 375 0.117241 0.993103<64.0483 232.241>
LayerCount: 2
Back
SplineSet
24.875 610.125 m 29
 373.168 610.125 l 1053
-22 600.012 m 5
 464.965 600.012 l 5
 464.965 0 l 5
 -22 0 l 5
 -22 600.012 l 5
EndSplineSet
Fore
SplineSet
319 189 m 3xe8
 319 298 268 341 203 341 c 3
 167 341 129 337 76 317 c 1
 110 605 l 1
 145 602 181 600 218 600 c 3xe8
 271 600 325 605 382 611 c 1
 389 607 l 1
 373 539 l 1xd8
 332 535 298 533 268 533 c 3
 220 533 180 538 151 542 c 1
 131 375 l 1
 149 382 186 391 229 391 c 3
 341 391 408 304 408 207 c 3
 408 81 320 -11 196 -11 c 3
 139 -11 54 23 54 64 c 3
 54 84 73 101 92 101 c 3
 113 101 131.736 87.1965 143 69 c 0
 156 48 171 24 209 24 c 3
 269 24 319 94 319 189 c 3xe8
EndSplineSet
Substitution2: "'case' Versalformen 1" five.cap
AlternateSubs2: "'aalt' Alle Alternativen zeigen 1" uniE025 five.superior uniE015
Substitution2: "'sups' Hochgestellte 1" five.superior
Substitution2: "'sinf' Wissenschaftliche Indices 1" five.inferior
Substitution2: "'pnum' Proportionalziffern 1" uniE015
Substitution2: "'onum' Minuskelziffern 1" uniE11D
EndChar
StartChar: six
Encoding: 54 54 15
Width: 465
VWidth: 487
Flags: W
HStem: -11 35<185.943 291.796> 330 35<154.693 279.273> 585 26<338.08 363.075>
VStem: 44 83<102.431 305.703> 338 83<101.414 271.905>
LayerCount: 2
Back
SplineSet
368 585 m 5
 173 512 127 329 127 229 c 7
 127 58 184 24 247 24 c 7
 296 24 338 74 338 184 c 7
 338 234 316 330 218 330 c 7
 197 330 154 328 115 291 c 5
 114 290 112 322 113 323 c 5
 139 349 202 365 239 365 c 7
 375 365 421 288 421 202 c 7
 421 116 367 -11 236 -11 c 7
 159 -11 44 29 44 232 c 7
 44 311 75 402 137 474 c 4
 193 539 255 581 356 611 c 5
 364 606 368 597 368 585 c 5
24.875 610.125 m 25
 373.168 610.125 l 1049
-22 600.012 m 1
 464.965 600.012 l 1
 464.965 0 l 1
 -22 0 l 1
 -22 600.012 l 1
EndSplineSet
Fore
SplineSet
144.257 343.34 m 1
 174.086 357.084 212.975 365 239 365 c 0
 375 365 421 288 421 202 c 0
 421 116 367 -11 236 -11 c 0
 159 -11 44 29 44 232 c 0
 44 311 75 402 137 474 c 0
 193 539 255 581 356 611 c 1
 364 606 368 597 368 585 c 1
 234.994 535.208 171.308 434.239 144.257 343.34 c 1
135.188 307.05 m 1
 129.336 278.29 127 251.537 127 229 c 0
 127 58 184 24 247 24 c 0
 296 24 338 74 338 184 c 0
 338 234 316 330 218 330 c 0
 200.584 330 168.037 328.624 135.188 307.05 c 1
EndSplineSet
Validated: 3073
Substitution2: "'case' Versalformen 1" six.cap
AlternateSubs2: "'aalt' Alle Alternativen zeigen 1" uniE026 six.superior uniE016
Substitution2: "'sups' Hochgestellte 1" six.superior
Substitution2: "'sinf' Wissenschaftliche Indices 1" six.inferior
Substitution2: "'pnum' Proportionalziffern 1" uniE016
Substitution2: "'onum' Minuskelziffern 1" uniE11E
EndChar
StartChar: seven
Encoding: 55 55 16
Width: 465
VWidth: 487
Flags: W
HStem: -13 21G<124 200> 535 65<114.454 347.683> 591 20G<399.5 424>
VStem: 51 32<449.355 488.623>
LayerCount: 2
Back
SplineSet
24.875 610.125 m 29
 373.168 610.125 l 1053
-22 600.012 m 5
 464.965 600.012 l 5
 464.965 0 l 5
 -22 0 l 5
 -22 600.012 l 5
EndSplineSet
Fore
SplineSet
170 535 m 2xd0
 138 535 105 528 83 448 c 1
 72 446.667 61.8582 447.918 51 451 c 1
 59 503 70 563 71 611 c 1xb0
 71 614 72 614 75 614 c 1
 93 610 91 600 125 600 c 2
 331 600 l 2xd0
 369 600 391 606 408 611 c 1xb0
 424 599 l 1
 312 326 257 160 200 -10 c 1
 132 -13 l 1
 124 -6 l 1
 192 146 271 341 349 535 c 1
 170 535 l 2xd0
EndSplineSet
Validated: 3073
Substitution2: "'case' Versalformen 1" seven.cap
AlternateSubs2: "'aalt' Alle Alternativen zeigen 1" uniE027 seven.superior uniE017
Substitution2: "'sups' Hochgestellte 1" seven.superior
Substitution2: "'sinf' Wissenschaftliche Indices 1" seven.inferior
Substitution2: "'pnum' Proportionalziffern 1" uniE017
Substitution2: "'onum' Minuskelziffern 1" uniE11F
EndChar
StartChar: eight
Encoding: 56 56 2237
Width: 465
VWidth: 487
Flags: W
HStem: -10 35<167.041 295.721> 575 35<176.275 291.01>
VStem: 46 67<72.2134 222.467> 71 71<427.729 541.867> 323 70<426.096 548.908> 346 73<84.6707 214.138>
DStem2: 212 386 159 337 0.840967 -0.541087<-88.1766 12.0441 36.4032 43.5341 70.4195 202.471>
LayerCount: 2
Back
SplineSet
368 585 m 5
 173 512 127 329 127 229 c 7
 127 58 192 24 255 24 c 7
 304 24 345 74 345 184 c 7
 345 234 326 335 228 335 c 7
 207 335 164 333 125 296 c 5
 124 295 122 327 123 328 c 5
 149 354 212 370 249 370 c 7
 385 370 428 288 428 202 c 7
 428 116 375 -11 244 -11 c 7
 167 -11 44 29 44 232 c 7
 44 311 75 402 137 474 c 4
 193 539 255 581 356 611 c 5
 364 606 368 597 368 585 c 5
24.875 610.125 m 25
 373.168 610.125 l 1049
-22 600.012 m 1
 464.965 600.012 l 1
 464.965 0 l 1
 -22 0 l 1
 -22 600.012 l 1
EndSplineSet
Fore
SplineSet
226 25 m 3xe4
 271 25 346 42 346 142 c 3
 346 190 321 237 259 275 c 2
 212 303 l 1
 126 246 113 176 113 146 c 3
 113 56 181 25 226 25 c 3xe4
393 485 m 3xd8
 393 421 317 369 270 346 c 1
 341 303 l 2
 394.143 270.815 419 220 419 162 c 3
 419 86 355 -10 224 -10 c 3
 118 -10 46 44 46 146 c 3xe4
 46 185 63 230 104 266 c 0
 129 288 155.5 305.5 184.5 321 c 1
 159 337 l 2
 98.124 375.196 71 416 71 472 c 3
 71 549 137 610 239 610 c 3
 337 610 393 557 393 485 c 3xd8
234 575 m 3
 174 575 142 537 142 491 c 3
 142 460 149 427 212 386 c 2
 243 367 l 1
 270 387 323 432 323 486 c 3xd8
 323 532 299 575 234 575 c 3
EndSplineSet
Validated: 3073
Substitution2: "'case' Versalformen 1" eight.cap
AlternateSubs2: "'aalt' Alle Alternativen zeigen 1" uniE028 eight.superior uniE018
Substitution2: "'sups' Hochgestellte 1" eight.superior
Substitution2: "'sinf' Wissenschaftliche Indices 1" eight.inferior
Substitution2: "'pnum' Proportionalziffern 1" uniE018
Substitution2: "'onum' Minuskelziffern 1" uniE120
EndChar
StartChar: nine
Encoding: 57 57 17
Width: 465
VWidth: 487
Flags: W
HStem: -12 26<107.925 132.92> 234 35<191.727 316.307> 575 35<179.204 285.057>
VStem: 50 83<327.095 497.586> 344 83<293.297 496.569>
LayerCount: 2
Back
SplineSet
24.875 610.125 m 29
 373.168 610.125 l 1053
-22 600.012 m 5
 464.965 600.012 l 5
 464.965 0 l 5
 -22 0 l 5
 -22 600.012 l 5
EndSplineSet
Fore
Refer: 15 54 N -1 0 0 -1 471 599 2
Validated: 32769
Substitution2: "'case' Versalformen 1" nine.cap
AlternateSubs2: "'aalt' Alle Alternativen zeigen 1" uniE029 nine.superior uniE019
Substitution2: "'sups' Hochgestellte 1" nine.superior
Substitution2: "'sinf' Wissenschaftliche Indices 1" nine.inferior
Substitution2: "'pnum' Proportionalziffern 1" uniE019
Substitution2: "'onum' Minuskelziffern 1" uniE121
Colour: ff00ff
EndChar
StartChar: less
Encoding: 60 60 19
Width: 550
VWidth: 999
Flags: W
HStem: 73 331
DStem2: 65 263 138 239 0.940425 0.34<60.4911 410.859> 138 239 65 215 0.939653 -0.34213<0 350.736>
LayerCount: 2
Fore
SplineSet
138 239 m 5
 455 123 l 5
 468 109 469 79 455 73 c 5
 65 215 l 5
 55.6748 229.667 55.6748 245.667 65 263 c 5
 455 404 l 5
 469 398 468 368 455 354 c 5
 138 239 l 5
EndSplineSet
Validated: 3073
EndChar
StartChar: equal
Encoding: 61 61 20
Width: 550
VWidth: 999
Flags: W
HStem: 143 50<62.4893 487.691> 309 50<62.4893 487.691>
LayerCount: 2
Back
SplineSet
529 321 m 5
 52 321 l 5
 52 371 l 5
 529 371 l 5
 529 321 l 5
529 138 m 5
 52 138 l 5
 52 188 l 5
 529 188 l 5
 529 138 l 5
-58 257 m 25
 565 257 l 1049
0 572 m 1
 527 572 l 1
 527 0 l 1
 0 0 l 1
 0 572 l 1
EndSplineSet
Fore
SplineSet
464 143 m 2
 75 143 l 2
 66 143 60 151 60 159 c 3
 60 174 73 193 85 193 c 2
 477 193 l 2
 487 193 491 184 491 176 c 3
 491 166 477 143 464 143 c 2
464 309 m 2
 75 309 l 2
 66 309 60 317 60 325 c 3
 60 340 73 359 85 359 c 2
 477 359 l 2
 487 359 491 350 491 342 c 3
 491 332 477 309 464 309 c 2
EndSplineSet
Validated: 3073
AlternateSubs2: "'aalt' Alle Alternativen zeigen 1" equal.superior
Substitution2: "'sinf' Wissenschaftliche Indices 1" equal.inferior
Substitution2: "'sups' Hochgestellte 1" equal.superior
EndChar
StartChar: question
Encoding: 63 63 22
Width: 422
VWidth: 487
Flags: W
HStem: -7 100<164.006 242.198> 625 33<155.509 255.582>
VStem: 66 75<514.892 591.925> 153 100<4.12776 81.2822> 179 35<190.118 296.372> 297 85<440.713 587.815>
LayerCount: 2
Back
SplineSet
-531 209 m 5xe8
 -549 186 l 5
 -587 200 -660 255 -660 316 c 4
 -660 350 -639 380 -576 428 c 4
 -539 455 -477 496 -477 539 c 4
 -477 574 -500 594 -537 594 c 4
 -600 594 -639 540 -651 540 c 4
 -664 540 -692 560 -692 584 c 4
 -692 597 -686 607 -671 620 c 4
 -640 647 -596 658 -579 658 c 6
 -578 658 l 6
 -495 658 -418 580 -418 498 c 4
 -418 463 -432 438 -466 410 c 4
 -498 383 -577 338 -577 290 c 4
 -577 256 -560 235 -531 209 c 5xe8
497.5 375.775 m 0
 511.406 395.306 532.124 412.618 559.648 427.71 c 0
 578.589 437.771 600.186 454.344 624.453 477.426 c 128
 647.236 498.73 658.491 522.847 658.188 549.78 c 0
 657.891 581.152 651.089 603.936 637.773 618.14 c 128
 616.763 640.034 594.414 650.986 570.742 650.986 c 0
 545.298 650.986 522.358 640.776 501.938 620.361 c 128
 485.662 603.789 475.896 585.293 472.644 564.873 c 1
 435.357 564.873 l 1
 435.357 615.918 l 1
 442.459 625.684 459.622 639.004 486.849 655.869 c 128
 508.154 669.487 537.451 676.289 574.741 676.289 c 0
 626.528 676.289 664.106 661.787 687.485 632.788 c 128
 706.431 609.116 715.898 581.597 715.898 550.225 c 0
 715.898 520.928 704.653 492.222 682.163 464.109 c 128
 662.93 440.139 633.335 416.465 593.384 393.086 c 0
 571.187 380.065 554.766 364.678 544.111 346.922 c 0
 534.048 330.646 529.019 314.221 529.019 297.65 c 0
 529.019 282.261 533.604 269.685 542.778 259.919 c 0
 555.796 246.307 571.777 239.352 590.718 239.056 c 0
 611.138 238.76 637.471 242.459 669.731 250.152 c 1
 669.731 237.281 l 1
 662.632 231.066 652.275 224.852 638.657 218.637 c 0
 623.569 212.127 605.225 208.724 583.618 208.428 c 0
 552.246 207.836 525.469 215.974 503.271 232.842 c 0
 481.667 249.117 471.167 271.756 471.756 300.758 c 8
 472.345 327.095 480.933 352.101 497.5 375.775 c 0
EndSplineSet
Fore
SplineSet
153 45 m 7xf4
 153 69 180.979 93 205 93 c 7
 232 93 253 65 253 41 c 7
 253 19.9053 229 -7 201 -7 c 7
 176.979 -7 153 18.9805 153 45 c 7xf4
211 625 m 3
 153.991 625 141 598.506 141 577 c 3
 141 568.82 143.962 562.98 147 557 c 0
 151 549.125 153 542.553 153 532 c 3xf4
 153 509.909 125.845 495 106 495 c 3
 85 495 66 508.331 66 531 c 3
 66 591 133.5 658 221 658 c 3
 329 658 382 601.002 382 518 c 3
 382 444.485 328.149 393.888 280 350 c 0
 223.5 298.5 208 280 214 195 c 1
 206.25 186.25 187 183 179 192 c 1xec
 167 269 178.5 310.5 241 377 c 0
 278.317 416.705 297 448.5 297 503 c 3
 297 573.502 265 625 211 625 c 3
EndSplineSet
Colour: ff9ccc
EndChar
StartChar: at
Encoding: 64 64 23
Width: 895
VWidth: 999
Flags: HMW
HStem: -158 33<366.698 569.227> 27 43<368.151 451.044> 379 31<449.098 547.769> 580 31<358.072 546.24>
VStem: 59 80<106.897 345.025> 273 73<90.7683 252.641> 515 68<62.2365 153.555> 759 80<177.345 388.462>
LayerCount: 2
Back
SplineSet
658.691 46.875 m 0xbf
 658.691 35.6445 668.945 33.2031 671.387 33.2031 c 0
 791.992 33.2031 872.07 77.1484 872.07 289.062 c 0
 872.07 551.758 671.387 648.926 523.926 648.926 c 0
 345.215 648.926 142.09 521.484 142.09 242.676 c 0
 142.09 100.098 220.215 -187.988 534.18 -187.988 c 0
 634.277 -187.988 707.52 -159.668 770.996 -109.863 c 1
 786.621 -131.348 l 1
 715.82 -184.57 645.02 -226.562 512.207 -226.562 c 0
 245.605 -226.562 58.5938 -22.9492 58.5938 228.027 c 0
 58.5938 481.445 250.977 684.57 524.414 684.57 c 0
 776.855 684.57 948.242 505.859 948.242 285.156 c 0
 948.242 151.367 882.324 -5.37109 626.953 -5.37109 c 0xdf
 592.773 -5.37109 584.473 20.9961 584.473 40.0391 c 0
 584.473 58.5938 589.355 83.4961 599.121 114.746 c 1
 530.273 14.6484 474.121 -2.92969 442.871 -2.92969 c 0
 325.684 -2.92969 305.176 92.7734 305.176 139.16 c 0
 305.176 308.105 448.73 441.895 573.242 441.895 c 0
 612.793 441.895 652.344 421.875 664.062 391.602 c 1
 669.922 419.922 l 1
 726.074 434.57 l 1
 744.141 428.711 l 1
 674.316 125 l 2
 666.992 93.2617 658.691 56.6406 658.691 46.875 c 0xbf
647.949 334.961 m 0
 647.949 378.418 618.164 411.133 576.66 411.133 c 0
 556.152 411.133 506.836 410.645 464.355 363.77 c 0
 407.227 302.246 385.742 222.656 385.742 150.391 c 0
 385.742 94.2383 404.297 39.0625 478.027 39.0625 c 0xbf
 509.766 39.0625 582.031 103.516 612.793 183.105 c 0
 626.953 220.703 647.949 306.152 647.949 334.961 c 0
EndSplineSet
Fore
SplineSet
583 74 m 0
 583 64 592 62 594 62 c 7
 696 62 759 109 759 275 c 7
 759 481 584 580 459 580 c 7
 307 580 139 478 139 241 c 7
 139 91 215 -125 473 -125 c 7
 558 -125 620 -102 674 -59 c 1
 687 -77 l 1
 627 -123 567 -158 454 -158 c 7
 215 -158 59 10 59 223 c 7
 59 438 244 611 469 611 c 7
 684 611 839 469 839 282 c 7
 839 168 769 27 551 27 c 7
 522 27 515 52 515 68 c 7
 515 83 522 106 530 131 c 1
 528 132 l 1
 484 58 430 29 395 29 c 7
 295 29 273 113 273 153 c 7
 273 296 400 410 506 410 c 7
 539 410 573 393 583 367 c 1
 588 391 l 1
 641 404 l 1
 656 399 l 1
 596 141 l 2
 590 114 583 80.5 583 74 c 0
569 316 m 0
 569 354 540 379 504 379 c 7
 487 379 444 370 414 339 c 0
 363 288 346 224 346 162 c 7
 346 114 361 70 424 70 c 7
 459 70 508 127 539 200 c 0
 552 231 569 282 569 316 c 0
EndSplineSet
Validated: 3073
EndChar
StartChar: A
Encoding: 65 65 24
Width: 695
VWidth: 999
Flags: W
HStem: -2 33<3.625 68.0908 159.081 227.375 436.625 510.911 622.197 688.375> 241 42<241.019 440> 638 20G<381.5 396.203>
AnchorPoint: "unten_punkt" 308 -110 basechar 0
AnchorPoint: "unten_anhang" 116 5 basechar 0
AnchorPoint: "top_akzent" 354 850 basechar 0
LayerCount: 2
Back
SplineSet
343 686 m 29
 343 -50 l 1053
148 61 m 25
 380 658 l 25
 344 657 l 25
 95 76 l 1049
598 77 m 25
 389 658 l 17
 311 658 l 9
 513 73 l 1049
832 30 m 1
 838 24 838 3 832 -3 c 1
 785 -2 746 -1 723 -1 c 3
 700 -1 675 -2 635 -3 c 1
 629 3 629 24 635 30 c 1
 701 38 715.305 75.0156 733.338 123 c 2
 935 633 l 2
 941 648 948 656 959 656 c 3
 969 656 976 648 982 633 c 2
 1184.53 121 l 2
 1210.86 47.1396 1217 35 1274 30 c 1
 1280 24 1281 3 1275 -3 c 1
 1228 -2 1211 -1 1171 -1 c 3
 1132 -1 1097 -2 1050 -3 c 1
 1044 3 1044 24 1050 30 c 1
 1118 37 1121.59 50.5625 1100.55 110 c 2
 936.5 517 l 1
 931.875 517 l 1
 779.019 116 l 2
 759.174 60.2939 758 35 832 30 c 1
EndSplineSet
Fore
SplineSet
155 79 m 2
 139.392 37.8514 186.361 33.5957 224 31 c 1
 230 25 230 4 224 -2 c 1
 187 -1 137 0 96 0 c 3
 65.6667 0 33 -1 7 -2 c 1
 1 4 1 25 7 31 c 1
 50.5 34 81 40 106.983 102 c 2
 334 638 l 17
 347 638 374 649 389 658 c 9
 595 86 l 2
 612.369 37.7726 646.17 34.5303 685 31 c 1
 691 25 691 4 685 -2 c 1
 650 -1 612 0 571 0 c 3
 532 0 477 -1 440 -2 c 1
 434 4 434 25 440 31 c 1
 487.585 34.3984 525.832 37.5242 514 72 c 2
 456 241 l 1
 245 241 l 2
 221 241 215 237 210 224 c 2
 155 79 l 2
263 283 m 2
 440 283 l 1
 346 555 l 2
 343.69 561.684 342.329 560.896 340 555 c 2
 237.826 296.333 l 2
 234 286 241 283 263 283 c 2
EndSplineSet
Position2: "'cpsp' Versalabstaende 1" dx=2 dy=0 dh=5 dv=0
Substitution2: "'c2sc' Versale nach Kapitaelchen 1" uniE051
EndChar
StartChar: B
Encoding: 66 66 25
Width: 588
VWidth: 999
Flags: W
HStem: -2 33<15.625 88.75 211.171 377.943> 332 34<191 351.927> 613 34<15.9238 91.0861 197.532 342.51>
VStem: 106 85<45.5581 332 366 601.375> 407 81<427.388 560.634> 454 93<98.7984 251.316>
AnchorPoint: "mittelpunkt" 306 175 basechar 0
AnchorPoint: "top_rechts" 509 732 basechar 0
AnchorPoint: "unten_punkt" 268 -110 basechar 0
AnchorPoint: "unten_anhang" 250 0 basechar 0
AnchorPoint: "top_akzent" 267 850 basechar 0
LayerCount: 2
Fore
SplineSet
148 645 m 3xf4
 184 645 238 647 273 647 c 3
 459 647 488 560 488 493 c 3xf8
 488 438.721 443.094 387.393 393 362 c 1
 393 360 l 1
 480 335 547 280 547 184 c 3
 547 98 494 -2 295 -2 c 3
 210.983 -2 184.667 0 149 0 c 3
 111.946 0 58 -1 19 -2 c 1
 13 4 13 25 19 31 c 1
 89 34 106 39 106 122 c 2
 106 523 l 2
 106 606 89 611 19 614 c 1
 13 620 13 641 19 647 c 1
 58 646 112.333 645 148 645 c 3xf4
191 332 m 1
 191 118 l 2
 191 57 204 31 274 31 c 3
 426 31 454 92 454 165 c 3xf4
 454 255 397 332 260 332 c 2
 191 332 l 1
191 550 m 2
 191 366 l 1
 265 366 l 2
 348 366 407 396 407 481 c 3xf8
 407 583 334 613 278 613 c 3
 191 613 191 603 191 550 c 2
EndSplineSet
Position2: "'cpsp' Versalabstaende 1" dx=2 dy=0 dh=5 dv=0
Substitution2: "'c2sc' Versale nach Kapitaelchen 1" uniE052
EndChar
StartChar: C
Encoding: 67 67 26
Width: 646
VWidth: 999
Flags: W
HStem: -10 41<277.826 462.261> 621 37<274.584 445.041>
VStem: 37 91<208.202 440.096> 566 33<454.756 496.422>
AnchorPoint: "komb_OR" 620 606 basechar 0
AnchorPoint: "mittelpunkt" 346 315 basechar 0
AnchorPoint: "top_rechts" 609 732 basechar 0
AnchorPoint: "unten_punkt" 363 -110 basechar 0
AnchorPoint: "unten_anhang" 356 -7 basechar 0
AnchorPoint: "top_akzent" 340 850 basechar 0
LayerCount: 2
Back
SplineSet
666 329 m 7
 666 244.97 643.935 172.709 604.179 116 c 4
 549.312 37.7354 460.752 -10 350 -10 c 7
 180 -10 37 113 37 310 c 7
 37 397.218 61.3457 475.724 105.254 536 c 4
 160.017 611.179 244.653 658 344 658 c 7
 523 658 666 536 666 329 c 7
331 624 m 7
 240 624 133 537 133 327 c 7
 133 135 247.996 24 370 24 c 7
 484 24 570 131 570 310 c 7
 570 512.002 463 624 331 624 c 7
572.754 645.508 m 1
 591.797 471.68 l 1
 562.012 468.75 l 1
 554.688 511.719 519.043 606.445 467.285 606.445 c 1026
EndSplineSet
Fore
SplineSet
357 -10 m 3
 142 -10 37 136.2 37 310 c 3
 37 414.348 76.6247 512.25 143 573 c 0
 202 627 273 658 358 658 c 7
 481 658 526 618 577 613 c 5
 587 558 594 510 599 458 c 5
 587.667 452.019 578 449 566 453 c 5
 540 539 485 621 347 621 c 7
 294.962 621 237 593 187.411 532 c 0
 150.913 487.104 128 415.257 128 329 c 3
 128 183 221.4 31 356 31 c 3
 449 31 517 62 588 140 c 1
 599 140 606 134 611 125 c 1
 543 36 454 -10 357 -10 c 3
EndSplineSet
Position2: "'cpsp' Versalabstaende 1" dx=2 dy=0 dh=5 dv=0
Substitution2: "'c2sc' Versale nach Kapitaelchen 1" uniE053
EndChar
StartChar: D
Encoding: 68 68 27
Width: 701
VWidth: 999
Flags: W
HStem: -2 34<15.9238 91.0861 204.846 417.647> 613 34<15.9238 91.0861 206.921 373.9>
VStem: 106 85<44.3649 600.097> 562 96<179.249 422.825>
AnchorPoint: "mittelpunkt" 346 315 basechar 0
AnchorPoint: "top_rechts" 619 732 basechar 0
AnchorPoint: "unten_punkt" 309 -110 basechar 0
AnchorPoint: "unten_anhang" 309 1 basechar 0
AnchorPoint: "top_akzent" 306 850 basechar 0
LayerCount: 2
Fore
SplineSet
148 645 m 7
 187 645 242 647 313 647 c 7
 505 647 658 494 658 308 c 7
 658 62 472 -2 331 -2 c 7
 228 -2 186 0 149 0 c 7
 111.333 0 58 -1 19 -2 c 5
 13 4 13 25 19 31 c 5
 89 34 106 39 106 122 c 6
 106 523 l 6
 106 606 89 611 19 614 c 5
 13 620 13 641 19 647 c 5
 59 646 112.333 645 148 645 c 7
191 84 m 6
 191 52 202 32 300 32 c 7
 441 32 562 82 562 284 c 7
 562 438 491 613 275 613 c 7
 226 613 191 599 191 564 c 6
 191 84 l 6
EndSplineSet
Position2: "'cpsp' Versalabstaende 1" dx=2 dy=0 dh=5 dv=0
Substitution2: "'c2sc' Versale nach Kapitaelchen 1" uniE054
EndChar
StartChar: E
Encoding: 69 69 28
Width: 557
VWidth: 999
Flags: W
HStem: -2 33<14.625 87.75> 0 39<198.526 426.897> 323 38<190 358.322> 605 40<199.403 397.552> 614 33<15.2578 87.75>
VStem: 105 85<45.8954 323 361 596.13> 372 33<251.625 306.925 373.446 432.375> 444 33<498.32 539.828> 493 35<122.11 168.353>
AnchorPoint: "top_rechts" 527 732 basechar 0
AnchorPoint: "unten_anhang" 287 4 basechar 0
AnchorPoint: "unten_punkt" 287 -110 basechar 0
AnchorPoint: "top_akzent" 281 850 basechar 0
LayerCount: 2
Fore
SplineSet
281 361 m 2x3780
 366 361 369 374 372 429 c 1
 378 435 399 435 405 429 c 1
 404 405 403 371 403 343 c 11
 403 308.671 404 281 405 255 c 1
 399 249 378 249 372 255 c 1
 369 300 366 323 281 323 c 2
 190 323 l 1
 190 102 l 2
 190 55 204 39 246 39 c 2
 362 39 l 2x7780
 438 39 473 98 493 170 c 1
 506.099 173.181 517.599 170.95 528 165 c 1
 520 114 505 48 491 -2 c 1xa780
 491 -2 411 0 363 0 c 2
 148 0 l 2x6780
 115 0 55 -1 18 -2 c 1
 12 4 12 25 18 31 c 1
 88 34 105 39 105 122 c 2
 105 523 l 2
 105 606 88 611 18 614 c 1
 12 620 12 641 18 647 c 1xaf80
 58 646 116.5 645 147 645 c 2
 402 645 l 2
 426 645 434 646 451 649 c 1
 454 649 455 648 455 646 c 0
 457 638 472 542 477 501 c 1
 467.245 496.332 456.419 494.244 444 496 c 1
 422 565 406 605 331 605 c 2
 256 605 l 6
 202 605 190 585 190 541 c 2
 190 361 l 1
 281 361 l 2x3780
EndSplineSet
Position2: "'cpsp' Versalabstaende 1" dx=2 dy=0 dh=5 dv=0
Substitution2: "'c2sc' Versale nach Kapitaelchen 1" uniE055
EndChar
StartChar: F
Encoding: 70 70 29
Width: 485
VWidth: 999
Flags: W
HStem: -2 33<14.625 87.75 207.25 280.375> 323 38<190 360.322> 605 40<196.685 385.313> 614 33<15.2578 87.75>
VStem: 105 85<43.3808 323 361 599.596> 374 33<251.625 306.925 373.446 432.375> 444 31<498.84 534.346>
AnchorPoint: "top_rechts" 507 732 basechar 0
AnchorPoint: "unten_anhang" 153 -1 basechar 0
AnchorPoint: "unten_punkt" 209 -110 basechar 0
AnchorPoint: "top_akzent" 284 850 basechar 0
LayerCount: 2
Fore
SplineSet
283 323 m 2xee
 190 323 l 1
 190 122 l 2
 190 39 207 34 277 31 c 1
 283 25 283 4 277 -2 c 1
 242 -1 193 0 148 0 c 3
 103 0 53 -1 18 -2 c 1
 12 4 12 25 18 31 c 1
 88 34 105 39 105 122 c 2
 105 523 l 2
 105 606 88 611 18 614 c 1
 12 620 12 641 18 647 c 1xde
 58 646 115 645 147 645 c 2
 402.334 645.002 l 2
 427 645.002 431.835 645.564 449.335 649.002 c 1
 451.771 649.002 452.911 648.339 453.337 646.001 c 0
 454.728 638.363 469.75 542 475 501 c 1
 467 498 456 496 444 496 c 1
 422 565 397 605 291 605 c 2
 246 605 l 2
 202 605 190 595 190 541 c 2
 190 361 l 1
 283 361 l 2
 368 361 371 374 374 429 c 1
 380 435 401 435 407 429 c 1
 406 403 405 376.549 405 343 c 27
 405 308.671 406 280 407 255 c 1
 401 249 380 249 374 255 c 1
 371 300 368 323 283 323 c 2xee
EndSplineSet
Position2: "'cpsp' Versalabstaende 1" dx=2 dy=0 dh=5 dv=0
Substitution2: "'c2sc' Versale nach Kapitaelchen 1" uniE056
EndChar
StartChar: G
Encoding: 71 71 30
Width: 685
VWidth: 999
Flags: MW
HStem: -10 36<292.901 496.895> 265 36<444.77 519.469 622.484 664.23> 622 36<289.701 462.494>
VStem: 37 96<208.012 431.481> 530 85<73.4212 255.003>
AnchorPoint: "komb_OR" 600 606 basechar 0
AnchorPoint: "mittelpunkt" 308 335 basechar 0
AnchorPoint: "top_rechts" 631 732 basechar 0
AnchorPoint: "unten_anhang" 337 2 basechar 0
AnchorPoint: "unten_punkt" 367 -110 basechar 0
AnchorPoint: "top_akzent" 365 850 basechar 0
LayerCount: 2
Back
SplineSet
378 658 m 7
 501 658 546 618 597 613 c 5
 607 558 614 510 619 458 c 5
 607.667 452.019 598 449 586 453 c 5
 560 539 505 621 367 621 c 1031
666 329 m 3
 666 244.97 643.935 172.709 604.179 116 c 0
 549.312 37.7354 460.752 -10 350 -10 c 3
 180 -10 37 113 37 310 c 3
 37 503.912 150.341 658 344 658 c 3
 523 658 666 536 666 329 c 3
331 624 m 3
 231.984 624 133 537 133 327 c 3
 133 135 247.996 24 370 24 c 3
 484 24 570 131 570 310 c 3
 570 512.002 463 624 331 624 c 3
EndSplineSet
Fore
SplineSet
377 658 m 3
 488 658 525 623 585 613 c 1
 600.991 541 605.5 501 608 459 c 1
 596.665 454.335 586.336 452.331 575 453 c 1
 549 539 508 622 363 622 c 3
 246.5 622 133 502 133 327 c 3
 133 195 217 26 375 26 c 3
 429 26 496 32 530 64 c 1
 530 217 l 2
 530 257.051 502.906 260.776 448 265 c 1
 442 271 442 295 448 301 c 1
 492 300 538.467 299 572 299 c 3
 612 299 637 300 661 301 c 1
 667 295 667 271 661 265 c 1
 632 262 615 252.2 615 217 c 2
 615 101 l 2
 615 90 620 82 631 73 c 1
 563 15 470 -10 352 -10 c 3
 161 -10 37 127.2 37 307 c 3
 37 527 210 658 377 658 c 3
EndSplineSet
Position2: "'cpsp' Versalabstaende 1" dx=2 dy=0 dh=5 dv=0
Substitution2: "'c2sc' Versale nach Kapitaelchen 1" uniE057
EndChar
StartChar: H
Encoding: 72 72 2272
Width: 730
VWidth: 999
Flags: W
HStem: -2 33<15.625 88.75 208.25 281.375 442.625 515.75 635.25 708.375> 321 42<191 533> 614 33<15.625 88.75 208.25 281.375 442.625 515.75 635.25 708.375>
VStem: 106 85<43.3808 321 363 601.619> 533 85<43.3808 321 363 601.619>
AnchorPoint: "mittelpunkt" 356 485 basechar 0
AnchorPoint: "top_rechts" 729 732 basechar 0
AnchorPoint: "unten_anhang" 150 0 basechar 0
AnchorPoint: "unten_punkt" 360 -110 basechar 0
AnchorPoint: "top_akzent" 361 850 basechar 0
LayerCount: 2
Back
SplineSet
676 329 m 7
 676 129 551 -10 360 -10 c 7
 188 -10 47 113 47 310 c 7
 47 506 175 658 354 658 c 7
 529 658 676 527 676 329 c 7
341 624 m 7
 250 624 143 537 143 327 c 7
 143 135 260 24 380 24 c 7
 494 24 580 131 580 310 c 7
 580 518 477 624 341 624 c 7
EndSplineSet
Fore
SplineSet
618 122 m 6
 618 39 635 34 705 31 c 5
 711 25 711 4 705 -2 c 5
 661 -1 613.333 0 576 0 c 7
 538.946 0 491 -1 446 -2 c 5
 440 4 440 25 446 31 c 5
 516 34 533 39 533 122 c 6
 533 321 l 5
 191 321 l 5
 191 122 l 6
 191 39 208 34 278 31 c 5
 284 25 284 4 278 -2 c 5
 234 -1 185.333 0 149 0 c 7
 111.333 0 63 -1 19 -2 c 5
 13 4 13 25 19 31 c 5
 89 34 106 39 106 122 c 6
 106 523 l 6
 106 606 89 611 19 614 c 5
 13 620 13 641 19 647 c 5
 57 646 98 645 148 645 c 7
 199 645 240 646 278 647 c 5
 284 641 284 620 278 614 c 5
 208 611 191 606 191 523 c 6
 191 363 l 5
 533 363 l 5
 533 523 l 6
 533 606 516 611 446 614 c 5
 440 620 440 641 446 647 c 5
 490 646 537.667 645 575 645 c 7
 613 645 664 646 705 647 c 5
 711 641 711 620 705 614 c 5
 635 611 618 606 618 523 c 6
 618 122 l 6
EndSplineSet
Position2: "'cpsp' Versalabstaende 1" dx=2 dy=0 dh=5 dv=0
Substitution2: "'c2sc' Versale nach Kapitaelchen 1" uniE058
EndChar
StartChar: I
Encoding: 73 73 258
Width: 297
VWidth: 999
Flags: W
HStem: -2 33<15.625 88.75 208.25 281.375> 614 33<15.625 88.75 208.25 281.375>
VStem: 106 85<43.3808 601.619>
AnchorPoint: "top_akzent" 150 850 basechar 0
AnchorPoint: "unten_punkt" 147 -110 basechar 0
AnchorPoint: "unten_anhang" 147 1 basechar 0
AnchorPoint: "mittelpunkt" 148 325 basechar 0
LayerCount: 2
Fore
SplineSet
191 122 m 6
 191 39 208 34 278 31 c 5
 284 25 284 4 278 -2 c 5
 233 -1 184.556 0 149 0 c 7
 112.695 0 64 -1 19 -2 c 5
 13 4 13 25 19 31 c 5
 89 34 106 39 106 122 c 6
 106 523 l 6
 106 606 89 611 19 614 c 5
 13 620 13 641 19 647 c 5
 66 646 114.5 645 148 645 c 7
 186.5 645 234 646 278 647 c 5
 284 641 284 620 278 614 c 5
 208 611 191 606 191 523 c 6
 191 122 l 6
EndSplineSet
Position2: "'cpsp' Versalabstaende 1" dx=2 dy=0 dh=5 dv=0
Substitution2: "'c2sc' Versale nach Kapitaelchen 1" uniE059
EndChar
StartChar: J
Encoding: 74 74 259
Width: 322
VWidth: 999
Flags: W
HStem: -172 45<-4 94.3194> 614 33<40.625 122.5 242 306.375>
VStem: 141 85<-22.1101 600.635>
AnchorPoint: "mittelpunkt" 186 315 basechar 0
AnchorPoint: "top_akzent" 182 850 basechar 0
LayerCount: 2
Back
SplineSet
119.18 -170.595 m 4
 29.5781 -205.057 -37.9814 -188.185 -57.7256 -136.851 c 4
 -68.8535 -107.917 -47.3867 -85.7324 -27.7861 -78.1934 c 4
 -8.18652 -70.6553 8.11133 -74.0293 20.6035 -98.1533 c 4
 36.9014 -129.384 56.9326 -159.18 112 -138 c 1028
143 559 m 2
 143 608 123 614 72 617 c 2
 52 618 l 2
 47 618 43 621 43 626 c 2
 43 645 l 1
 45 647 l 1
 92 646 144 645 183 645 c 3
 223 645 254 646 301 647 c 1
 303 645 l 1
 303 626 l 2
 303 621 300 618 295 618 c 2
 278 617 l 2
 237 615 224 602 224 574 c 1026
EndSplineSet
Fore
SplineSet
226 523 m 2
 226 103 l 2
 226 -40 167.725 -91.6748 124 -129 c 0
 83 -164 52.0439 -172 7 -172 c 3
 -15 -172 -68 -154 -68 -118 c 3
 -68 -96 -38 -75 -24 -75 c 3
 0.911484 -75 9.62741 -87.8623 15.6667 -100.548 c 4
 22.6548 -115.228 36.8649 -127 56 -127 c 3
 89 -127 141 -99 141 81 c 2
 141 523 l 2
 141 606 124 611 44 614 c 1
 38 620 38 641 44 647 c 1
 94 646 146.667 645 183 645 c 3
 221.667 645 265 646 303 647 c 1
 309 641 309 620 303 614 c 1
 243 611 226 606 226 523 c 2
EndSplineSet
Substitution2: "'ss02' Stilgruppe 2 1" J.alt
Position2: "'cpsp' Versalabstaende 1" dx=2 dy=0 dh=5 dv=0
Substitution2: "'c2sc' Versale nach Kapitaelchen 1" uniE05A
EndChar
StartChar: K
Encoding: 75 75 260
Width: 637
VWidth: 999
Flags: W
HStem: -2 33<15.625 88.75 208.25 281.375 568.5 630.375> 308.927 38.408<191 247.134> 614 33<15.625 88.75 208.25 281.375 403.625 453.93 542.494 618.375>
VStem: 106 85<43.3808 308.927 347.335 601.619>
DStem2: 270 386 342 407 0.683941 0.729537<5.11881 281.457> 320 333 274 271 0.644226 -0.764835<-27.2066 342.109>
AnchorPoint: "top_rechts" 649 732 basechar 0
AnchorPoint: "unten_anhang" 148 -1 basechar 0
AnchorPoint: "unten_punkt" 342 -110 basechar 0
AnchorPoint: "top_akzent" 336 850 basechar 0
LayerCount: 2
Fore
SplineSet
191 122 m 6
 191 39 208 34 278 31 c 5
 284 25 284 4 278 -2 c 5
 233 -1 187 0 149 0 c 7
 110 0 64 -1 19 -2 c 5
 13 4 13 25 19 31 c 5
 89 34 106 39 106 122 c 6
 106 523 l 6
 106 606 89 611 19 614 c 5
 13 620 13 641 19 647 c 5
 64 646 109.5 645 148 645 c 7
 184.5 645 232 646 278 647 c 5
 284 641 284 620 278 614 c 5
 208 611 191 606 191 523 c 6
 191 347.335 l 5
 226.114 350.203 248.727 363.308 270 386 c 6
 435 562 l 6
 477.131 606.94 443.12 610.56 407 614 c 5
 401 620 401 641 407 647 c 5
 444 646 483 645 520 645 c 7
 552.191 645 584 646 615 647 c 5
 621 641 621 620 615 614 c 5
 575 611 535 607 489 558 c 6
 342 407 l 6
 307.963 372.036 307 365 307 358 c 4
 307 350 312.323 342.114 320 333 c 6
 539 73 l 6
 569.552 36.7283 598.052 33.5645 627 31 c 5
 633 25 633 4 627 -2 c 5
 594 -1 560 0 526 0 c 7
 504.905 0 492 -1 472 -2 c 4
 468 -2 467.372 1.02345 467 4 c 4
 465 20 451.277 47.4271 431 73 c 6
 274 271 l 6
 253.739 296.553 224.846 307.922 191 308.927 c 5
 191 122 l 6
EndSplineSet
Position2: "'cpsp' Versalabstaende 1" dx=2 dy=0 dh=5 dv=0
AlternateSubs2: "'aalt' Alle Alternativen zeigen 1" uniE0EB uniE05B
Substitution2: "'ss02' Stilgruppe 2 1" K.alt
Substitution2: "'c2sc' Versale nach Kapitaelchen 1" uniE05B
Colour: ff9ccc
EndChar
StartChar: L
Encoding: 76 76 261
Width: 528
VWidth: 999
Flags: W
HStem: -2 33<15.625 88.75> 0 39<202.367 397.965> 614 33<15.625 88.75 208.25 281.375>
VStem: 106 85<47.7012 601.619> 474 33<126.656 167.84>
AnchorPoint: "mittelpunkt" 288 315 basechar 0
AnchorPoint: "top_rechts" 471 732 basechar 0
AnchorPoint: "unten_anhang" 262 1 basechar 0
AnchorPoint: "unten_punkt" 262 -110 basechar 0
AnchorPoint: "top_akzent" 151 850 basechar 0
LayerCount: 2
Fore
SplineSet
149 0 m 6x78
 115 0 58 -1 19 -2 c 5
 13 4 13 25 19 31 c 5xb8
 89 34 106 39 106 122 c 6
 106 523 l 2
 106 606 89 611 19 614 c 1
 13 620 13 641 19 647 c 1
 65 646 112 645 148 645 c 3
 186 645 233 646 278 647 c 1
 284 641 284 620 278 614 c 1
 208 611 191 606 191 523 c 2
 191 109 l 2
 191 58 209 39 248 39 c 2
 311 39 l 2x78
 417 39 454 98 474 170 c 1
 486 172 497 170 507 165 c 1
 501 113 491 48 481 -2 c 1xb8
 481 -2 389 0 362 0 c 2
 149 0 l 6x78
EndSplineSet
Position2: "'cpsp' Versalabstaende 1" dx=2 dy=0 dh=5 dv=0
Substitution2: "'c2sc' Versale nach Kapitaelchen 1" uniE05C
EndChar
StartChar: M
Encoding: 77 77 262
Width: 839
VWidth: 999
Flags: W
HStem: -10 21G<393 399> -2 33<16.625 68.5221 150.111 203.375 595.625 658.743 752.335 818.375> 614 33<63.625 131.125 716.394 780.375>
AnchorPoint: "mittelpunkt" 426 445 basechar 0
AnchorPoint: "unten_anhang" 107 2 basechar 0
AnchorPoint: "unten_punkt" 393 -110 basechar 0
AnchorPoint: "top_akzent" 431 850 basechar 0
LayerCount: 2
Fore
SplineSet
663 116 m 2x60
 637 534 l 1
 635 534 l 1
 410 5 l 2
 406 -3 402 -10 396 -10 c 3xa0
 390 -10 384 -2 381 5 c 2
 174 524 l 1
 172 524 l 1
 134 123 l 2
 129 67 134 36 200 31 c 1
 206 25 206 4 200 -2 c 1
 170 -1 130 0 106 0 c 3
 82 0 50 -1 20 -2 c 1
 14 4 14 25 20 31 c 1
 77 36 89 61 95 121 c 2
 135 533 l 2
 142 608 136 610 67 614 c 1
 61 620 61 641 67 647 c 9
 212 645 l 1
 417 137 l 2
 420 129 423 124 425 124 c 0
 427 124 430 128 434 138 c 2
 646 645 l 1
 777 647 l 17
 783 641 783 620 777 614 c 1
 709 610 704 596 708 542 c 2
 738 121 l 2
 744 38 747 34 815 31 c 1
 821 25 821 4 815 -2 c 1
 782 -1 736 0 706 0 c 3
 676 0 636 -1 599 -2 c 1
 593 4 593 25 599 31 c 1
 664 34 668 35 663 116 c 2x60
EndSplineSet
Position2: "'cpsp' Versalabstaende 1" dx=2 dy=0 dh=5 dv=0
Substitution2: "'c2sc' Versale nach Kapitaelchen 1" uniE05D
EndChar
StartChar: N
Encoding: 78 78 263
Width: 699
VWidth: 999
Flags: W
HStem: -10 21G<574 589> -2 33<11.625 79.4561 172.141 241.375> 614 33<19.625 66.784 465.625 534.859 627.544 695.375>
VStem: 102 49<48.1359 487.989> 556 49<155.008 596.864>
DStem2: 158 645 193 455 0.620566 -0.784154<123.916 626.745>
AnchorPoint: "mittelpunkt" 356 320 basechar 0
AnchorPoint: "unten_anhang" 125 -4 basechar 0
AnchorPoint: "unten_punkt" 348 -110 basechar 0
AnchorPoint: "top_akzent" 346 850 basechar 0
LayerCount: 2
Fore
SplineSet
556 512 m 6x78
 556 603 539 607 469 614 c 5
 463 620 463 641 469 647 c 5
 513 646 558.737 645 580 645 c 7
 603.704 645 651 646 692 647 c 5
 698 641 698 620 692 614 c 5
 622 607 605 601 605 512 c 6
 605 21 l 6
 605 2 596 -10 582 -10 c 7xb8
 566 -10 553 -1 542 14 c 6
 193 455 l 6
 176 477 165 488 159 488 c 7
 151 488 151 473 151 439 c 6
 151 133 l 6
 151 42 168 38 238 31 c 5
 244 25 244 4 238 -2 c 5
 196 -1 150.087 0 127 0 c 7
 103.38 0 58 -1 15 -2 c 5
 9 4 9 25 15 31 c 5
 85 38 102 44 102 133 c 6
 102 550 l 21
 96 576 66 611 23 614 c 5
 17 620 17 641 23 647 c 13
 158 645 l 5
 501 210 l 6
 530 173 545 155 549 155 c 7
 556 155 556 166 556 185 c 14
 556 512 l 6x78
EndSplineSet
Position2: "'cpsp' Versalabstaende 1" dx=2 dy=0 dh=5 dv=0
Substitution2: "'c2sc' Versale nach Kapitaelchen 1" uniE05E
EndChar
StartChar: O
Encoding: 79 79 264
Width: 702
VWidth: 999
Flags: W
HStem: -10 36<287.252 445.886> 622 36<258.76 417.86>
VStem: 37 96<199.246 446.734> 570 96<196.263 451.706>
AnchorPoint: "mittelpunkt" 346 322 basechar 0
AnchorPoint: "komb_OR" 620 606 basechar 0
AnchorPoint: "unten_anhang" 350 0 basechar 0
AnchorPoint: "unten_punkt" 350 -110 basechar 0
AnchorPoint: "top_akzent" 335 850 basechar 0
LayerCount: 2
Back
SplineSet
1069 -10 m 3
 854 -10 749 154 749 315 c 3
 749 419.348 788.625 512.25 855 573 c 0
 914 627 985 658 1070 658 c 3
 1193 658 1238 618 1289 613 c 1
 1298 558 1306 510 1311 458 c 1
 1299.67 452.019 1290 449 1278 453 c 1
 1252 539 1197 621 1059 621 c 3
 1006.96 621 949 593 899.411 532 c 0
 862.913 487.104 840 420.257 840 334 c 3
 840 188 913 31 1068 31 c 3
 1161 31 1229 62 1300 140 c 1
 1311 140 1318 134 1323 125 c 1
 1255 36 1166 -10 1069 -10 c 3
EndSplineSet
Fore
SplineSet
666 329 m 3
 666 244.97 643.935 172.709 604.179 116 c 0
 549.312 37.7354 460.752 -10 350 -10 c 3
 180 -10 37 113 37 310 c 3
 37 503.912 150.341 658 344 658 c 3
 523 658 666 536 666 329 c 3
331 622 m 3
 231.983 622 133 537 133 327 c 3
 133 135 247.996 26 370 26 c 3
 484 26 570 131 570 310 c 3
 570 512.002 463 622 331 622 c 3
EndSplineSet
Position2: "'cpsp' Versalabstaende 1" dx=2 dy=0 dh=5 dv=0
Substitution2: "'c2sc' Versale nach Kapitaelchen 1" uniE05F
EndChar
StartChar: P
Encoding: 80 80 265
Width: 541
VWidth: 999
Flags: HMW
HStem: -2 33<13.625 86.75 210.75 294.375> 282 34<189.785 347.54> 618 34<15.7036 82.8593 179.305 354.075>
VStem: 104 85<47.6546 292 318.199 600.635> 414 93<395.93 561.649>
AnchorPoint: "mittelpunkt" 286 464 basechar 0
AnchorPoint: "top_rechts" 509 732 basechar 0
AnchorPoint: "unten_anhang" 150 -3 basechar 0
AnchorPoint: "unten_punkt" 240 -110 basechar 0
AnchorPoint: "top_akzent" 277 850 basechar 0
LayerCount: 2
Fore
SplineSet
104 523 m 6
 104 606 87 611 17 614 c 5
 11 620 11 641 17 647 c 5
 57 646 109.333 645 146 645 c 7
 186 645 244.667 652 283 652 c 7
 468 652 507 545 507 486 c 7
 507 401 452 282 270 282 c 7
 235 282 211 285 189 292 c 5
 189 122 l 6
 189 39 213 35 291 31 c 5
 297 25 297 4 291 -2 c 5
 241 -1 182.39 0 147 0 c 7
 111.333 0 62 -1 17 -2 c 5
 11 4 11 25 17 31 c 5
 87 34 104 39 104 122 c 6
 104 523 l 6
189 554 m 6
 189 321 l 5
 200 318 240 316 265 316 c 7
 362 316 414 360 414 468 c 7
 414 595 345 618 276 618 c 7
 204 618 189 583 189 554 c 6
EndSplineSet
Position2: "'cpsp' Versalabstaende 1" dx=2 dy=0 dh=5 dv=0
Substitution2: "'c2sc' Versale nach Kapitaelchen 1" uniE060
EndChar
StartChar: Q
Encoding: 81 81 266
Width: 702
VWidth: 999
Flags: HMW
HStem: -209 57<491.283 620.202> -114 44<243.5 328.318> -10 34<293.846 441.261> 624 34<262.897 415.308>
VStem: 37 96<199.09 439.608> 570 96<197.944 451.367>
AnchorPoint: "mittelpunkt" 336 324 basechar 0
AnchorPoint: "top_rechts" 619 732 basechar 0
AnchorPoint: "komb_OR" 620 606 basechar 0
AnchorPoint: "top_akzent" 348 850 basechar 0
LayerCount: 2
Back
SplineSet
343.75 -7.8125 m 5xbc
 328.613 -7.8125 314.941 -26.3672 310.547 -34.1797 c 5
 344.238 -37.1094 389.16 -52.2461 429.688 -81.0547 c 4
 473.145 -111.816 531.738 -143.555 571.777 -143.555 c 4
 600.586 -143.555 636.719 -133.789 658.203 -106.934 c 5
 675.781 -119.141 l 5
 636.719 -174.805 594.727 -201.172 531.25 -201.172 c 4
 475.098 -201.172 429.688 -178.711 380.371 -142.578 c 4
 328.125 -104.492 288.086 -76.6602 246.094 -76.6602 c 4
 230.957 -76.6602 192.383 -89.3555 172.363 -135.254 c 5
 133.301 -115.723 l 5
 140.625 -103.027 173.34 -59.082 241.211 -41.0156 c 4
 251.953 -38.0859 262.695 -34.1797 266.602 -29.2969 c 4
 273.926 -20.9961 288.086 -7.32422 296.387 -3.41797 c 5
 312.012 -5.85938 325.195 -6.83594 343.75 -7.8125 c 5xbc
60.0586 657.715 m 25
 584.473 657.715 l 1049
EndSplineSet
Fore
SplineSet
422 -2 m 1
 371 -13 256 -62 178 -173 c 1
 139 -153 l 1
 188 -82 305 13 413 28 c 1
 422 -2 l 1
139 -153 m 1
 171 -98 253 -70 298 -70 c 3
 355.758 -70 405.944 -91.7054 452.5 -114.082 c 4
 494.992 -134.505 535.207 -152 577 -152 c 3
 606 -152 642 -142 664 -115 c 1
 681 -127 l 1
 642 -183 600 -209 537 -209 c 3
 466.428 -209 415.601 -182.004 369 -155.407 c 0
 330.116 -133.214 293.514 -114 251 -114 c 3
 236 -114 198 -127 178 -173 c 1
 139 -153 l 1
EndSplineSet
Refer: 264 79 N 1 0 0 1 0 0 3
Position2: "'cpsp' Versalabstaende 1" dx=2 dy=0 dh=5 dv=0
Substitution2: "'c2sc' Versale nach Kapitaelchen 1" uniE061
Colour: ff9ccc
EndChar
StartChar: R
Encoding: 82 82 267
Width: 587
VWidth: 999
Flags: W
HStem: -10 21G<526 551> 0 28<13.625 79.9982 213.002 279.375 548.798 604.181> 291 34<189 276.758> 618 34<15.7036 82.8593 178.224 346.139>
VStem: 104 85<43.3809 291 325 601.336> 404 93<406.481 564.509>
AnchorPoint: "mittelpunkt" 278 468 basechar 0
AnchorPoint: "top_rechts" 519 732 basechar 0
AnchorPoint: "unten_anhang" 148 -1 basechar 0
AnchorPoint: "unten_punkt" 258 -110 basechar 0
AnchorPoint: "top_akzent" 269 850 basechar 0
LayerCount: 2
Fore
SplineSet
512.002 77.5098 m 0x7c
 541.454 39.5605 560.833 30.5 602 28 c 1
 608 20 608 7 604 0 c 1x7c
 586.167 -5.16699 559 -10 543 -10 c 3xbc
 509 -10 482.5 -5.375 460.001 7.99902 c 1
 409 65.75 344.009 174.801 304 253 c 0
 297.313 266.07 291 274.75 277.5 282 c 0
 261.85 290.405 234.544 291 189 291 c 1
 189 122 l 2
 189 39 206 34 276 31 c 1
 282 25 282 4 276 -2 c 1
 232 -1 184.553 0 147 0 c 3
 108.5 0 62 -1 17 -2 c 1
 11 4 11 25 17 31 c 1
 87 34 104 39 104 122 c 2
 104 523 l 2
 104 606 87 611 17 614 c 1
 11 620 11 641 17 647 c 1
 64 646 111 645 146 645 c 3
 182 645 223.976 652 271 652 c 3
 334 652 396 649 444 604 c 0
 480 570 497 529 497 484 c 3
 497 379 395 319 364 308 c 1
 402.351 226.553 467.725 134.561 512.002 77.5098 c 0x7c
272 618 m 3
 201 618 189 583 189 554 c 2
 189 325 l 1
 237 325 l 2
 334 325 404 353 404 473 c 3
 404 596 333 618 272 618 c 3
EndSplineSet
Position2: "'cpsp' Versalabstaende 1" dx=2 dy=0 dh=5 dv=0
AlternateSubs2: "'aalt' Alle Alternativen zeigen 1" uniE0EC uniE062
Substitution2: "'ss02' Stilgruppe 2 1" R.alt
Substitution2: "'c2sc' Versale nach Kapitaelchen 1" uniE062
EndChar
StartChar: S
Encoding: 83 83 268
Width: 485
VWidth: 999
Flags: HMW
HStem: -10 36<147.44 308.147> 624 34<173.334 305.688>
VStem: 51 71.4004<450.829 564.783> 360 84<101.804 225.334>
AnchorPoint: "mittelpunkt" 236.1 345 basechar 0
AnchorPoint: "top_rechts" 480.75 732 basechar 0
AnchorPoint: "unten_anhang" 223.5 2 basechar 0
AnchorPoint: "unten_punkt" 234 -110 basechar 0
AnchorPoint: "top_akzent" 231.9 850 basechar 0
LayerCount: 2
Fore
SplineSet
394.65 631 m 1
 405 578 409 550 412.5 502 c 1
 403.529 494.953 390.455 494.243 379.95 496 c 1
 360 562 329.021 624 231.9 624 c 3
 173 624 122.4 568 122.4 512 c 3
 122.4 427.888 222.294 390.073 281.5 367.864 c 0
 363.934 336.941 444 290.398 444 184 c 3
 444 120.44 407.49 58.7627 350 22.8096 c 0
 315.231 1.06641 272.156 -10 226.65 -10 c 3
 137.925 -10 109.95 13 46.9502 13 c 1
 35 62 31 88 27 165 c 1
 36.6479 170.11 47.2417 171.986 59.5498 168 c 1
 81.5996 68.5 141.6 26 235.05 26 c 3
 314.85 26 360 68 360 149 c 3
 360 246.761 286.286 274.904 225.5 298.047 c 0
 137.483 331.557 51 379.626 51 485 c 3
 51 591 140 658 241.35 658 c 3
 339 658 336.9 639 394.65 631 c 1
EndSplineSet
Position2: "'cpsp' Versalabstaende 1" dx=2 dy=0 dh=5 dv=0
Substitution2: "'c2sc' Versale nach Kapitaelchen 1" uniE063
EndChar
StartChar: T
Encoding: 84 84 269
Width: 597
VWidth: 999
Flags: HMW
HStem: -2 33<164.625 246.5 368.5 450.375> 606 39<98.3488 251.688 363.118 494.389>
VStem: 3 34<502.785 541.578> 265 85<44.3649 597.249> 557 34<505.143 543.266>
AnchorPoint: "mittelpunkt" 307 285 basechar 0
AnchorPoint: "top_rechts" 619 732 basechar 0
AnchorPoint: "unten_anhang" 308 10 basechar 0
AnchorPoint: "unten_punkt" 300 -110 basechar 0
AnchorPoint: "top_akzent" 307 850 basechar 0
LayerCount: 2
Back
SplineSet
514.334 645.002 m 6
 539 645.002 543.835 645.564 561.335 649.002 c 5
 563.771 649.002 564.911 648.339 565.337 646.001 c 4
 566.728 638.363 581.75 542 587 501 c 5
 579 498 568 496 556 496 c 5
 534 565 509 605 403 605 c 1030
75.666 645.002 m 2
 51 645.002 46.165 645.564 28.665 649.002 c 1
 26.2285 649.002 25.0889 648.339 24.6631 646.001 c 0
 23.2725 638.363 8.25 542 3 501 c 1
 11 498 22 496 34 496 c 1
 56 565 81 605 187 605 c 1026
EndSplineSet
Fore
SplineSet
350 122 m 2
 350 39 367 34 447 31 c 1
 453 25 453 4 447 -2 c 1
 397 -1 346.385 0 308 0 c 3
 267.861 0 217 -1 168 -2 c 1
 162 4 162 25 168 31 c 1
 248 34 265 39 265 122 c 2
 265 507 l 2
 265 568 255 606 218 606 c 2
 169 606 l 2
 103 606 57 580 37 500 c 1
 25 500 13 501 3 505 c 1
 14 553 24 605 28 650 c 1
 28 651 30 653 32 653 c 1
 70 650 188 645 265 645 c 2
 351 645 l 2
 430 645 541 650 575 653 c 1
 576 653 578 651 578 650 c 1
 579 605 584 554 591 508 c 1
 582 504 568 503 557 503 c 1
 540 580 493 606 418 606 c 2
 396 606 l 2
 360 606 350 568 350 504 c 2
 350 122 l 2
EndSplineSet
Position2: "'cpsp' Versalabstaende 1" dx=2 dy=0 dh=5 dv=0
Substitution2: "'c2sc' Versale nach Kapitaelchen 1" uniE064
EndChar
StartChar: U
Encoding: 85 85 270
Width: 661
VWidth: 999
Flags: W
HStem: -10 41<260.406 435.748> 614 33<6.625 71 189.125 267.375 430.625 505.459 593.292 655.375>
VStem: 87 85<121.493 601.619> 526 49<135.217 599.095>
AnchorPoint: "mittelpunkt" 336 321 basechar 0
AnchorPoint: "unten_anhang" 328 4 basechar 0
AnchorPoint: "unten_punkt" 328 -110 basechar 0
AnchorPoint: "top_akzent" 346 850 basechar 0
LayerCount: 2
Back
SplineSet
454 614 m 5
 448 620 448 641 454 647 c 5
 501 646 540 645 563 645 c 7
 586 645 611 646 651 647 c 5
 657 641 657 620 651 614 c 5
 585 606 570.695 568.984 552.662 521 c 6
 351 11 l 6
 345 -4 338 -12 327 -12 c 7
 317 -12 310 -4 304 11 c 6
 101.469 523 l 6
 75.1367 596.86 69 609 12 614 c 5
 6 620 5 641 11 647 c 5
 58 646 75 645 115 645 c 7
 154 645 189 646 236 647 c 5
 242 641 242 620 236 614 c 5
 168 607 164.412 593.438 185.449 534 c 6
 349.5 127 l 5
 354.125 127 l 5
 506.981 528 l 6
 526.826 583.706 528 609 454 614 c 5
646 329 m 3
 646 129 521 -10 330 -10 c 3
 158 -10 17 113 17 310 c 3
 17 506 145 658 324 658 c 3
 499 658 646 527 646 329 c 3
311 624 m 3
 220 624 113 537 113 327 c 3
 113 135 230 24 350 24 c 3
 464 24 550 131 550 310 c 3
 550 518 447 624 311 624 c 3
EndSplineSet
Fore
SplineSet
172 523 m 2
 172 266 l 2
 172 201 174 125 223 78 c 0
 253.112 49.1172 294 31 342 31 c 3
 511 31 526 165 526 277 c 2
 526 523 l 2
 526 604 509 607 434 614 c 1
 428 620 428 641 434 647 c 1
 480 646 528.457 645 550 645 c 3
 573.154 645 614 646 652 647 c 1
 658 641 658 620 652 614 c 1
 592 607 575 603.333 575 523 c 2
 575 295 l 2
 575 117 526 -10 321 -10 c 3
 218.5 -10 87 29 87 233 c 2
 87 523 l 2
 87 606 70 611 10 614 c 1
 4 620 4 641 10 647 c 1
 49 646 90 645 129 645 c 3
 168.424 645 217 646 264 647 c 1
 270 641 270 620 264 614 c 1
 187 611 172 606 172 523 c 2
EndSplineSet
Position2: "'cpsp' Versalabstaende 1" dx=2 dy=0 dh=5 dv=0
Substitution2: "'c2sc' Versale nach Kapitaelchen 1" uniE065
EndChar
StartChar: V
Encoding: 86 86 271
Width: 652
VWidth: 999
Flags: W
HStem: -12 21G<311 321.5> 614 33<2.46875 55.3815 173.693 233.375 444.625 504.118 596.347 648.375>
DStem2: 179.449 534 95.4688 523 0.359944 -0.932974<-61.2108 436.97> 343.125 127 340 11 0.375557 0.926799<0 492.956>
AnchorPoint: "mittelpunkt" 334 474 basechar 0
AnchorPoint: "top_rechts" 679 732 basechar 0
AnchorPoint: "unten_anhang" 318 3 basechar 0
AnchorPoint: "unten_punkt" 318 -110 basechar 0
AnchorPoint: "top_akzent" 336 850 basechar 0
LayerCount: 2
Fore
SplineSet
448 614 m 1
 442 620 442 641 448 647 c 1
 489 646 534 645 557 645 c 3
 580 645 615 646 645 647 c 5
 651 641 651 620 645 614 c 1
 582 607 565.815 568.265 546.662 521 c 2
 340 11 l 2
 334.215 -3.27661 327 -12 316 -12 c 3
 306 -12 299.021 -4.60613 293 11 c 2
 95.4688 523 l 2
 68.8425 592.015 61 609 6 614 c 1
 0 620 -1 641 5 647 c 1
 38 646 72.6666 645 109 645 c 3
 145 645 190 646 230 647 c 1
 236 641 236 620 230 614 c 1
 162 607 156.208 593.472 179.449 534 c 2
 338.5 127 l 1
 343.125 127 l 1
 500.981 528 l 2
 522.414 582.444 522 609 448 614 c 1
EndSplineSet
Position2: "'lfbd' Left Bounds lookup 5-1" dx=-27 dy=0 dh=-27 dv=0
Position2: "'rtbd' Rechte R+AOQA-nder lookup 4-1" dx=0 dy=0 dh=-31 dv=0
Position2: "'cpsp' Versalabstaende 1" dx=2 dy=0 dh=5 dv=0
Substitution2: "'c2sc' Versale nach Kapitaelchen 1" uniE066
AlternateSubs2: "'aalt' Alle Alternativen zeigen 1" uniE0EA
EndChar
StartChar: W
Encoding: 87 87 272
Width: 951
VWidth: 999
Flags: W
HStem: -12 21G<281.245 293.5 625 636.5> 614 33<2.625 57.43 164.863 218.375 336.625 391.893 514.243 568.375 740.625 807.511 886.024 944.375>
DStem2: 165 572 77 556 0.32825 -0.944591<-28.3569 465.813> 315.476 128.667 313 15 0.406392 0.913699<0 291.431> 513 554 424 554 0.323067 -0.946376<-43.4913 72.3368 158.485 443.787> 653.717 130.667 654 14 0.349408 0.936971<0 492.182>
AnchorPoint: "top_rechts" 979 732 basechar 0
AnchorPoint: "unten_anhang" 295 0 basechar 0
AnchorPoint: "unten_punkt" 479 -110 basechar 0
AnchorPoint: "top_akzent" 450 850 basechar 0
LayerCount: 2
Back
SplineSet
601 -45 m 25
 452 406 l 25
 308 -46 l 25
 601 -45 l 25
487 549 m 25
 636 98 l 25
 780 550 l 25
 487 549 l 25
EndSplineSet
Fore
SplineSet
810 565 m 2
 825.322 607.583 785 611 744 614 c 1
 738 620 738 641 744 647 c 1
 784 646 828 645 854 645 c 3
 880 645 912 646 941 647 c 1
 947 641 947 620 941 614 c 1
 886 611 867.929 587.669 855 553 c 2
 654 14 l 2
 649 -1 642 -12 631 -12 c 3
 619 -12 613.853 -2.0498 608 15 c 2
 493 347 l 18
 487.076 364.103 483 375 479 375 c 3
 474 375 470.912 370.038 462 350 c 10
 313 15 l 2
 305.614 -1.60596 300 -12 287 -12 c 3
 275.489 -12 270.397 -0.870117 265 15 c 2
 77 556 l 2
 58.4199 609.467 51 611 6 614 c 1
 0 620 0 641 6 647 c 1
 35 646 64.3333 645 99 645 c 3
 138 645 182 646 215 647 c 1
 221 641 221 620 215 614 c 1
 180 612 153.391 607.127 165 572 c 2
 311.196 129.667 l 1
 315.476 128.667 l 1
 445 422 l 2
 452.478 438.936 454 446.667 454 457 c 3
 454 466 450.921 475.974 447 488 c 2
 424 554 l 2
 415.049 579.686 393 611 340 614 c 1
 334 620 334 641 340 647 c 1
 372 646 407 645 440 645 c 3
 480 645 524 646 565 647 c 1
 571 641 571 620 565 614 c 1
 531 611 495.464 607.826 513 554 c 2
 650.484 132 l 1
 653.717 130.667 l 1
 810 565 l 2
EndSplineSet
Position2: "'lfbd' Left Bounds lookup 5-1" dx=-29 dy=0 dh=-29 dv=0
Substitution2: "'ss05' Stilgruppe 5" W.alt
Position2: "'cpsp' Versalabstaende 1" dx=2 dy=0 dh=5 dv=0
Substitution2: "'c2sc' Versale nach Kapitaelchen 1" uniE067
AlternateSubs2: "'aalt' Alle Alternativen zeigen 1" uniE0E9
EndChar
StartChar: X
Encoding: 88 88 273
Width: 660
VWidth: 999
Flags: HMW
HStem: -2 33<3.625 68.0672 152.632 205.375 420.625 467.003 587.301 642.531> 614 33<14.4688 74.7667 190.034 236.375 428.625 481.04 567.776 630.375>
DStem2: 118.004 93.0049 163.001 73.002 0.593256 0.805014<-18.5221 257.908 362.129 623.865> 209.5 559.75 119.665 547 0.578916 -0.815387<-45.791 213.322 292.919 570.513>
AnchorPoint: "mittelpunkt" 326 325 basechar 0
AnchorPoint: "top_rechts" 689 732 basechar 0
AnchorPoint: "unten_anhang" 102 0 basechar 0
AnchorPoint: "unten_punkt" 307 -110 basechar 0
AnchorPoint: "top_akzent" 332 850 basechar 0
LayerCount: 2
Fore
SplineSet
537.999 101.998 m 2
 580.44 43.7445 597.038 34 639 31 c 1
 645 25 646 4 640 -2 c 1
 610 -1 577 0 538 0 c 3
 498 0 461 -1 424 -2 c 5
 418 4 418 25 424 31 c 1
 480 34 475.81 44.9659 447.503 85.249 c 2
 324 261 l 2
 318.363 269.021 314 272 310 272 c 3
 307 272 300.694 265.98 295 258 c 2
 163.001 73.002 l 2
 138.76 39.0286 157.657 33.9561 202 31 c 1
 208 25 208 4 202 -2 c 1
 162 -1 120 0 97 0 c 3
 74 0 37.0195 -1 7 -2 c 1
 1 4 1 25 7 31 c 1
 51.6689 35.2539 83.7152 47.1321 118.004 93.0049 c 2
 266 291 l 2
 271.906 298.902 276 308 276 314 c 3
 276 324 270.214 332.284 262 344 c 2
 119.665 547 l 2
 78.4863 605.729 59.9619 611 18 614 c 1
 12 620 11 641 17 647 c 1
 47 646 80 645 119 645 c 3
 159 645 196 646 233 647 c 1
 239 641 239 620 233 614 c 1
 177 611 181.271 599.787 209.5 559.75 c 2
 320 396 l 2
 324.756 388.952 329 385 332 385 c 3
 336.014 385 342.049 388.533 348 397 c 2
 471 572 l 2
 494.461 605.379 476.343 611.044 432 614 c 1
 426 620 426 641 432 647 c 1
 472 646 514 645 537 645 c 3
 560 645 596.98 646 627 647 c 1
 633 641 633 620 627 614 c 1
 582.331 609.746 550.738 596.881 516 552 c 2
 379 375 l 2
 369.856 363.187 369 354 369 345 c 3
 369 335 375.23 325.41 385 312 c 2
 537.999 101.998 l 2
EndSplineSet
Position2: "'cpsp' Versalabstaende 1" dx=2 dy=0 dh=5 dv=0
Substitution2: "'c2sc' Versale nach Kapitaelchen 1" uniE068
EndChar
StartChar: Y
Encoding: 89 89 274
Width: 575
VWidth: 999
Flags: W
HStem: -2 33<151.625 233.5 355.5 437.375> 614 33<2.46875 59.4984 171.649 224.375 391.625 441.642 512.542 572.375>
VStem: 252 85<44.3649 325.991>
DStem2: 185.25 558.75 99.6655 547 0.510949 -0.859611<-44.1972 244.277> 323.029 352 354.532 334 0.483995 0.875071<-8.81833 272.978>
AnchorPoint: "unten_anhang" 293 1 basechar 0
AnchorPoint: "unten_punkt" 295 -110 basechar 0
AnchorPoint: "top_akzent" 295 850 basechar 0
LayerCount: 2
Back
SplineSet
337 122 m 6
 337 39 354 34 434 31 c 5
 440 25 440 4 434 -2 c 5
 384 -1 349.216 0 295 0 c 31
 240.395 0 204 -1 155 -2 c 5
 149 4 149 25 155 31 c 5
 235 34 252 39 252 122 c 6
 252 259 l 6
 252 296.047 248.545 296.527 231.027 326 c 6
 99.6655 547 l 6
 63.0161 608.658 47.9619 611 6 614 c 5
 0 620 -1 641 5 647 c 5
 35 646 68 645 107 645 c 7
 147 645 181 646 221 647 c 5
 227 641 227 620 221 614 c 5
 165 611 161.041 601.338 185.25 558.75 c 6
 301.199 354 l 6
 310.197 338.111 314.026 335.049 323.029 352 c 6
 442 576 l 6
 464.336 618.056 439.343 611.044 395 614 c 5
 389 620 389 641 395 647 c 5
 435 646 463 645 486 645 c 7
 509 645 538.98 646 569 647 c 5
 575 641 575 620 569 614 c 5
 524.331 609.746 510.276 615.743 482.228 565 c 6
 354.532 334 l 6
 334.357 297.503 337 307.46 337 267.667 c 6
 337 122 l 6
EndSplineSet
Fore
SplineSet
337 122 m 2
 337 39 354 34 434 31 c 1
 440 25 440 4 434 -2 c 1
 384 -1 333.707 0 295 0 c 3
 256.448 0 204 -1 155 -2 c 1
 149 4 149 25 155 31 c 1
 235 34 252 39 252 122 c 2
 252 249 l 2
 252 286.047 248.545 296.527 231.027 326 c 2
 99.6655 547 l 2
 65.1408 605.084 47.9619 611 6 614 c 1
 0 620 -1 641 5 647 c 1
 35 646 68 645 107 645 c 3
 147 645 185 646 221 647 c 1
 227 641 227 620 221 614 c 1
 165 611 161.041 601.338 185.25 558.75 c 2
 301.199 354 l 2
 310.197 338.111 314.991 336.83 323.029 352 c 2
 433.772 561 l 2
 455.194 601.427 439.343 611.044 395 614 c 1
 389 620 389 641 395 647 c 1
 427 646 463 645 486 645 c 3
 509 645 540.98 646 569 647 c 1
 575 641 575 620 569 614 c 1
 524.331 609.746 502.048 600.743 474 550 c 2
 354.532 334 l 2
 338.165 304.408 337 287.5 337 257.667 c 2
 337 122 l 2
EndSplineSet
Position2: "'cpsp' Versalabstaende 1" dx=2 dy=0 dh=5 dv=0
Substitution2: "'c2sc' Versale nach Kapitaelchen 1" uniE069
EndChar
StartChar: Z
Encoding: 90 90 275
Width: 604
VWidth: 999
Flags: HMW
HStem: 0 38<164.006 456.037> 602 43<147.269 445.997> 633 20G<81 101.5>
VStem: 61 30<499.068 531.283> 547 31<138.699 166.836>
DStem2: 49 38 172 72 0.583791 0.811904<78.6948 685.427>
AnchorPoint: "mittelpunkt" 305 321 basechar 0
AnchorPoint: "top_rechts" 619 732 basechar 0
AnchorPoint: "unten_anhang" 287 4 basechar 0
AnchorPoint: "unten_punkt" 287 -110 basechar 0
AnchorPoint: "top_akzent" 320 850 basechar 0
LayerCount: 2
Back
SplineSet
135.666 645.002 m 2
 111 645.002 106.165 645.564 88.665 649.002 c 1
 86.2285 649.002 85.0889 648.339 84.6631 646.001 c 0
 83.2725 638.363 68.25 542 63 501 c 1
 71 498 82 496 94 496 c 1
 116 565 141 605 247 605 c 1026
325 507 m 2
 325 568 315 606 278 606 c 2
 189 606 l 2
 134 606 121 593 101 513 c 1
 88.5215 512.76 76.8555 513.872 67 518 c 1
 77.8633 565.98 83.8096 613.143 87.8066 658 c 1
 120.807 655 245 645 325 645 c 1026
EndSplineSet
Fore
SplineSet
551 -2 m 1xd0
 551 -2 451.333 0 424.333 0 c 2
 60 0 l 2
 46 0 41 5 41 15 c 3
 41 22 43 30 49 38 c 0
 151 190 341 456 438 579 c 0
 443 586 446 592 446 597 c 3
 446 603 441.922 606.112 436 606 c 2
 225 602 l 2xd0
 149.989 600.578 112 565 91 496 c 1
 80 496 71 498 61 501 c 1
 69 542 79 599 83 653 c 1xb0
 120 650 217 645 264 645 c 2
 485 645 l 18
 515 645 546 647 558 647 c 3
 566 647 571 643 571 636 c 3
 571 625 568.101 618.18 547 591 c 0
 429 439 245 178 172 72 c 0
 167 63 164 57 164 52 c 3
 164 43 171.987 37.6474 189 38 c 2
 382 42 l 2
 491 44 516 99 547 170 c 1
 560 170 571 167 578 165 c 1
 566 113 556 54 551 -2 c 1xd0
EndSplineSet
Position2: "'cpsp' Versalabstaende 1" dx=2 dy=0 dh=5 dv=0
Substitution2: "'c2sc' Versale nach Kapitaelchen 1" uniE06A
EndChar
StartChar: bracketleft
Encoding: 91 91 276
Width: 356
VWidth: 999
Flags: W
HStem: -193 30<222.088 323.511> 673 30<219.533 323.511>
VStem: 108 67<-135 645.875>
LayerCount: 2
Fore
SplineSet
108 -193 m 5
 108 703 l 5
 320 703 l 5
 326 697 326 679 320 673 c 5
 183 663 175 648 175 561 c 6
 175 -50 l 6
 175 -137 182 -152 320 -163 c 5
 326 -169 326 -187 320 -193 c 5
 108 -193 l 5
EndSplineSet
Validated: 3073
Substitution2: "'smcp' Gemeine nach Kapitaelchen 1" bracketleft.sc
Substitution2: "'c2sc' Versale nach Kapitaelchen 1" uniF6B0
AlternateSubs2: "'aalt' Alle Alternativen zeigen 1" uniF6B0
Substitution2: "'case' Versalformen 1" bracketleft.sc
EndChar
StartChar: backslash
Encoding: 92 92 277
Width: 287
VWidth: 999
Flags: HMW
HStem: 688 10G<11 58>
DStem2: 55 698 11 698 0.294569 -0.95563<0 767.788>
LayerCount: 2
Fore
SplineSet
55 698 m 1
 285 -48 l 1
 241 -48 l 1
 11 698 l 1
 55 698 l 1
EndSplineSet
Validated: 3073
EndChar
StartChar: underscore
Encoding: 95 95 280
Width: 486
VWidth: 999
Flags: W
HStem: -154 44<6.34375 479.656>
LayerCount: 2
Fore
SplineSet
476 -110 m 1
 484 -118 484 -146 476 -154 c 1
 10 -154 l 1
 2 -146 2 -118 10 -110 c 1
 476 -110 l 1
EndSplineSet
Validated: 3073
EndChar
StartChar: a
Encoding: 97 97 281
Width: 452
VWidth: 999
Flags: W
HStem: -12 49<135.986 230.912 329.815 423.014> 404 35<147.52 257.151>
VStem: 41 83<49.7405 154.018> 55 77<291.902 375.751> 288 78<74.5304 217 244.062 374.836>
AnchorPoint: "ogonek" 410 16 basechar 0
AnchorPoint: "unten_anhang" 167 -3 basechar 0
AnchorPoint: "unten_punkt" 196 -110 basechar 0
AnchorPoint: "top_akzent" 209 645 basechar 0
LayerCount: 2
Fore
SplineSet
288 50 m 1xd8
 286 50 l 1
 266 34 l 2
 245.743 17.7943 227.276 5.62883 203.333 -3.40109 c 0
 187.128 -9.51302 166.916 -12 144 -12 c 3
 86 -12 41 19.8252 41 93 c 3xe8
 41 161 105.213 202.166 201 227 c 2
 282 248 l 2
 285 249 288 251 288 258 c 0
 288 391 246 404 212 404 c 3
 174 404 132 391 132 360 c 3
 132 349 133 343 134 340 c 0
 136 336 137 329 137 322 c 3
 137 309 119 288 90 288 c 3
 67 288 55 300 55 324 c 3
 55 381 138 439 220 439 c 3
 293 439 366 412 366 270 c 2
 366 125 l 2
 366 78.957 367 40 396 40 c 3
 408.667 40 425.5 49.833 433 56 c 1
 444.333 49.667 448.333 41.333 450 29 c 1
 429.333 9 393.333 -8 355 -8 c 3
 304.63 -8 294 19 288 50 c 1xd8
288 217 m 1
 214 196 l 2
 140.502 175.143 124 142 124 97 c 3
 124 66 144 37 181 37 c 3
 219 37 248 59 274 80 c 0
 282 86 288 93 288 106 c 2
 288 217 l 1
EndSplineSet
Substitution2: "'sups' Hochgestellte 1" a.superior
AlternateSubs2: "'aalt' Alle Alternativen zeigen 1" uniE051
Substitution2: "'sinf' Wissenschaftliche Indices 1" a.inferior
Substitution2: "'smcp' Gemeine nach Kapitaelchen 1" a.sc
EndChar
StartChar: b
Encoding: 98 98 282
Width: 493
VWidth: 999
Flags: W
HStem: -10 35<183.011 293.829> 395 44<199.559 311.679> 641 30<10.0654 63.2832> 678 20G<135.5 152.5>
VStem: 78 79<46.82 367.15 399 632.259> 370 86<133.574 324.177>
AnchorPoint: "mittelpunkt" 236 215 basechar 0
AnchorPoint: "top_rechts" 420 580 basechar 0
AnchorPoint: "unten_punkt" 234 -110 basechar 0
LayerCount: 2
Back
SplineSet
231 404 m 3
 150.994 404 120 315 120 228 c 3
 120 151 154 25 258 25 c 3
 305 25 370 56 370 182 c 3
 370 326.003 317 404 231 404 c 3
34 205 m 3
 34 268.191 53.0527 326.43 89.3389 369 c 0
 125.981 411.988 180.18 439 246 439 c 3
 399 439 456 318 456 214 c 3
 456 152.678 435.691 89.7803 390.864 46 c 0
 356.738 12.6709 308.402 -10 244 -10 c 3
 207.296 -10 160.562 0.308594 130.263 19 c 0
 64.7822 59.3936 34 135.268 34 205 c 3
EndSplineSet
Fore
SplineSet
167 394 m 0
 198 422 236.08 439 279 439 c 3
 366 439 456 364 456 242 c 3
 456 83 337 -10 235 -10 c 3
 199.741 -10 171.833 -3.83333 147 14.7566 c 0
 135.498 23.367 130 24 119.66 12 c 0
 111.95 3.05258 103.088 -6.23242 96 -12 c 1
 84 -12 79 -8 74 0 c 1
 77 14 78 32 78 71 c 2
 78 559 l 2
 78 629.25 66 638 14 641 c 1
 8 647 6 663 8 671 c 1
 48 674 123 688 148 698 c 1
 157 698 161 695 161 688 c 1
 161 688 157 648 157 583 c 2
 157 399 l 2
 157 390 160.703 388.312 167 394 c 0
174 363 m 0
 161.114 351.601 157 342 157 321 c 2
 157 71 l 1
 177.5 39.1667 206.937 25 229 25 c 7
 324 25 370 110 370 224 c 3
 370 321 320 395 259 395 c 3
 230 395 200 386 174 363 c 0
EndSplineSet
Substitution2: "'sinf' Wissenschaftliche Indices 1" uniE149
Substitution2: "'sups' Hochgestellte 1" b.superior
AlternateSubs2: "'aalt' Alle Alternativen zeigen 1" uniE052
Substitution2: "'smcp' Gemeine nach Kapitaelchen 1" b.sc
EndChar
StartChar: c
Encoding: 99 99 283
Width: 428
VWidth: 999
Flags: W
HStem: -10 49<194.596 322.53> 406 33<186.285 287.961>
VStem: 37 86<123.239 310.572> 308 87<307.358 390.405>
AnchorPoint: "mittelpunkt" 236 215 basechar 0
AnchorPoint: "ogonek" 361 42 basechar 0
AnchorPoint: "unten_anhang" 242 -2 basechar 0
AnchorPoint: "unten_punkt" 236 -110 basechar 0
AnchorPoint: "top_akzent" 242 645 basechar 0
LayerCount: 2
Back
SplineSet
386 93 m 5
 398 92 404 87 407 77 c 5
 367 25 313 -10 237 -10 c 7
 165 -10 118 14 84 54 c 4
 51 92 37 146 37 202 c 7
 37 354 150 437 237 437 c 7
 376 437 406 347 406 263 c 7
 406 252 399 246 387 246 c 6
 121 248 l 5
 121 190 133 144 153 111 c 4
 184 60 226 39 262 39 c 7
 320 39 349 55 386 93 c 5
124 282 m 5
 305 285 l 6
 315.979 285.188 320 290 320 299 c 7
 320 383 275 404 237 404 c 7
 213 404 143 395 124 282 c 5
EndSplineSet
Fore
SplineSet
398 91 m 1
 348 9 295 -10 235 -10 c 3
 109 -10 37 79 37 208 c 3
 37 350 143 439 242 439 c 7
 338 439 395 399 395 344 c 7
 395 313 367 300 346 300 c 7
 325 300 311 309 308 336 c 4
 304 371 296 406 237 406 c 7
 171 406 123 340 123 230 c 3
 123 113 184 39 257 39 c 3
 300 39 343 61 377 105 c 1
 386 104 394 100 398 91 c 1
EndSplineSet
Validated: 3073
Substitution2: "'sinf' Wissenschaftliche Indices 1" uniE14A
Substitution2: "'sups' Hochgestellte 1" c.superior
Substitution2: "'smcp' Gemeine nach Kapitaelchen 1" c.sc
AlternateSubs2: "'aalt' Alle Alternativen zeigen 1" uniE053
EndChar
StartChar: d
Encoding: 100 100 284
Width: 506
VWidth: 999
Flags: W
HStem: -10 47<182.748 279.881> 30 27<444.892 500.639> 404 35<187.076 307.283> 641 30<267.065 327.842> 678 20G<402.5 419.5>
VStem: 39 86<108.084 310.695> 345 79<80.6055 373.206 422.656 631.111>
AnchorPoint: "mittelpunkt" 236 215 basechar 0
AnchorPoint: "komb_OR" 500 466 basechar 0
AnchorPoint: "top_rechts" 490 580 basechar 0
AnchorPoint: "top_akzent" 218 645 basechar 0
AnchorPoint: "ogonek" 312 20 basechar 0
AnchorPoint: "unten_punkt" 221 -110 basechar 0
LayerCount: 2
Fore
SplineSet
334 50.3145 m 0xbe
 285 10 248 -10 209 -10 c 3xbe
 101 -10 39 80 39 203 c 3
 39 277 65 336 108 379 c 0
 148 417 192 439 258 439 c 3
 279.485 439 303 433.667 317.833 425.765 c 0
 340.61 413.631 345 412.5 345 439 c 2
 345 559 l 2
 345 627.75 333 638 271 641 c 1
 265 647 263 663 265 671 c 1
 315 674 390 688 415 698 c 1
 424 698 428 695 428 688 c 1
 428 688 424 648 424 583 c 2
 424 130 l 2
 424 81 433 62 497 57 c 1
 503 51 503 36 497 30 c 1x7e
 436 23 401 8 379 -10 c 1
 373 -12.5 368 -13 360 -10 c 1
 360 -10 351.5 24.5 349 49 c 0
 348.289 55.9638 338.797 54.2609 334 50.3145 c 0xbe
345 124 m 2
 345 314 l 2
 345 345 342 352 328 368 c 0
 308 391 283 404 247 404 c 3
 227 404 185 401 154 354 c 0
 139 333 125 293 125 221 c 3
 125 96 181 37 235 37 c 3
 260.02 37 292 53 329 85 c 0
 343.069 97.168 345 105 345 124 c 2
EndSplineSet
Substitution2: "'sinf' Wissenschaftliche Indices 1" uniE14B
Substitution2: "'sups' Hochgestellte 1" d.superior
AlternateSubs2: "'aalt' Alle Alternativen zeigen 1" uniE054
Substitution2: "'smcp' Gemeine nach Kapitaelchen 1" d.sc
EndChar
StartChar: e
Encoding: 101 101 285
Width: 447
VWidth: 999
Flags: W
HStem: -10 50<198.819 330.136> 248 34<124 318.997> 402 35<181.946 289.32>
VStem: 37 84<130.927 248 282 308.257> 319 87<257.5 366.769>
AnchorPoint: "mittelpunkt" 236 215 basechar 0
AnchorPoint: "komb_OR" 420 396 basechar 0
AnchorPoint: "unten_anhang" 241 -3 basechar 0
AnchorPoint: "ogonek" 384.3 41 basechar 0
AnchorPoint: "top_akzent" 242.55 645 basechar 0
AnchorPoint: "unten_punkt" 234.15 -110 basechar 0
LayerCount: 2
Back
SplineSet
237 406 m 7
 153 406 122 315 122 228 c 7
 122 151 160 23 264 23 c 7
 311 23 372 50 372 182 c 7
 372 329 323 406 237 406 c 7
36 205 m 7
 36 332.004 113 439 248 439 c 7
 403 439 458 318 458 214 c 7
 458 114 395 -10 246 -10 c 7
 105 -10 36 103 36 205 c 7
EndSplineSet
Fore
SplineSet
386 93 m 1
 398 92 404 87 407 77 c 1
 367 25 313 -10 237 -10 c 3
 165 -10 118 14 84 54 c 0
 51 92 37 146 37 202 c 3
 37 354 140 437 247 437 c 3
 319.615 437 353.483 413.438 377.866 378 c 0
 400.157 345.604 406 303.117 406 263 c 3
 406 252 399 246 387 246 c 2
 121 248 l 1
 121 190 133 144 153 111 c 0
 184 60 226 40 262 40 c 7
 320 40 349 55 386 93 c 1
124 282 m 1
 304 285 l 2
 314.979 285.188 319 290 319 299 c 3
 319 383 275 402 237 402 c 3
 213 402 143 395 124 282 c 1
EndSplineSet
Substitution2: "'sups' Hochgestellte 1" e.superior
AlternateSubs2: "'aalt' Alle Alternativen zeigen 1" uniE055
Substitution2: "'sinf' Wissenschaftliche Indices 1" e.inferior
Substitution2: "'smcp' Gemeine nach Kapitaelchen 1" e.sc
EndChar
StartChar: f
Encoding: 102 102 286
Width: 323
VWidth: 999
Flags: W
HStem: -2 33<23.625 82.25 188.75 263.375> 380 49<52.8201 97 176 293.919> 664 34<215.135 297.557>
VStem: 97 79<41.1717 380 429 583.188> 315 81<592.109 651.434>
AnchorPoint: "mittelpunkt" 137 215 basechar 0
AnchorPoint: "top_rechts" 411 750 basechar 0
AnchorPoint: "unten_punkt" 133 -110 basechar 0
LayerCount: 2
Back
SplineSet
-427 400 m 1025,122,-1
EndSplineSet
Fore
SplineSet
288 380 m 13
 176 380 l 5
 176 122 l 2
 176 39 182 35 260 31 c 1
 266 25 266 4 260 -2 c 1
 225 -1 177 0 137 0 c 3
 97 0 62 -1 27 -2 c 1
 21 4 21 25 27 31 c 1
 81 35 97 39 97 122 c 2
 97 380 l 5
 47 380 l 21
 44.5098 381.796 43 384 43 388 c 5
 48 400 63.167 427 69 429 c 13
 97 429 l 5
 97 469 l 2
 97 625 190 698 274 698 c 3
 312 698 338 695 364 677 c 0
 385 661 396 643 396 626 c 3
 396 605.975 372 585 355 585 c 3
 334 585 323 599 315 617 c 0
 301 652 285 664 255 664 c 3
 222 664 176 640 176 486 c 2
 176 429 l 5
 298 429 l 5
 304 420 299 386 288 380 c 13
EndSplineSet
Substitution2: "Substitution f short 1" f.short
Substitution2: "'sinf' Wissenschaftliche Indices 1" uniE14D
Substitution2: "'sups' Hochgestellte 1" f.superior
Substitution2: "'smcp' Gemeine nach Kapitaelchen 1" f.sc
AlternateSubs2: "'aalt' Alle Alternativen zeigen 1" uniE056
EndChar
StartChar: g
Encoding: 103 103 287
Width: 500
Flags: W
HStem: -238 39<153.747 316.87> -23 65<140.848 281.096> -20 69<183.367 377.11> 136 32<179.792 282.224> 407 32<170.214 272.379> 417 45<362.775 452.325>
VStem: 32 69<-152.982 -58.4794> 60 82<207.645 362.541> 68 63<51.4919 128.287> 315 80<211.052 366.037> 411 61<-130.766 -49.8719>
AnchorPoint: "mittelpunkt" 225 285 basechar 0
AnchorPoint: "top_rechts" 492 580 basechar 0
AnchorPoint: "unten_punkt" 229 -319 basechar 0
AnchorPoint: "top_akzent" 231 645 basechar 0
LayerCount: 2
Back
SplineSet
444 387 m 3xf580
 433 387 420 397 416 405 c 0
 410 414 403 417 396 417 c 3
 383 417 363 403 356 393 c 1
 385 363 399 336 399 289 c 3
 399 191 318 136 230 136 c 3
 191 136 163 143 139 157 c 1
 127 140 121 119 121 99 c 3xf380
 121 56 156 42 185 42 c 3
 190 42 200 43 215 44 c 0
 239 47 264 49 282 49 c 3
 319 49 389 48 428 16 c 0
 457 -8 472 -33 472 -65 c 3
 472 -173 326 -238 191 -238 c 3
 114 -238 32 -211 32 -124 c 3xf980
 32 -81 60 -35 114 -3 c 1
 88 10 68 38 68 74 c 3xf380
 68 108 84 151 112 175 c 1
 84 202 60 233 60 287 c 3
 60 379 142 439 231 439 c 3
 290 439 323 419 335 411 c 1
 361 445 409 462 435 462 c 3
 462 462 481 446 481 425 c 3
 481 405 463 387 444 387 c 3xf580
132 -10 m 1
 103 -45 101 -70 101 -104 c 3xf980
 101 -172 185 -201 221 -201 c 3
 311 -201 417 -163 417 -91 c 3
 417 -65 405 -51 366 -29 c 0
 337 -13 295 -12 245 -12 c 3
 231 -12 203 -15 172 -15 c 3
 159 -15 143 -13 132 -10 c 1
319 279 m 3
 319 362 285 408 222 408 c 3
 167 408 142 372 142 302 c 3xf580
 142 238 151 167 235 167 c 3
 272 167 319 186 319 279 c 3
-170 282 m 0xbac0
 -170 234 -187 197 -223 167 c 0
 -254 141 -290 127 -335 127 c 0
 -372 127 -402 133 -425 147 c 1
 -437 130 -442 112 -442 92 c 0
 -442 70 -434 55 -419 46 c 0
 -407 40 -395 38 -381 38 c 0xd9c0
 -375 38 -369 38 -363 39 c 0
 -333 43 -307 44 -285 44 c 0
 -272 44 -260 44 -250 43 c 0
 -201 39 -166 26 -144 6 c 0
 -116 -19 -102 -41 -102 -74 c 0
 -102 -130 -138 -172 -191 -198 c 0
 -262 -233 -321 -238 -373 -238 c 0
 -412 -238 -464 -223 -489 -201 c 0
 -511 -181 -526 -160 -526 -125 c 0xbcc0
 -526 -99 -514 -74 -491 -44 c 0
 -480 -29 -465 -17 -449 -7 c 1
 -462 0 -469 7 -477 18 c 0
 -487 32 -492 47 -492 66 c 0xb9c0
 -492 100 -477 142 -450 166 c 1
 -461 177 -468 186 -475 197 c 0
 -491 222 -501 249 -501 286 c 0
 -501 336 -484 372 -448 403 c 0
 -419 428 -381 443 -334 443 c 0
 -277 443 -248 427 -233 416 c 2
 -232 415 l 1
 -225 425 -224 425 -212 434 c 0
 -199 444 -185 450 -172 455 c 0
 -158 459 -147 462 -136 462 c 0
 -124 462 -114 458 -107 452 c 0
 -99 444 -97 436 -97 427 c 0
 -97 417 -100 409 -106 403 c 0
 -112 397 -119 395 -127 395 c 0
 -140 395 -150 399 -155 410 c 0
 -159 419 -164 421 -170 421 c 0
 -176 421 -184 418 -195 411 c 0
 -208 402 -209 400 -212 396 c 1
 -184 366 -170 330 -170 282 c 0xbac0
-480 -105 m 0xdcc0
 -480 -145 -464 -171 -428 -185 c 0
 -406 -194 -385 -201 -355 -201 c 0
 -300 -201 -252 -189 -218 -172 c 0
 -180 -153 -160 -132 -160 -100 c 0
 -160 -74 -180 -57 -224 -36 c 0
 -255 -20 -299 -15 -346 -15 c 2xbcc0
 -403 -18 l 2
 -418 -18 -427 -18 -441 -15 c 1
 -455 -27 -464 -40 -471 -57 c 0
 -477 -71 -480 -85 -480 -105 c 0xdcc0
-343 417 m 0
 -375 417 -402 403 -419 364 c 0
 -425 350 -431 334 -431 295 c 0x9ac0
 -431 257 -423 226 -404 195 c 0
 -389 171 -367 155 -330 155 c 0
 -300 155 -275 168 -258 199 c 0
 -242 229 -242 259 -242 278 c 0
 -242 312 -247 339 -260 364 c 0
 -280 399 -306 417 -343 417 c 0
EndSplineSet
Fore
SplineSet
155 149 m 1x9560
 138 136 131 118.532 131 100 c 3
 131 56 160.22 42 186 42 c 3xd4e0
 195 42 206 43 222 45 c 0
 244 47 272 49 298 49 c 3
 346 49 394 41 428 16 c 0
 454 -3 472 -32 472 -68 c 3
 472 -171 324 -238 196 -238 c 7
 156.386 -238 116.294 -232.542 85.6667 -215.118 c 0
 54.1074 -197.163 32 -169.919 32 -127 c 3xb260
 32 -80 56.666 -39.667 112.666 -5.66699 c 1
 86.666 7.33301 68 28 68 67 c 0xb0e0
 68 103 97.75 149.5 127 163.5 c 1
 110 173.333 94 189 81.8682 207.333 c 0
 68.3359 227.783 60 249.667 60 285 c 3
 60 379 140 439 232 439 c 3xb960
 284 439 319 419 331 411 c 1
 357 445 400 462 431 462 c 3
 461 462 477 446 477 425 c 3
 477 404 461 387 440 387 c 3
 425 387 419 395 413 403 c 0
 408 410 403 417 392 417 c 3
 378 417 362 406 352 393 c 1
 381 363 395 335 395 292 c 3
 395 190 316 136 225 136 c 3
 198.185 136 176 140 155 149 c 1x9560
315 280 m 3
 315 362 281 407 220 407 c 3
 156 407 142 358 142 296 c 3x9960
 142 238 154 168 231 168 c 3
 268 168 315 184 315 280 c 3
132 -18 m 1
 108 -46 101 -65 101 -91 c 3
 101 -130.348 120.099 -157.425 144.333 -173.965 c 0
 172.792 -193.39 209.046 -199 234 -199 c 3
 312 -199 411 -163 411 -93 c 3
 411 -68.6644 399 -51.6667 370 -38 c 0
 340.053 -23.887 307 -20 267 -20 c 3xb260
 233 -20 207 -23 179 -23 c 3xd260
 157 -23 143 -21 132 -18 c 1
EndSplineSet
Substitution2: "'sinf' Wissenschaftliche Indices 1" uniE14E
Substitution2: "'sups' Hochgestellte 1" g.superior
AlternateSubs2: "'aalt' Alle Alternativen zeigen 1" uniE057
Substitution2: "'smcp' Gemeine nach Kapitaelchen 1" g.sc
EndChar
StartChar: h
Encoding: 104 104 288
Width: 538
VWidth: 999
Flags: W
HStem: -2 33<14.8555 74.8652 177.846 230.145 312.188 364.637 469.435 525.812> 387 52<251.766 355.581> 641 30<20.0654 73.2832> 678 20G<145.5 162.5>
VStem: 88 79<40.3963 331.447 358 632.655> 377 79<40.3691 365.453>
AnchorPoint: "mittelpunkt" 264 215 basechar 0
AnchorPoint: "top_rechts" 429 580 basechar 0
AnchorPoint: "ogonek" 423 10 basechar 0
AnchorPoint: "top_akzent" 299 645 basechar 0
AnchorPoint: "unten_punkt" 259 -110 basechar 0
LayerCount: 2
Back
SplineSet
176 358 m 4
 237 426 285 439 334 439 c 7
 369 439 400 427 417 405 c 4
 440 374 444 326 444 271 c 6
 444 122 l 6
 444 40 455 36 511 31 c 5
 516 25 516 4 511 -2 c 5
 468 -1 446 0 405 0 c 4
 365 0 345 -1 303 -2 c 5
 298 4 298 25 303 31 c 5
 355 36 365 40 365 122 c 6
 365 274 l 6
 365 304 363 331 353 351 c 4
 341 374 320 387 300 387 c 7
 261 387 222 365 184 328 c 5
 176 319 167 307 167 286 c 6
 167 122 l 6
 167 40 176 36 227 31 c 5
 233 25 233 4 227 -2 c 5
 185 -1 167 0 128 0 c 4
 85 0 59 -1 18 -2 c 5
 12 4 12 25 18 31 c 5
 78 36 88 40 88 122 c 6
 88 317 l 6
 88 375 77 380 23 385 c 5
 21 391 19 407 21 413 c 5
 90 422 131 431 159 442 c 5
 167 442 171 439 171 434 c 5
 171 434 166 388 166 358 c 7
 166 344 173 354 176 358 c 4
EndSplineSet
Fore
SplineSet
167 285.949 m 6
 167 122 l 6
 167 39 176 35 226.77 31 c 5
 232.77 25 232.77 4 226.77 -2 c 5
 198.77 -1 165.99 0 127.99 0 c 4
 87.99 0 51.2305 -1 18.2305 -2 c 5
 12.2305 4 12.2305 25 18.2305 31 c 5
 76.2305 35 88 39 88 122 c 6
 88 559 l 6
 88 630.75 76 638 24 641 c 1
 18 647 16 663 18 671 c 1
 58 674 133 688 158 698 c 1
 167 698 171 695 171 688 c 9
 171 688 167 648 167 583 c 6
 166.21 358 l 4
 166.21 344 172.635 354.273 176 358.023 c 4
 237 426 296.874 439 346 439 c 7
 381 439 412.19 427.01 429 405 c 4
 452.31 374.479 456 326 456 271 c 6
 456 122 l 6
 456 40 467 36 523 31 c 5
 528 25 528 4 523 -2 c 5
 490 -1 457 0 417 0 c 4
 377 0 343 -1 315 -2 c 5
 310 4 310 25 315 31 c 5
 367 36 377 40 377 122 c 6
 377 274 l 6
 377 304 375.025 331.16 365 351 c 4
 353.418 373.921 332.376 387 312 387 c 7
 272.573 387 222 365.258 184 328 c 5
 176 319.258 167 307 167 285.949 c 6
EndSplineSet
Substitution2: "'sinf' Wissenschaftliche Indices 1" uniE14F
Substitution2: "'salt' Stilistische Alternativformen 1" uniE04B
Substitution2: "'sups' Hochgestellte 1" h.superior
AlternateSubs2: "'aalt' Alle Alternativen zeigen 1" uniE058 uniE04B
Substitution2: "'smcp' Gemeine nach Kapitaelchen 1" h.sc
EndChar
StartChar: i
Encoding: 105 105 289
Width: 271
VWidth: 999
Flags: W
HStem: -2 33<26.625 88.875 194.125 256.375> 422 20<157.75 176> 547 98<99.385 177.791>
VStem: 91 98<557.729 636.615> 102 79<40.8314 380.346>
AnchorPoint: "mittelpunkt" 142 215 basechar 0
AnchorPoint: "top_akzent" 137 795 basechar 0
AnchorPoint: "unten_anhang" 137 12 basechar 0
AnchorPoint: "ogonek" 209 10 basechar 0
AnchorPoint: "unten_punkt" 136 -110 basechar 0
LayerCount: 2
Back
SplineSet
-91 645 m 1
 528 645 l 1
 528 549 l 1
 -91 549 l 1
 -91 645 l 1
EndSplineSet
Fore
Refer: 664 729 N 1 0 0 1 -6 0 2
Refer: 419 305 N 1 0 0 1 0 0 3
Substitution2: "Substitution dotless forms 1" dotlessi
Substitution2: "'smcp' Gemeine nach Kapitaelchen i > i.sc 1" i.sc
Substitution2: "'smcp' Gemeine nach Kapitaelchen i > idotaccent.sc" idotaccent.sc
Substitution2: "'sinf' Wissenschaftliche Indices 1" uniE150
Substitution2: "'sups' Hochgestellte 1" i.superior
AlternateSubs2: "'aalt' Alle Alternativen zeigen 1" uniE059
Colour: ff00ff
EndChar
StartChar: j
Encoding: 106 106 290
Width: 272
VWidth: 999
Flags: W
HStem: -223 44<-2.5 87.8438> 422 20<169 187> 547 98<108.385 186.791>
VStem: 100 98<557.729 636.615> 113 79<-100.418 376.901>
AnchorPoint: "unten_punkt" 109 -319 basechar 0
AnchorPoint: "mittelpunkt" 154 215 basechar 0
LayerCount: 2
Back
SplineSet
-91 645 m 1
 528 645 l 1
 528 549 l 1
 -91 549 l 1
 -91 645 l 1
EndSplineSet
Fore
Refer: 664 729 N 1 0 0 1 3 0 2
Refer: 1723 567 N 1 0 0 1 0 0 3
Substitution2: "Substitution dotless forms 1" dotlessj
Substitution2: "'sinf' Wissenschaftliche Indices 1" uniE151
Substitution2: "'sups' Hochgestellte 1" j.superior
Substitution2: "'smcp' Gemeine nach Kapitaelchen 1" j.sc
AlternateSubs2: "'aalt' Alle Alternativen zeigen 1" uniE05A uniE0B6
Colour: ff00ff
EndChar
StartChar: k
Encoding: 107 107 291
Width: 512
VWidth: 999
Flags: HMW
HStem: -2 33<15.625 73.5 175.625 220.375 445.728 506.375> 209 25<163 201.114> 398 33<286.625 324.739 407.445 478.375> 641 30<18.0654 76.3801> 678 20G<143.5 160.5>
VStem: 86 79<39.666 209 234 635.885>
DStem2: 417 73 240 171 0.622392 -0.782705<-227.215 22.5167>
AnchorPoint: "top_rechts" 535.607 696.391 basechar 0
AnchorPoint: "unten_anhang" 107.928 -57.3291 basechar 0
AnchorPoint: "top_akzent" 305.928 783.511 basechar 0
AnchorPoint: "unten_punkt" 290.088 -214.41 basechar 0
LayerCount: 2
Back
SplineSet
174 358 m 0
 235 426 283 439 332 439 c 3
 367 439 398 427 415 405 c 0
 438 374 442 326 442 271 c 2
 442 122 l 2
 442 40 453 36 509 31 c 1
 514 25 514 4 509 -2 c 1
 466 -1 444 0 403 0 c 0
 363 0 343 -1 301 -2 c 1
 296 4 296 25 301 31 c 1
 353 36 363 40 363 122 c 2
 363 274 l 2
 363 304 361 331 351 351 c 0
 339 374 318 387 298 387 c 3
 259 387 220 365 182 328 c 1
 174 319 165 307 165 286 c 2
 165 122 l 2
 165 40 174 36 225 31 c 1
 231 25 231 4 225 -2 c 1
 183 -1 165 0 126 0 c 0
 83 0 57 -1 16 -2 c 1
 10 4 10 25 16 31 c 1
 76 36 86 40 86 122 c 2
 86 317 l 2
 86 375 75 380 21 385 c 1
 19 391 17 407 19 413 c 1
 88 422 129 431 157 442 c 1
 165 442 169 439 169 434 c 1
 169 434 164 388 164 358 c 3
 164 344 171 354 174 358 c 0
86 133 m 2
 86 559 l 2
 86 643 74 636 22 639 c 1
 16 645 14 664 16 672 c 1
 56 675 131 688 156 698 c 1
 165 698 169 695 169 688 c 1
 169 688 165 648 165 583 c 2
 165 133 l 2
 165 37 176 37 217 31 c 1
 223 25 223 4 217 -2 c 1
 174 -1 161 0 126 0 c 27
 84 0 61 -1 19 -2 c 1
 13 4 13 25 19 31 c 1
 75 38 86 37 86 133 c 2
-57.1289 0.976562 m 1025
566.466 657.57 m 1041
EndSplineSet
Fore
SplineSet
86 122 m 2
 86 559 l 2
 86 631.5 74 638 22 641 c 1
 16 647 14 663 16 671 c 1
 56 674 131 688 156 698 c 1
 165 698 169 695 169 688 c 1
 169 688 165 648 165 583 c 2
 165 122 l 2
 165 39 176 35 217 31 c 1
 223 25 223 4 217 -2 c 1
 194 -1 161 0 126 0 c 19
 86 0 52 -1 19 -2 c 1
 13 4 13 25 19 31 c 1
 75 35 86 39 86 122 c 2
163 234 m 1
 182 236 210 248 233 265 c 0
 258.677 283.979 290 318 313 347 c 0
 322.26 358.676 346 394 290 398 c 1
 284 404 284 425 290 431 c 1
 313 430 350 429 388 429 c 3
 424 429 452 430 475 431 c 1
 481 425 481 404 475 398 c 1
 435 394 400 386 370 354 c 2
 282 263 l 2
 278 259 278 257 278 253 c 0
 278 248 281.402 243.525 285 239 c 2
 417 73 l 2
 443.735 39.3793 469 35 503 31 c 1
 509 25 509 4 503 -2 c 1
 483 -1 452 0 421 0 c 3
 401 0 379 -1 359 -2 c 1
 356 -2 355.341 0.0196552 355 3 c 0
 353.667 14.6667 342.39 33.5454 313 73 c 2
 240 171 l 2
 228.053 187.039 219 196 208 203.519 c 1
 198 207 183.182 208.531 163 209 c 1
 163 234 l 1
EndSplineSet
Substitution2: "'sinf' Wissenschaftliche Indices 1" uniE152
Substitution2: "'sups' Hochgestellte 1" k.superior
AlternateSubs2: "'aalt' Alle Alternativen zeigen 1" uniE05B
Substitution2: "'smcp' Gemeine nach Kapitaelchen 1" k.sc
EndChar
StartChar: l
Encoding: 108 108 2050
Width: 264
VWidth: 999
Flags: W
HStem: -2 33<19.625 81.875 187.125 249.375> 641 30<27.0654 82.8303> 678 20G<152.5 169.5>
VStem: 95 79<39.9611 633.683>
AnchorPoint: "top_akzent" 135 885 basechar 0
AnchorPoint: "mittelpunkt" 136 215 basechar 0
AnchorPoint: "top_rechts" 249 733 basechar 0
AnchorPoint: "unten_anhang" 135 10 basechar 0
AnchorPoint: "unten_punkt" 135 -110 basechar 0
LayerCount: 2
Back
SplineSet
95 575 m 6
 95 646 84.4814 637.932 30 643 c 5
 28 649 26 665 28 671 c 5
 97 680 137.5 689 166 700 c 5
 174 700 178 697 178 692 c 5
 178 692 173.21 646.001 173.21 616 c 7
 173.21 602 179.635 612.273 183 616.023 c 1028
174 133 m 2
 174 37 185 38 246 31 c 1
 252 25 252 4 246 -2 c 1
 203 -1 178 0 135 0 c 27
 91 0 65 -1 23 -2 c 1
 17 4 17 25 23 31 c 1
 84 38 95 37 95 133 c 1026
170.47 558 m 2
 170.47 86.4902 l 2
 170.47 33.4805 172.33 22.3203 213.25 22.3203 c 0
 238.36 22.3203 240.22 21.3896 240.22 10.2305 c 0
 240.22 4.65039 240.22 -1.86035 230.92 -1.86035 c 0
 226.27 -1.86035 214.18 0 149.08 0 c 0
 61.6602 0 37.4805 -1.86035 28.1797 -1.86035 c 0
 20.7402 -1.86035 20.7402 3.71973 20.7402 8.37012 c 0
 20.7402 20.46 21.6699 22.3203 56.0801 22.3203 c 0
 75.6104 22.3203 83.9805 31.6201 89.5596 44.6396 c 0
 93.2803 53.0098 95.1396 175.77 95.1396 215.76 c 2
 95.1396 541.26 l 2
 95.1396 622.17 92.3496 633.33 41.2002 637.98 c 0
 35.6201 638.91 32.8301 642.63 32.8301 649.14 c 0
 32.8301 656.58 35.6201 661.23 40.2695 662.16 c 0
 115.6 675.18 160.24 702.15 169.54 702.15 c 0
 173.26 702.15 175.12 697.5 175.12 691.92 c 0
 175.12 688.2 170.47 678.9 170.47 558 c 2
EndSplineSet
Fore
SplineSet
95 122 m 6
 95 559 l 6
 95 631.5 89 637 31 641 c 5
 25 647 23 663 25 671 c 5
 65 674 140 688 165 698 c 5
 174 698 178 695 178 688 c 5
 178 688 174 648 174 583 c 6
 174 122 l 6
 174 39 185 34 246 31 c 5
 252 25 252 4 246 -2 c 5
 213 -1 173.667 0 135 0 c 7
 95 0 58 -1 23 -2 c 5
 17 4 17 25 23 31 c 5
 84 34 95 39 95 122 c 6
EndSplineSet
Substitution2: "'sinf' Wissenschaftliche Indices 1" uniE153
Substitution2: "'sups' Hochgestellte 1" l.superior
AlternateSubs2: "'aalt' Alle Alternativen zeigen 1" uniE05C
Substitution2: "'smcp' Gemeine nach Kapitaelchen 1" l.sc
EndChar
StartChar: m
Encoding: 109 109 293
Width: 790
VWidth: 999
Flags: HMW
HStem: -2 33<22.625 80.625 184.671 236.145 299.188 353.25 453.75 504.812 569.188 622.5 724.375 779.812> 387 52<255.398 346.132 516.369 618.617>
VStem: 94 79<40.6752 331.576 360.417 377.119> 364 79<38.5665 343.017> 634 79<39.2274 372.56>
CounterMasks: 1 38
AnchorPoint: "mittelpunkt" 278 215 basechar 0
AnchorPoint: "unten_anhang" 137 9 basechar 0
AnchorPoint: "top_akzent" 392 645 basechar 0
AnchorPoint: "unten_punkt" 408 -110 basechar 0
LayerCount: 2
Back
SplineSet
182 358 m 0
 241.333 426 297 439 346 439 c 3
 381 439 412 427 429 405 c 0
 452 374 456 326 456 271 c 2
 456 122 l 2
 456 40 467 36 523 31 c 1
 528 25 528 4 523 -2 c 1
 493 -1 457 0 417 0 c 0
 377 0 345 -1 315 -2 c 1
 310 4 310 25 315 31 c 1
 367 36 377 40 377 122 c 2
 377 274 l 2
 377 304 375 331 365 351 c 0
 353 374 332 387 312 387 c 3
 273 387 228 365 190 328 c 1
 182 319 173 307 173 286 c 2
 173 122 l 2
 173 40 183 36 234 31 c 1
 240 25 240 4 234 -2 c 1
 204 -1 174 0 134 0 c 0
 94 0 54 -1 24 -2 c 1
 18 4 18 25 24 31 c 1
 84 36 94 40 94 122 c 2
 94 317 l 2
 94 375 83 380 29 385 c 1
 27 391 25 407 27 413 c 1
 96 422 122 431 150 442 c 1
 158 442 159.938 438.566 162 434 c 0
 166.667 423.667 169 385 170 358 c 0
 170.347 348.649 175.859 350.963 182 358 c 0
443 272 m 1
 634 272 l 1
 634 144 l 1
 443 144 l 1
 443 272 l 1
173 272 m 1
 364 272 l 1
 364 144 l 1
 173 144 l 1
 173 272 l 1
EndSplineSet
Fore
SplineSet
170 358 m 0
 170.541 345.971 177.432 352.91 182 358.023 c 0
 223.667 404.667 275.971 439 334 439 c 3
 385.975 439 424.455 406.552 434 365.584 c 0
 436 357 442 362 445 365.169 c 0
 497.107 420.205 558.842 439 610 439 c 3
 698 439 713 369 713 280 c 2
 713 122 l 2
 713 40 722 35 777 31 c 1
 782 25 782 4 777 -2 c 1
 749 -1 714 0 674 0 c 0
 634 0 597 -1 572 -2 c 1
 567 4 567 25 572 31 c 1
 624 35 634 40 634 122 c 2
 634 298 l 2
 634 365 612 387 574 387 c 3
 535 387 490 374 442 321 c 1
 443 309 443 295 443 281 c 2
 443 122 l 2
 443 40 452 35 502 31 c 1
 507 25 507 4 502 -2 c 1
 477 -1 444 0 404 0 c 0
 364 0 327 -1 302 -2 c 1
 297 4 297 25 302 31 c 1
 356 35 364 40 364 122 c 2
 364 296 l 2
 364 363 336 387 298 387 c 3
 267.069 387 229.576 366.723 190 328 c 1
 182 319.258 173 307 173 286 c 2
 173 122 l 2
 173 40 184 36 234.77 31 c 1
 240.77 25 240.77 4 234.77 -2 c 1
 204.77 -1 173.99 0 133.99 0 c 4
 93.99 0 56 -1 26 -2 c 5
 20 4 20 25 26 31 c 5
 81 35 94 40 94 122 c 6
 94 317 l 2
 94 375 83 380 29 385 c 1
 27 391 25 407 27 413 c 1
 96 422 122 431 150 442 c 1
 158 442 159.938 438.566 162 434 c 0
 166.667 423.667 168.667 387.667 170 358 c 0
EndSplineSet
Substitution2: "'sinf' Wissenschaftliche Indices 1" uniE154
Substitution2: "'sups' Hochgestellte 1" m.superior
AlternateSubs2: "'aalt' Alle Alternativen zeigen 1" uniE05D
Substitution2: "'smcp' Gemeine nach Kapitaelchen 1" m.sc
EndChar
StartChar: n
Encoding: 110 110 294
Width: 542
VWidth: 999
Flags: HMW
HStem: -2 33<22.625 82.5404 186.702 238.375 314.188 366.637 471.435 527.812> 387 52<256.725 356.667>
VStem: 96 79<40.3691 331.425 370.116 376.975> 379 79<40.3691 350.057>
AnchorPoint: "mittelpunkt" 264 215 basechar 0
AnchorPoint: "unten_anhang" 136 9 basechar 0
AnchorPoint: "unten_punkt" 265 -110 basechar 0
AnchorPoint: "top_akzent" 264 646 basechar 0
LayerCount: 2
Back
SplineSet
438 93 m 1
 450 92 456 87 459 77 c 1
 419 25 365 -10 289 -10 c 3
 217 -10 170 14 136 54 c 0
 103 92 89 146 89 202 c 3
 89 354 202 437 289 437 c 3
 428 437 458 347 458 263 c 3
 458 252 451 246 439 246 c 2
 173 248 l 1
 173 190 185 144 205 111 c 0
 236 60 278 39 314 39 c 3
 372 39 401 55 438 93 c 1
176 282 m 1
 357 285 l 2
 367.979 285.188 372 290 372 299 c 3
 372 383 327 404 289 404 c 3
 265 404 195 395 176 282 c 1
EndSplineSet
Fore
SplineSet
184 358 m 4
 243.333 426 299 439 348 439 c 7
 383 439 414 427 431 405 c 4
 454 374 458 326 458 271 c 6
 458 122 l 6
 458 40 469 36 525 31 c 5
 530 25 530 4 525 -2 c 5
 495 -1 459 0 419 0 c 4
 379 0 347 -1 317 -2 c 5
 312 4 312 25 317 31 c 5
 369 36 379 40 379 122 c 6
 379 274 l 6
 379 304 377 331 367 351 c 4
 355 374 334 387 314 387 c 7
 275 387 230 365 192 328 c 5
 184 319 175 307 175 286 c 6
 175 122 l 6
 175 40 185 36 236 31 c 5
 242 25 242 4 236 -2 c 5
 206 -1 176 0 136 0 c 4
 96 0 56 -1 26 -2 c 5
 20 4 20 25 26 31 c 5
 86 36 96 40 96 122 c 6
 96 317 l 6
 96 375 85 380 31 385 c 5
 29 391 27 407 29 413 c 5
 98 422 124 431 152 442 c 5
 160 442 161.938 438.566 164 434 c 4
 168.667 423.667 171 385 172 358 c 4
 172.346 348.649 177.86 350.963 184 358 c 4
EndSplineSet
Substitution2: "'sinf' Wissenschaftliche Indices 1" uniE155
AlternateSubs2: "'aalt' Alle Alternativen zeigen 1" uniE05E
Substitution2: "'sups' Hochgestellte 1" n.superior
Substitution2: "'smcp' Gemeine nach Kapitaelchen 1" n.sc
EndChar
StartChar: o
Encoding: 111 111 295
Width: 504
VWidth: 999
Flags: W
HStem: -10 35<205.698 321.376> 404 35<184.225 299.49>
VStem: 41 86<117.524 314.731> 377 86<109.15 316.258>
AnchorPoint: "mittelpunkt" 236 215 basechar 0
AnchorPoint: "komb_OR" 420 396 basechar 0
AnchorPoint: "unten_anhang" 241 -3 basechar 0
AnchorPoint: "ogonek" 372 44 basechar 0
AnchorPoint: "unten_punkt" 243 -110 basechar 0
AnchorPoint: "top_akzent" 238 645 basechar 0
LayerCount: 2
Back
SplineSet
266 23 m 3
 356.006 23 377 114 377 201 c 3
 377 278 343 406 239 406 c 3
 192 406 127 373 127 247 c 3
 127 102.996 180 23 266 23 c 3
463 224 m 3
 463 160.809 443.947 102.57 407.661 60 c 0
 371.019 17.0117 316.82 -10 251 -10 c 3
 98 -10 41 111 41 215 c 3
 41 276.321 61.3086 339.22 106.136 383 c 0
 140.262 416.329 188.598 439 253 439 c 3
 395 439 463 326 463 224 c 3
EndSplineSet
Fore
SplineSet
238 404 m 3
 157.994 404 127 315 127 228 c 3
 127 151 161 25 265 25 c 3
 312 25 377 56 377 182 c 3
 377 326.003 324 404 238 404 c 3
41 205 m 3
 41 268.191 60.0527 326.43 96.3389 369 c 0
 132.981 411.988 187.18 439 253 439 c 3
 406 439 463 318 463 214 c 3
 463 152.678 442.691 89.7803 397.864 46 c 0
 363.738 12.6709 315.402 -10 251 -10 c 3
 214.295 -10 167.562 0.308594 137.263 19 c 0
 71.7822 59.3936 41 135.267 41 205 c 3
EndSplineSet
Substitution2: "'sups' Hochgestellte 1" o.superior
AlternateSubs2: "'aalt' Alle Alternativen zeigen 1" uniE05F
Substitution2: "'sinf' Wissenschaftliche Indices 1" o.inferior
Substitution2: "'smcp' Gemeine nach Kapitaelchen 1" o.sc
EndChar
StartChar: p
Encoding: 112 112 296
Width: 519
VWidth: 999
Flags: HMW
HStem: -234 33<4.625 66.875 173.375 244.375> -10 34<188.572 321.233> 393 46<232.265 331.948>
VStem: 80 79<-190.429 2.78302 47.5916 340.925 367.852 376.901> 395 86<121.423 316.141>
AnchorPoint: "mittelpunkt" 246 215 basechar 0
AnchorPoint: "top_rechts" 429 580 basechar 0
AnchorPoint: "unten_punkt" 179 -319 basechar 0
AnchorPoint: "top_akzent" 271 646 basechar 0
LayerCount: 2
Fore
SplineSet
156 368 m 0
 156.48 358.394 161.367 357.654 167 364 c 0
 206.5 408.5 257.5 439 304 439 c 3
 406 439 481 341 481 235 c 3
 481 154 454 92 407 46 c 0
 366 7 316 -10 260 -10 c 3
 228.389 -10 197.47 -4.46402 173 5.45664 c 0
 162.755 9.60996 159 11 159 -2 c 2
 159 -110 l 2
 159 -193 170 -197 241 -201 c 1
 247 -207 247 -228 241 -234 c 1
 208 -233 160 -232 120 -232 c 3
 80 -232 43 -233 8 -234 c 1
 2 -228 2 -207 8 -201 c 1
 69 -198 80 -193 80 -110 c 2
 80 317 l 2
 80 375 69 380 15 385 c 1
 13 391 11 407 13 413 c 1
 82 422 108 431 136 442 c 1
 144 442 145.938 438.566 148 434 c 0
 152.667 423.667 154.5 398 156 368 c 0
175 331 m 0
 163.373 316.689 159 308 159 287 c 2
 159 105 l 2
 159 68.9424 162.948 63.1176 183 45.1391 c 0
 201 29 236 24 254 24 c 3
 366 24 395 126 395 208 c 3
 395 321 340 393 276 393 c 3
 246.792 393 201 363 175 331 c 0
EndSplineSet
Substitution2: "'sinf' Wissenschaftliche Indices 1" uniE157
Substitution2: "'sups' Hochgestellte 1" p.superior
AlternateSubs2: "'aalt' Alle Alternativen zeigen 1" uniE060
Substitution2: "'smcp' Gemeine nach Kapitaelchen 1" p.sc
EndChar
StartChar: q
Encoding: 113 113 297
Width: 503
VWidth: 999
Flags: W
HStem: -234 33<270.625 333.825 437.177 500.375> -10 44<196.133 329.916> 405 34<185.915 298.75>
VStem: 35 86<115.394 309.905> 346 79.004<-192.377 8.53558 47.5559 365.318>
AnchorPoint: "mittelpunkt" 236 215 basechar 0
AnchorPoint: "top_rechts" 469 732 basechar 0
AnchorPoint: "unten_punkt" 348 -319 basechar 0
AnchorPoint: "top_akzent" 238 645 basechar 0
LayerCount: 2
Fore
SplineSet
346 -111 m 2
 346 3.21865e-06 l 2
 346 21 342 19 319 5.61178 c 0
 301.869 -4.3599 269 -10 242 -10 c 3
 98 -10 35 114 35 207 c 3
 35 339 125 439 247 439 c 3
 289.386 439 328.428 430.239 360 409.777 c 0
 372 402 376 405 389 423 c 0
 397.134 434.262 403 442 410 442 c 3
 421 442 425 431 425 417 c 2
 425.004 -111 l 2
 425.004 -194 436 -198 497 -201 c 1
 503 -207 503 -228 497 -234 c 1
 464 -233 426 -232 386 -232 c 3
 346 -232 309 -233 274 -234 c 1
 268 -228 268 -207 274 -201 c 1
 335 -198 346 -194 346 -111 c 2
322 368.423 m 0
 300.147 392.923 273.397 405 243 405 c 3
 163 405 121 331 121 227 c 3
 121 76 208 34 266 34 c 3
 281.752 34 308.643 35.0951 332 47.2403 c 0
 345 54 346 59 346 77 c 2
 346 307 l 2
 346 331.134 342 346 322 368.423 c 0
EndSplineSet
Substitution2: "'sinf' Wissenschaftliche Indices 1" uniE158
Substitution2: "'sups' Hochgestellte 1" uniE0D0
AlternateSubs2: "'aalt' Alle Alternativen zeigen 1" uniE061
Substitution2: "'smcp' Gemeine nach Kapitaelchen 1" q.sc
EndChar
StartChar: r
Encoding: 114 114 298
Width: 372
VWidth: 999
Flags: HMW
HStem: -2 33<22.625 86.25 193.75 264.375> 377 62<240.275 322.969>
VStem: 100 79<42.4172 324.567 375.699 376.304>
AnchorPoint: "mittelpunkt" 136 185 basechar 0
AnchorPoint: "top_rechts" 349 580 basechar 0
AnchorPoint: "unten_anhang" 134 7 basechar 0
AnchorPoint: "top_akzent" 191 646 basechar 0
AnchorPoint: "unten_punkt" 135 -110 basechar 0
LayerCount: 2
Back
SplineSet
188 358 m 0
 247.333 426 303 439 352 439 c 3
 387 439 418 427 435 405 c 0
 458 374 462 326 462 271 c 2
 462 122 l 2
 462 40 473 36 529 31 c 1
 534 25 534 4 529 -2 c 1
 499 -1 463 0 423 0 c 0
 383 0 351 -1 321 -2 c 1
 316 4 316 25 321 31 c 1
 373 36 383 40 383 122 c 2
 383 274 l 2
 383 304 381 331 371 351 c 0
 359 374 338 387 318 387 c 3
 279 387 234 365 196 328 c 1
 188 319 179 307 179 286 c 2
 179 122 l 2
 179 40 189 36 240 31 c 1
 246 25 246 4 240 -2 c 1
 210 -1 180 0 140 0 c 0
 100 0 60 -1 30 -2 c 1
 24 4 24 25 30 31 c 1
 90 36 100 40 100 122 c 2
 100 317 l 2
 100 375 89 380 35 385 c 1
 33 391 31 407 33 413 c 1
 102 422 128 431 156 442 c 1
 164 442 165.938 438.566 168 434 c 0
 172.667 423.667 175 385 176 358 c 0
 176.347 348.649 181.859 350.963 188 358 c 0
304 439 m 0
 338 439 362 413 362 389 c 0
 362 369 349 349 330 340 c 0
 318 335 309 336 303 342 c 0
 289 357 277 363 261 363 c 1024
174.667 423.547 m 0
 260.532 466.479 329.403 456.193 354 407 c 0
 367.863 379.273 348.634 355.124 329.851 345.732 c 0
 311.067 336.341 294.521 338.129 279.763 360.938 c 0
 260.532 390.453 237.725 418.181 184.953 391.795 c 1024
EndSplineSet
Fore
SplineSet
176 358 m 0
 176.208 353.004 181 345 187 356 c 0
 210 395 251 439 298 439 c 3
 340 439 358 410.105 358 391 c 3
 358 366 335.021 341 311 341 c 3
 293.627 341 282.311 354.296 274.75 364.335 c 0
 267 374.625 258 377 249 377 c 3
 237 377 214 344 203 328 c 0
 191 310 179 287 179 261 c 2
 179 122 l 2
 179 39 191 36 261 31 c 1
 267 25 267 4 261 -2 c 1
 226 -1 180 0 140 0 c 0
 100 0 61 -1 26 -2 c 1
 20 4 20 25 26 31 c 1
 88 35 100 39 100 122 c 2
 100 317 l 2
 100 375 89 380 35 385 c 1
 33 391 31 407 33 413 c 1
 102 422 128 431 156 442 c 1
 164 442 165.938 438.566 168 434 c 0
 172.667 423.667 174.333 398 176 358 c 0
EndSplineSet
Substitution2: "'sinf' Wissenschaftliche Indices 1" uniE159
Substitution2: "'sups' Hochgestellte 1" r.superior
AlternateSubs2: "'aalt' Alle Alternativen zeigen 1" uniE062
Substitution2: "'smcp' Gemeine nach Kapitaelchen 1" r.sc
EndChar
StartChar: s
Encoding: 115 115 2051
Width: 390
VWidth: 999
Flags: MW
HStem: -10 33<127.059 243.283> 406 33<156.285 254.66>
VStem: 62 71<289.365 386.107> 274 76<48.2659 146.366>
AnchorPoint: "top_rechts" 366 580 basechar 0
AnchorPoint: "ogonek" 290 13 basechar 0
AnchorPoint: "top_akzent" 206 645 basechar 0
AnchorPoint: "unten_anhang" 194 1 basechar 0
AnchorPoint: "unten_punkt" 196 -110 basechar 0
LayerCount: 2
Fore
SplineSet
48 138 m 1
 54 144 73 145 79 139 c 1
 85 114 96 70 118 47 c 0
 128.276 36.2572 150 23 189 23 c 3
 226 23 274 44 274 93 c 3
 274 136 255 157 172 191 c 0
 95 223 62 254 62 327 c 3
 62 391.008 129 439 203 439 c 3
 255 439 303 425 334 420 c 1
 333 387 331 350 328 314 c 1
 322 308 302 307 296 313 c 1
 283 398 225 406 203 406 c 3
 168.985 406 133 383 133 342 c 3
 133 287 172.842 271.579 233 249.245 c 0
 301 224 350 184.275 350 116 c 3
 350 17 247 -10 191 -10 c 3
 154 -10 127 -6 100 1 c 0
 93 3 87 3 80 3 c 3
 75 3 65 2 55 0 c 1
 55 42 52 89 48 138 c 1
EndSplineSet
Substitution2: "'sinf' Wissenschaftliche Indices 1" uniE15A
Substitution2: "'sups' Hochgestellte 1" s.superior
AlternateSubs2: "'aalt' Alle Alternativen zeigen 1" uniE063
Substitution2: "'smcp' Gemeine nach Kapitaelchen 1" s.sc
EndChar
StartChar: t
Encoding: 116 116 300
Width: 316
VWidth: 999
Flags: W
HStem: -10 55<143 248.154> 380 49<27.8201 89 168 288.919>
VStem: 89 79<48.4221 380 429 559.499>
AnchorPoint: "mittelpunkt" 127 215 basechar 0
AnchorPoint: "top_rechts" 279 580 basechar 0
AnchorPoint: "unten_anhang" 165 -3 basechar 0
AnchorPoint: "ogonek" 237 15 basechar 0
AnchorPoint: "unten_punkt" 163 -110 basechar 0
LayerCount: 2
Fore
SplineSet
168 380 m 1
 168 137 l 2
 168 75 174 45 201 45 c 3
 227 45 257 53 283 73 c 1
 292.5 69.75 297 63.333 299 53 c 1
 260 9 212 -10 166 -10 c 3
 120 -10 89 18 89 89 c 2
 89 380 l 1
 22 380 l 17
 19.5098 381.796 18 384 18 388 c 1
 23 400 38.167 427 44 429 c 9
 89 429 l 1
 89 540 85.957 533.41 85.957 545 c 3
 85.957 551.944 96.0251 555.304 108 558.662 c 0
 120.5 562.167 130.667 566.5 142 572.783 c 0
 151.257 577.914 159.781 581.834 164.301 581.834 c 3
 169.001 581.834 172 579.435 172 573 c 9
 172 573 168 533 168 468 c 2
 168 429 l 1
 293 429 l 1
 299 420 294 386 283 380 c 9
 168 380 l 1
EndSplineSet
Substitution2: "'sinf' Wissenschaftliche Indices 1" uniE15B
Substitution2: "'sups' Hochgestellte 1" t.superior
AlternateSubs2: "'aalt' Alle Alternativen zeigen 1" uniE064
Substitution2: "'smcp' Gemeine nach Kapitaelchen 1" t.sc
EndChar
StartChar: u
Encoding: 117 117 301
Width: 531
VWidth: 999
Flags: MW
HStem: -10 47<193.895 293.898> 398 33<22.625 74.0917 297.625 349.478>
VStem: 88 79<63.8821 388.068> 363 79<80.6055 388.455>
AnchorPoint: "mittelpunkt" 252 215 basechar 0
AnchorPoint: "unten_anhang" 213 0 basechar 0
AnchorPoint: "ogonek" 293 7 basechar 0
AnchorPoint: "unten_punkt" 239 -110 basechar 0
AnchorPoint: "top_akzent" 255 645 basechar 0
LayerCount: 2
Back
SplineSet
176 358 m 0
 237 426 285 439 334 439 c 3
 369 439 400 427 417 405 c 0
 440 374 444 326 444 271 c 2
 444 122 l 2
 444 40 455 36 511 31 c 1
 516 25 516 4 511 -2 c 1
 468 -1 446 0 405 0 c 0
 365 0 345 -1 303 -2 c 1
 298 4 298 25 303 31 c 1
 355 36 365 40 365 122 c 2
 365 274 l 2
 365 304 363 331 353 351 c 0
 341 374 320 387 300 387 c 3
 261 387 222 365 184 328 c 1
 176 319 167 307 167 286 c 2
 167 122 l 2
 167 40 176 36 227 31 c 1
 233 25 233 4 227 -2 c 1
 185 -1 167 0 128 0 c 0
 85 0 59 -1 18 -2 c 1
 12 4 12 25 18 31 c 1
 78 36 88 40 88 122 c 2
 88 317 l 2
 88 375 77 380 23 385 c 1
 21 391 19 407 21 413 c 1
 90 422 131 431 159 442 c 1
 167 442 171 439 171 434 c 1
 171 434 166 388 166 358 c 3
 166 344 173 354 176 358 c 0
EndSplineSet
Fore
SplineSet
217 -10 m 3
 118 -10 88 57 88 126 c 2
 88 318 l 2
 88 383 74 394 26 398 c 1
 20 404 20 425 26 431 c 1
 60 430 96 429 128 429 c 3
 143 429 158 430 163 431 c 1
 168 431 171 428 171 425 c 1
 171 425 167 352 167 322 c 2
 167 140 l 2
 167 51 217 37 247 37 c 3
 272 37 310 53 347 85 c 0
 361 97 363 105 363 124 c 2
 363 317 l 2
 363 383 350 395 301 398 c 1
 295 404 295 425 301 431 c 1
 335 430 371 429 403 429 c 3
 418 429 433 430 438 431 c 1
 443 431 446 428 446 425 c 1
 446 425 442 352 442 322 c 2
 442 130 l 2
 442 81 451 62 515 57 c 1
 521 51 521 36 515 30 c 1
 454 23 419 8 397 -10 c 1
 390.5 -12.5 386 -13 378 -10 c 1
 378 -10 369.5 23.5 367 49 c 0
 366.317 55.9666 357 54 352 50 c 0
 303 10 256 -10 217 -10 c 3
EndSplineSet
Substitution2: "'sinf' Wissenschaftliche Indices 1" uniE15C
Substitution2: "'sups' Hochgestellte 1" u.superior
Substitution2: "'smcp' Gemeine nach Kapitaelchen 1" u.sc
AlternateSubs2: "'aalt' Alle Alternativen zeigen 1" uniE065
EndChar
StartChar: v
Encoding: 118 118 302
Width: 497
VWidth: 999
Flags: W
HStem: -12 21G<237.5 249> 398 33<7.625 59.1271 163.467 208.375 321.625 372.412 437.547 490.375>
DStem2: 173.862 331 91.4319 325 0.374344 -0.92729<-54.3387 229.149> 283 135 268 11 0.392114 0.919917<-25.383 263.103>
AnchorPoint: "mittelpunkt" 247 267 basechar 0
AnchorPoint: "top_rechts" 460 580 basechar 0
AnchorPoint: "top_akzent" 256 646 basechar 0
AnchorPoint: "unten_punkt" 241 -110 basechar 0
LayerCount: 2
Back
SplineSet
215 -34 m 4
 225 -6 209.663 39.8555 201 60 c 6
 87.9014 323 l 6
 60.5225 386.665 52.5693 394.039 9 398 c 5
 6 401 4.5 407.75 4.5 414.5 c 4
 4.5 421.25 6 428 9 431 c 5
 29 430 56 429 90 429 c 7
 126 429 166 430 203 431 c 5
 206 428 207.5 421.25 207.5 414.5 c 4
 207.5 407.75 206 401 203 398 c 5
 141.693 393.223 152.24 375.198 170.233 333 c 6
 258.914 125 l 6
 267.374 105.159 275.865 107.925 282.827 124 c 6
 382 353 l 6
 398 389 365.583 394.992 334 398 c 5
 331 401 329.5 407.75 329.5 414.5 c 4
 329.5 421.25 331 428 334 431 c 5
 371 430 390 429 425 429 c 7
 453 429 466 430 491 431 c 5
 494 428 495.5 421.25 495.5 414.5 c 4
 495.5 407.75 494 401 491 398 c 5
 454 395 429 363 415 334 c 4
 362 222 318 119 238 -74 c 1028
EndSplineSet
Fore
SplineSet
325 398 m 5
 319 404 319 425 325 431 c 5
 350 430 384 429 417 429 c 7
 443 429 467 430 487 431 c 5
 493 425 493 404 487 398 c 5
 431 393 420.145 367.938 401.416 324 c 6
 268 11 l 2
 260.945 -5.55047 254 -12 244 -12 c 3
 231 -12 225 -6 219 9 c 2
 91.4319 325 l 2
 71.0055 375.599 64 391.667 11 398 c 1
 5 404 5 425 11 431 c 1
 41 430 71 429 104 429 c 3
 137 429 172 430 205 431 c 1
 211 425 211 404 205 398 c 1
 151.667 391 156 379 173.862 331 c 2
 246 138 l 2
 261.613 96.229 266.752 95.5137 283 135 c 2
 363.653 331 l 6
 384.547 381.775 379 394 325 398 c 5
EndSplineSet
Position2: "'rtbd' Rechte R+AOQA-nder lookup 4-1" dx=0 dy=0 dh=-28 dv=0
Substitution2: "'sinf' Wissenschaftliche Indices 1" uniE15D
Substitution2: "'sups' Hochgestellte 1" v.superior
Substitution2: "'smcp' Gemeine nach Kapitaelchen 1" v.sc
AlternateSubs2: "'aalt' Alle Alternativen zeigen 1" uniE066
EndChar
StartChar: w
Encoding: 119 119 303
Width: 747
VWidth: 999
Flags: W
HStem: -12 21G<240 249.5 492 501.5> 398 33<7.625 60.3044 163.256 206.375 264.625 309.39 410.126 459.375 557.625 615.629 686.093 738.375>
DStem2: 172.943 331 90.1069 331 0.375575 -0.926792<-54.4949 231.996> 419.485 337 344.6 320 0.380571 -0.924752<-49.5622 4.45341 56.0723 237.628> 351 304 370 256 0.379804 0.925067<-204.014 -37.1869> 611.568 330 650.55 326 0.380801 0.924657<-233.669 49.0905>
AnchorPoint: "top_rechts" 719 580 basechar 0
AnchorPoint: "top_akzent" 345 646 basechar 0
AnchorPoint: "unten_punkt" 352 -110 basechar 0
LayerCount: 2
Back
SplineSet
575 398 m 1
 569 404 569 425 575 431 c 1
 612 430 634 429 671 429 c 3
 697 429 715 430 737 431 c 1
 743 425 743 404 737 398 c 1
 681 393 670.145 367.938 651.416 324 c 2
 518 11 l 2
 510.945 -5.55078 504 -12 494 -12 c 3
 481 -12 475 -6 469 9 c 2
 341.432 325 l 2
 321.006 375.599 318.521 391.233 261 398 c 1
 255 404 255 425 261 431 c 1
 298 430 314 429 349 429 c 11
 390 429 418 430 455 431 c 1
 461 425 461 404 455 398 c 1
 392.846 392.595 406 379 423.862 331 c 2
 496 138 l 2
 511.612 96.2295 516.752 95.5137 533 135 c 2
 613.653 331 l 2
 634.547 381.775 629 394 575 398 c 1
325 398 m 1
 319 404 319 425 325 431 c 1
 362 430 384 429 421 429 c 3
 447 429 465 430 487 431 c 1
 493 425 493 404 487 398 c 1
 431 393 420.145 367.938 401.416 324 c 2
 268 11 l 2
 260.945 -5.55047 254 -12 244 -12 c 3
 231 -12 225 -6 219 9 c 2
 91.4319 325 l 2
 71.0055 375.599 68.5201 391.233 11 398 c 1
 5 404 5 425 11 431 c 1
 48 430 64 429 99 429 c 11
 140 429 168 430 205 431 c 1
 211 425 211 404 205 398 c 1
 142.846 392.595 156 379 173.862 331 c 2
 246 138 l 2
 261.613 96.229 266.752 95.5137 283 135 c 2
 363.653 331 l 2
 384.547 381.775 379 394 325 398 c 1
EndSplineSet
Fore
SplineSet
203 398 m 5
 155 395 154 379 172.943 331 c 6
 252.875 125 l 6
 265.793 92.5195 268 94 281.032 127 c 6
 351 304 l 5
 344.6 320 l 6
 326.692 364.769 315 393.5 268 398 c 5
 262 404 262 425 268 431 c 5
 298 430 331 429 356 429 c 7
 386 429 426 430 456 431 c 5
 462 425 462 404 456 398 c 5
 403 394 400.974 383.99 419.485 337 c 6
 505.758 118 l 6
 513.95 97.2046 518 97 528.046 122 c 6
 611.568 330 l 6
 625.681 365.147 636 394 561 398 c 5
 555 404 555 425 561 431 c 5
 591 430 633 429 663 429 c 7
 693 429 715 430 735 431 c 5
 741 425 741 404 735 398 c 5
 684 395 666.991 366.859 650.55 326 c 6
 520 9 l 6
 514 -6 506 -12 497 -12 c 7
 487 -12 479 -6 473 8 c 6
 370 256 l 5
 269 10 l 6
 262 -6 254 -12 245 -12 c 7
 235 -12 227 -6 221 8 c 6
 90.1069 331 l 6
 69 383 58.1094 393.209 11 398 c 5
 5 404 5 425 11 431 c 5
 37.17 430 64 429 102 429 c 7
 138 429 173 430.031 203 431 c 5
 209 425 209 404 203 398 c 5
EndSplineSet
Substitution2: "'sinf' Wissenschaftliche Indices 1" uniE15E
Substitution2: "'sups' Hochgestellte 1" w.superior
Substitution2: "'smcp' Gemeine nach Kapitaelchen 1" w.sc
AlternateSubs2: "'aalt' Alle Alternativen zeigen 1" uniE067
EndChar
StartChar: x
Encoding: 120 120 2052
Width: 490
VWidth: 999
Flags: W
HStem: -2 33<17.625 79.1449 144.233 180.375 277.625 312.433 410.436 472.375> 398 33<20.625 71.25 170.945 214.375 299.625 338.259 403.186 463.375>
DStem2: 182 358 114 337 0.578017 -0.816024<-28.9235 118.449 182.523 333.74> 327 357 363 343 0.617497 0.786573<-118.769 30.0463>
AnchorPoint: "mittelpunkt" 237 215 basechar 0
AnchorPoint: "top_rechts" 469 580 basechar 0
AnchorPoint: "unten_anhang" 94 8 basechar 0
AnchorPoint: "top_akzent" 256 646 basechar 0
AnchorPoint: "unten_punkt" 224 -110 basechar 0
LayerCount: 2
Back
SplineSet
-84.4727 0.976562 m 1025,117,-1
EndSplineSet
Fore
SplineSet
182 358 m 6
 243 268 l 6
 250.562 256.844 254.838 255.973 262 266 c 6
 327 357 l 6
 351.189 390.865 339.667 394 303 398 c 5
 297 404 297 425 303 431 c 5
 329 430 357 429 387 429 c 7
 417 429 440 430 460 431 c 5
 466 425 466 404 460 398 c 5
 423.5 395 400 390 363 343 c 6
 279 236 l 6
 274.306 230.021 274.786 226.946 279 221 c 6
 369 94 l 6
 409.314 37.1123 423.667 34 469 31 c 5
 475 25 475 4 469 -2 c 5
 445 -1 418 0 380 0 c 7
 344 0 311 -1 281 -2 c 5
 275 4 275 25 281 31 c 5
 312.667 34.3333 328.754 36.0634 294 84 c 6
 236 164 l 6
 229.743 172.63 226.256 173.925 218 162 c 6
 155 71 l 6
 132.476 38.4653 141 34.6667 177 31 c 5
 183 25 183 4 177 -2 c 5
 151 -1 123 0 93 0 c 7
 63 0 41 -1 21 -2 c 5
 15 4 15 25 21 31 c 5
 56 33 78.4231 36.1154 118 87 c 6
 202 195 l 6
 205.608 199.638 205.918 202.821 201 210 c 6
 114 337 l 6
 86 378 58 395 24 398 c 5
 18 404 18 425 24 431 c 5
 50 430 80 429 110 429 c 7
 140 429 184 430 211 431 c 5
 217 425 217 404 211 398 c 5
 166.333 393.333 159.069 391.832 182 358 c 6
EndSplineSet
Substitution2: "'sups' Hochgestellte 1" x.superior
AlternateSubs2: "'aalt' Alle Alternativen zeigen 1" uniE068
Substitution2: "'sinf' Wissenschaftliche Indices 1" x.inferior
Substitution2: "'smcp' Gemeine nach Kapitaelchen 1" x.sc
EndChar
StartChar: y
Encoding: 121 121 305
Width: 515
VWidth: 999
Flags: W
HStem: -232 80<67.752 163.025> 398 33<12.625 60.4822 166.624 213.375 337.625 389.171 454.526 506.375>
DStem2: 177.233 333 94.9014 323 0.395053 -0.918658<-53.1996 236.484> 222 -34 245 -74 0.397404 0.917644<-98.3122 43.0767 162.026 449.353>
AnchorPoint: "top_akzent" 262 645 basechar 0
AnchorPoint: "unten_punkt" 242 -319 basechar 0
LayerCount: 2
Back
SplineSet
487.305 401.855 m 8
 418.457 401.855 344.727 401.855 310.547 401.855 c 0
 304.688 401.855 300.781 405.273 300.781 409.18 c 2
 300.781 428.711 l 1
 303.711 430.664 l 1
 303.711 430.664 347.168 428.711 377.93 428.711 c 0
 423.828 428.711 496.094 430.664 496.094 430.664 c 1
 498.047 427.734 l 1
 498.047 409.668 l 2
 498.047 404.785 492.188 401.855 487.305 401.855 c 8
442.627 396.484 m 1
 216.901 -127.788 l 1
 180.274 -108.864 l 1
 399.325 399.902 l 1
 442.627 396.484 l 1
269.531 99.1211 m 9
 160.156 356.934 l 2
 156.266 366.104 154.257 373.67 154.257 379.801 c 0
 154.257 395.543 167.607 401.855 197.266 401.855 c 0
 201.66 401.855 208.008 404.785 208.008 409.668 c 2
 208.008 427.734 l 1
 206.055 430.664 l 1
 206.055 430.664 133.687 428.711 87.4023 428.711 c 0
 56.8848 428.711 13.1836 430.664 13.1836 430.664 c 1
 10.7422 428.467 l 1
 10.7422 409.18 l 2
 10.7422 405.273 14.6484 401.855 20.5078 401.855 c 0
 54.6875 401.855 65.6855 391.071 81.376 352.539 c 2
 208 59.5703 l 17
 216.536 39.8223 224.335 13.4277 224.335 3.66016 c 0
 224.335 -5.77148 247.314 50.0488 269.531 99.1211 c 9
104.004 -229.98 m 0
 84.9609 -229.98 45.8984 -219.238 45.8984 -183.105 c 0
 45.8984 -153.32 68.3594 -144.043 84.4727 -144.043 c 0
 98.877 -144.043 108.398 -150.391 115.234 -157.715 c 0
 124.105 -167.22 131.836 -175.293 141.602 -175.293 c 0
 156.738 -175.293 174.805 -229.98 104.004 -229.98 c 0
208.008 409.668 m 6
 208.008 404.785 201.66 401.855 197.266 401.855 c 4
 167.607 401.855 154.257 395.543 154.257 379.801 c 4
 154.257 373.67 156.281 366.109 160.156 356.934 c 6
 270.02 98.6328 l 5
 282.715 128.906 327.637 234.375 381.512 352.543 c 4
 385.908 362.186 387.838 370.031 387.838 376.39 c 4
 387.838 396.746 368.067 401.855 346.191 401.855 c 6
 341.797 401.855 l 6
 336.914 401.855 332.031 405.762 332.031 409.18 c 6
 332.031 427.734 l 5
 333.984 430.664 l 5
 333.984 430.664 393.229 428.711 428.223 428.711 c 4
 456.042 428.711 497.07 430.664 497.07 430.664 c 5
 499.512 428.711 l 5
 499.512 409.668 l 6
 499.512 404.785 496.094 401.855 488.77 401.855 c 4
 451.172 401.855 431.642 362.711 417.969 333.984 c 4
 364.746 222.168 321.289 118.652 240.723 -74.2188 c 4
 211.043 -145.271 174.805 -229.98 104.004 -229.98 c 4
 84.9609 -229.98 45.8984 -219.238 45.8984 -183.105 c 4
 45.8984 -153.32 68.3594 -144.043 84.4727 -144.043 c 4
 98.877 -144.043 108.398 -150.391 115.234 -157.715 c 4
 124.105 -167.22 131.836 -175.293 141.602 -175.293 c 4
 156.738 -175.293 192.566 -88.9434 217.436 -28.3203 c 4
 222.521 -15.9258 224.823 -6.25977 224.823 3.17188 c 4
 224.823 12.9395 216.536 39.8223 208 59.5703 c 6
 81.376 352.539 l 6
 65.6855 391.071 54.6875 401.855 20.5078 401.855 c 4
 14.6484 401.855 10.7422 405.273 10.7422 409.18 c 6
 10.7422 428.467 l 5
 13.1836 430.664 l 5
 13.1836 430.664 56.8848 428.711 87.4023 428.711 c 4
 133.687 428.711 206.055 430.664 206.055 430.664 c 5
 208.008 427.734 l 5
 208.008 409.668 l 6
EndSplineSet
Fore
SplineSet
204 -160 m 0
 168 -224 128 -232 107 -232 c 3
 80 -232 60 -216 60 -195 c 3
 60 -182 75 -152 104 -152 c 3
 115 -152 119 -155 133 -155 c 3
 158 -155 172 -146 183 -126 c 0
 198 -95 210.071 -67.4023 222 -34 c 0
 232 -6 216.663 39.8555 208 60 c 2
 94.9014 323 l 2
 68.652 384.04 55.6667 393 16 398 c 1
 10 404 10 425 16 431 c 1
 36 430 63 429 97 429 c 3
 133 429 173 430 210 431 c 1
 216 425 216 404 210 398 c 1
 154 393.667 159.24 375.198 177.233 333 c 2
 265.914 125 l 2
 274.374 105.159 282.865 107.925 289.827 124 c 2
 389 353 l 2
 405 389 372.583 394.992 341 398 c 1
 335 404 335 425 341 431 c 1
 371 430 402 429 432 429 c 3
 460 429 483 430 503 431 c 1
 509 425 509 404 503 398 c 1
 456 392.333 441.667 376.333 422 334 c 0
 369.795 221.627 325 119 245 -74 c 0
 232.659 -103.618 219.643 -132.191 204 -160 c 0
EndSplineSet
Substitution2: "'sinf' Wissenschaftliche Indices 1" uniE160
Substitution2: "'sups' Hochgestellte 1" y.superior
Substitution2: "'smcp' Gemeine nach Kapitaelchen 1" y.sc
AlternateSubs2: "'aalt' Alle Alternativen zeigen 1" uniE069
EndChar
StartChar: z
Encoding: 122 122 306
Width: 424
VWidth: 999
Flags: HMW
HStem: 0 34<129 318.149> 392 37<120.232 292>
DStem2: 46 32 129 34 0.560999 0.827816<48.2186 438.503>
AnchorPoint: "mittelpunkt" 207 215 basechar 0
AnchorPoint: "top_rechts" 399 580 basechar 0
AnchorPoint: "top_akzent" 220 646 basechar 0
AnchorPoint: "unten_anhang" 208 4 basechar 0
AnchorPoint: "unten_punkt" 207 -110 basechar 0
LayerCount: 2
Fore
SplineSet
70.999 439 m 5
 85.499 433.562 97.8633 429 130 429 c 2
 313 429 l 18
 342 429 370 431 375 431 c 3
 382 431 387 428 387 424 c 3
 387 420 384.338 412.234 369 387 c 0
 307 285 203 128 129 34 c 1
 262 34 l 2
 314.063 35.1748 334.511 57.2012 360 110 c 2
 374 139 l 1
 386 139 397.541 136.694 404 133 c 1
 397 83 384 31 372 -3 c 1
 60 0 l 2
 45 0 37 5 37 12 c 3
 37 17 37.3997 20.4227 46 32 c 0
 124 137 224 281 292 395 c 1
 164 392 l 2
 134.04 391.298 103 374 83 301 c 1
 71.4463 298.361 58.8369 300.276 50 304 c 1
 59 353 64 388 65 433 c 1
 65 435.375 68.5625 439 70.999 439 c 5
EndSplineSet
Substitution2: "'sinf' Wissenschaftliche Indices 1" uniE161
Substitution2: "'sups' Hochgestellte 1" z.superior
Substitution2: "'smcp' Gemeine nach Kapitaelchen 1" z.sc
AlternateSubs2: "'aalt' Alle Alternativen zeigen 1" uniE06A
EndChar
StartChar: braceleft
Encoding: 123 123 307
Width: 277
VWidth: 999
Flags: W
GlyphCompositionVertical: 5  uni23A9%0,0,138,432 uni23AA%1,431,431,432 uni23A8%0,58,58,894 uni23AA%1,431,431,432 uni23A7%0,138,0,432
HStem: -212 24<222.627 261.757> 235 24<8.8886 55.6569> 683 24<229.39 261.757>
VStem: 106 72<406.75 648.357> 112 74<298.375 531.25>
LayerCount: 2
Fore
SplineSet
178 552 m 2xf0
 186 386 l 2
 190.288 297.014 148.25 268.25 81 249 c 1
 81 245 l 1
 148.75 216.75 190.42 177.329 186 95 c 2xe8
 178 -54 l 2
 173.491 -137.973 214 -188 258 -188 c 1
 264 -194 264 -206 258 -212 c 1
 157 -212 101 -179 106 -49 c 2xf0
 112 121 l 2
 114 182 87.5 226 14 235 c 1
 6 243 5 250 14 259 c 1
 88 266 112 320 112 370 c 2xe8
 106 554 l 2
 102 667 168 707 258 707 c 1
 264 701 264 689 258 683 c 1
 220 672 173.041 654.906 178 552 c 2xf0
EndSplineSet
Validated: 3105
Substitution2: "'smcp' Gemeine nach Kapitaelchen 1" braceleft.sc
Substitution2: "'c2sc' Versale nach Kapitaelchen 1" uniF6B2
Substitution2: "'case' Versalformen 1" braceleft.sc
AlternateSubs2: "'aalt' Alle Alternativen zeigen 1" uniF6B2
EndChar
StartChar: bar
Encoding: 124 124 308
Width: 205
VWidth: 999
Flags: W
HStem: -232 21G<81 125> 678 20G<81 125>
VStem: 81 44<-232 698>
LayerCount: 2
Fore
SplineSet
125 -232 m 1
 81 -232 l 1
 81 698 l 1
 125 698 l 1
 125 -232 l 1
EndSplineSet
Validated: 3073
EndChar
StartChar: asciitilde
Encoding: 126 126 310
Width: 449
VWidth: 999
Flags: W
HStem: 213 59<244.806 356.377> 278 59<92.655 206.432>
VStem: 26 17<206.265 218.121> 400 17<323.757 337.543>
LayerCount: 2
Fore
SplineSet
26 209 m 1
 39 274 93 337 154 337 c 3
 177 337 204.469 323.172 229 305 c 0
 256 285 279 272 301 272 c 3
 329 272 378 289 400 339 c 1
 408 339 413.652 337.114 417 333 c 1
 386 226 321 213 297 213 c 3
 274 213 245 228 221 246 c 0
 196.814 264.14 173 278 148 278 c 3
 113 278 66 249 43 205 c 1
 37 205 31.6667 205.996 26 209 c 1
EndSplineSet
Validated: 3073
EndChar
StartChar: cent
Encoding: 162 162 313
Width: 465
VWidth: 999
Flags: W
HStem: -13 21G<232 268> 87.4924 46.5872<219.014 340.649> 483.009 31.3751<211.112 307.782> 591 20G<232 268>
VStem: 69.1781 81.7654<214.171 392.279> 232 36<-13 611> 326.834 82.7161<389.224 468.181>
LayerCount: 2
Fore
SplineSet
232 611 m 1
 268 611 l 1
 268 -13 l 1
 232 -13 l 1
 232 611 l 1
EndSplineSet
Refer: 283 99 N 0.95076 0 0 0.95076 34 97 2
Validated: 35845
Colour: ff9ccc
EndChar
StartChar: sterling
Encoding: 163 163 314
Width: 465
VWidth: 438
Flags: W
HStem: -11 55<262.715 391.06> 49 42<147 203.929> 300 39<68.0718 137 222 354> 563 48<267.815 353.439>
VStem: 16 76<-7.72852 47.1682> 137 85<173.654 300 339 470.008>
LayerCount: 2
Back
SplineSet
358.887 340.332 m 5
 358.887 301.27 l 5
 254.883 301.27 l 1
 254.883 287.109 l 2
 254.883 165.82 201.539 112.391 162.109 84.9609 c 1
 213.77 84.9609 232.863 81.3711 291.26 51.6875 c 0
 312.256 41.0156 319.114 38.0859 343.75 38.0859 c 0
 375.026 38.0859 437.334 44.8672 464.355 78.125 c 1
 471.191 71.7773 l 1
 451.653 23.3984 402.954 -12.207 324.707 -12.207 c 0
 297.363 -12.207 262.695 -3.90625 225.586 17.0898 c 0
 185.547 39.5508 148.926 46.3867 137.207 46.3867 c 0
 100.734 46.3867 90.332 30.2734 90.332 19.5312 c 0
 90.332 -5.85938 65.4297 -17.0898 46.875 -17.0898 c 0
 32.2266 -17.0898 17.5781 -4.88281 17.5781 6.83594 c 0
 17.5781 33.3984 50.1084 56.416 100.586 73.2422 c 1
 149.414 121.582 182.617 200.195 182.617 266.113 c 2
 182.617 301.27 l 1
 90.332 301.27 l 5
 90.332 340.332 l 5
 182.617 340.332 l 1
 182.617 383.789 183.594 464.844 262.207 523.438 c 0
 299.948 551.567 341.797 574.707 397.949 574.707 c 0
 422.852 574.707 482.422 564.453 482.422 530.762 c 0
 482.422 506.836 463.867 493.164 438.477 493.164 c 0
 423.733 493.164 412.661 501.65 400.879 511.055 c 0
 387.207 521.973 372.164 533.203 348.633 533.203 c 0
 300.013 533.203 254.883 469.616 254.883 388.184 c 2
 254.883 340.332 l 1
 358.887 340.332 l 5
EndSplineSet
Fore
SplineSet
74 300 m 2
 69 300 68 302 68 307 c 2
 68 318 l 2
 68 326 74 339 92 339 c 2
 137 339 l 1
 137 359 l 2
 137 444 164 498 219 552 c 0
 254 588 299 611 352 611 c 3
 375 611 432 598 432 562 c 3
 432 537 415 521 391 521 c 3
 376 521 367 529 355 540 c 0
 342 552 327 563 305 563 c 3
 259 563 222 497 222 410 c 2
 222 339 l 1
 346 339 l 2
 351 339 354 337 354 333 c 2
 354 313 l 2
 354 305 341 300 330 300 c 2
 222 300 l 1
 221 181 181 123 147 91 c 1
 271 91 260 44 329 44 c 3
 359 44 406 52 432 88 c 1
 440 87 446 84 450 77 c 1
 426 25 376 -11 311 -11 c 3
 221 -11 220 49 132 49 c 3
 97 49 92 35 92 24 c 3
 92 1 74 -11 52 -11 c 3
 33 -11 16 1 16 17 c 3
 16 36 40 52 67 67 c 1
 126 110 137 190 137 281 c 2
 137 300 l 1
 74 300 l 2
EndSplineSet
Validated: 3073
EndChar
StartChar: currency
Encoding: 164 164 315
Width: 465
VWidth: 487
Flags: W
HStem: 119 45<163.124 297.717> 445 44<165.616 297.317>
VStem: 44 64<222.695 384.797> 354 64<223.669 383.946>
LayerCount: 2
Fore
SplineSet
231 119 m 0
 189 119 151 132 117 157 c 1
 72 101 l 1
 29 144 l 1
 86 189 l 1
 59 222 44 261 44 304 c 0
 44 349 59 388 86 420 c 1
 31 464 l 1
 70 506 l 1
 118 452 l 1
 153 477 190 489 231 489 c 0
 274 489 312 476 346 450 c 1
 395 508 l 1
 436 465 l 1
 378 418 l 1
 404 386 418 348 418 304 c 0
 418 262 404 224 379 191 c 1
 434 145 l 1
 396 105 l 1
 348 158 l 1
 313 132 274 119 231 119 c 0
108 305 m 0
 108 228 156 164 231 164 c 0
 305 164 354 229 354 304 c 0
 354 383 298 445 233 445 c 0
 159 445 108 380 108 305 c 0
EndSplineSet
Validated: 3073
EndChar
StartChar: yen
Encoding: 165 165 316
Width: 465
VWidth: 999
Flags: W
HStem: -2 33<85.625 171.875 295.125 381.375> 134 39<44.1127 191 276 423> 245 39<44.0718 187 286 423> 569 33<-3.375 43.7517 142.371 182.375 316.625 358.214 413.5 467.688>
VStem: 191 85<45.9722 134 173 245>
DStem2: 149 531 80 503 0.437376 -0.899279<-30.4923 238.742> 258 311 286 284 0.412789 0.910827<0 267.508>
LayerCount: 2
Back
SplineSet
46.875 610.125 m 25
 395.168 610.125 l 1049
0 600.012 m 1
 486.965 600.012 l 1
 486.965 0 l 1
 0 0 l 1
 0 600.012 l 1
EndSplineSet
Fore
SplineSet
191 127 m 2
 191 134 l 1
 50 134 l 2
 45 134 44 136 44 141 c 2
 44 154 l 2
 44 162 50 173 68 173 c 2
 191 173 l 1
 191 245 l 1
 50 245 l 2
 45 245 44 246 44 251 c 2
 44 263 l 2
 44 271 50 284 68 284 c 2
 187 284 l 1
 80 503 l 2
 62 541 41 565 0 569 c 1
 -6 575 -6 596 0 602 c 1
 32 601 76 600 90 600 c 3
 96 600 147 601 179 602 c 1
 185 596 185 575 179 569 c 1
 143 569 132 566 149 531 c 2
 256 311 l 1
 258 311 l 1
 335 487 l 2
 367 560 370 565 320 569 c 1
 314 575 314 596 320 602 c 1
 352 601 382 600 399 600 c 3
 416 600 434 601 466 602 c 1
 472 596 470 575 464 569 c 1
 411 564 411 560 378 487 c 2
 286 284 l 1
 415 284 l 2
 419 284 423 282 423 278 c 2
 423 259 l 2
 423 249 409 245 398 245 c 2
 276 245 l 1
 276 173 l 1
 415 173 l 2
 419 173 423 171 423 167 c 2
 423 148 l 2
 423 138 409 134 398 134 c 2
 276 134 l 1
 276 127 l 2
 276 39 293 34 378 31 c 1
 384 25 384 4 378 -2 c 1
 325 -1 290.775 0 235 0 c 27
 178.055 0 141 -1 89 -2 c 1
 83 4 83 25 89 31 c 1
 174 34 191 39 191 127 c 2
EndSplineSet
Validated: 3105
Substitution2: "'pnum' Proportionalziffern 1" uniE01B
EndChar
StartChar: brokenbar
Encoding: 166 166 317
Width: 211
VWidth: 999
Flags: W
VStem: 81 49<-201 161 312 674>
LayerCount: 2
Fore
SplineSet
130 161 m 1
 130 -201 l 1
 81 -201 l 1
 81 161 l 1
 130 161 l 1
130 674 m 1
 130 312 l 1
 81 312 l 1
 81 674 l 1
 130 674 l 1
EndSplineSet
Validated: 3073
EndChar
StartChar: section
Encoding: 167 167 318
Width: 473
VWidth: 999
Flags: W
HStem: -172 31<201.946 290.26> 627 31<182.74 271.054>
VStem: 50 54<239.454 352.809> 80 69<481.63 594.55> 98 77<-121.75 -38.1628> 298 77<524.163 607.75> 324 69<-108.55 4.37031> 369 54<132.343 246.546>
LayerCount: 2
Back
SplineSet
408 -28 m 0xf1
 408 -112 330 -174 233 -174 c 0
 160 -174 81 -116 81 -43 c 0
 81 -21 100 -5 117 -5 c 0
 152 -5 159 -36 159 -45 c 0xe5
 159 -67 156 -73 156 -85 c 0
 156 -101 183 -144 241 -144 c 0
 286 -144 334 -114 334 -55 c 0
 334 -38.802 332.47 -18.1621 321 0 c 0
 292.629 44.9251 251.509 50.9125 176.754 96 c 0
 83.4779 152.258 49 203.159 49 276 c 0
 49 333 86.5 378.5 127 401 c 1
 146 388 l 1
 120 372.5 103 344 103 314 c 0
 103 247 160 186 226 155 c 0
 370.769 87.4414 408 47.8503 408 -28 c 0xf1
949.302 -77.8828 m 2
 949.302 -90.5576 963.171 -130.706 1028.76 -130.706 c 0
 1099.86 -130.706 1120.2 -86.0059 1120.2 -48.5859 c 0
 1120.2 29.1553 1048.86 68.5029 942.199 118.762 c 0
 887.749 144.211 860.523 184.31 860.523 239.057 c 0
 860.523 323.476 910.684 382.544 996.354 393.086 c 1
 1010.11 366.01 l 1
 1007.45 366.01 l 2
 978.246 366.01 923.111 343.4 923.111 271.461 c 0
 923.111 231.214 948.414 201.029 999.017 180.906 c 0
 1053.7 159.334 1136.5 112.486 1162.81 70.377 c 0
 1178.2 46.1113 1185.9 19.1816 1185.9 -10.4111 c 0
 1185.9 -136.939 1090.84 -164.395 1036.3 -164.886 c 2
 1034.97 -164.886 l 2
 967.567 -164.886 889.376 -130.508 889.376 -50.3613 c 0
 889.376 -28.2109 906.452 -9.96777 928.438 -9.96777 c 0
 961.519 -9.96777 964.837 -42.1572 964.837 -47.2539 c 0
 964.837 -53.291 962.616 -63.0127 949.302 -77.4395 c 1
 949.302 -77.8828 l 2
EndSplineSet
Fore
SplineSet
152 401 m 1xe2
 123 376 104 352 104 315 c 3xe2
 104 223 179 183 251 141 c 0
 367 74 393 28 393 -40 c 3
 393 -106 340 -172 237 -172 c 3
 140 -172 98 -110 98 -71 c 3
 98 -50 107 -33 134 -33 c 3
 160 -33 170 -55 175 -74 c 0xca
 185 -112 200 -141 243 -141 c 3
 290 -141 324 -106 324 -60 c 3
 324 -13 298 24 233 59 c 0
 156 100 50 144 50 267 c 3
 50 332 81 380 126 416 c 1
 152 401 l 1xe2
321 85 m 1
 348 107 369 137 369 171 c 3xd1
 369 263 294 303 222 345 c 0
 106 412 80 458 80 526 c 3
 80 592 133 658 236 658 c 3
 333 658 375 596 375 557 c 3
 375 536 366 519 339 519 c 3
 313 519 303 541 298 560 c 0xd4
 288 598 273 627 230 627 c 3
 183 627 149 592 149 546 c 3
 149 499 175 462 240 427 c 0
 317 386 423 342 423 219 c 3xd1
 423 152 392 106 347 70 c 1
 321 85 l 1
EndSplineSet
Validated: 3077
EndChar
StartChar: dieresis
Encoding: 168 168 319
Width: 379
VWidth: 999
Flags: W
HStem: 528 95<58.0156 135.984 227.016 304.984>
VStem: 50 94<535.394 615.312> 219 94<535.394 615.312>
LayerCount: 2
Back
SplineSet
-91 623 m 5
 528 623 l 5
 528 527 l 5
 -91 527 l 5
 -91 623 l 5
EndSplineSet
Fore
SplineSet
219 575 m 3
 219 601 240 623 266 623 c 3
 292 623 313 601 313 575 c 3
 313 549 292 528 266 528 c 3
 240 528 219 549 219 575 c 3
50 575 m 3
 50 601 71 623 97 623 c 3
 123 623 144 601 144 575 c 3
 144 549 123 528 97 528 c 3
 71 528 50 549 50 575 c 3
EndSplineSet
Validated: 3073
Substitution2: "Substitution cap-Accents 1" dieresis.cap
Substitution2: "'case' Versalformen 1" dieresis.cap
EndChar
StartChar: copyright
Encoding: 169 169 320
Width: 642
VWidth: 999
Flags: HMW
HStem: 23 32<235.426 405.988> 152 29<279.64 381.262> 434 23<275.918 369.842> 556 32<235.611 406.189>
VStem: 34 40<208.888 403.383> 165 62<225.318 377.562> 568 40<208.477 403.383>
LayerCount: 2
Fore
SplineSet
439 216 m 5
 419 185 376 152 321 152 c 7
 282.262 152 245.692 164.865 219 187 c 4
 184.368 215.72 165 259.386 165 304 c 7
 165 342.179 176.961 378.589 201 405.5 c 4
 229.851 437.798 274.997 457 323 457 c 7
 393 457 410 444 430 442 c 5
 432 405 431 383 430 359 c 5
 425 356 418 355 410 355 c 5
 393 401 376 434 319 434 c 7
 279 434 232 409 232 311 c 7
 232 238 273.98 181 330 181 c 7
 381 181 409 215 420 231 c 5
 429.783 228.28 434.382 222.134 439 216 c 5
EndSplineSet
Refer: 2280 57600 S 1 0 0 1 0 0 3
Colour: ff9ccc
EndChar
StartChar: ordfeminine
Encoding: 170 170 321
Width: 307
VWidth: 999
Flags: W
HStem: 358 32<90.5478 163.264 222.5 273.61> 612 25<92.3236 172.622>
VStem: 31 52<394.272 469.139 540.458 599.345> 192 54<405.896 502 529 600.379>
LayerCount: 2
Back
SplineSet
0 738.77 m 29
 307.129 738.77 l 1053
0.488281 636.719 m 29
 307.617 636.719 l 1053
0.488281 630.859 m 29
 307.617 630.859 l 1053
0.488281 687.988 m 29
 307.617 687.988 l 29
 307.617 358.398 l 29
 0.488281 358.398 l 29
 0.488281 687.988 l 29
0.488281 682.129 m 29
 307.617 682.129 l 29
 307.617 364.258 l 29
 0.488281 364.258 l 29
 0.488281 682.129 l 29
0.488281 687.988 m 25
 307.617 687.988 l 25
 307.617 358.398 l 25
 0.488281 358.398 l 25
 0.488281 687.988 l 25
0.488281 682.129 m 25
 307.617 682.129 l 25
 307.617 364.258 l 25
 0.488281 364.258 l 25
 0.488281 682.129 l 25
EndSplineSet
Fore
SplineSet
235 358 m 3
 210 358 196 379 193 397 c 1
 159 367 141 358 108 358 c 3
 66 358 31 385 31 428 c 3
 31 470 71 498 134 514 c 2
 192 529 l 1
 192 604 161 612 138 612 c 3
 105 612 84 601 84 585 c 3
 84 578 85 574 86 572 c 0
 87 570 88 565 88 560 c 3
 88 552 81 539 62 539 c 3
 47 539 36 549 36 564 c 3
 36 604 98 637 140 637 c 3
 189 637 246 617 246 523 c 2
 246 448 l 2
 246 407 251 391 260 391 c 3
 264 391 269 393 272 396 c 1
 279.314 393.316 282.647 387.983 282 380 c 1
 273 370 254 358 235 358 c 3
192 502 m 1
 107 480 83 462 83 431 c 3
 83 410 94 390 128 390 c 3
 149 390 166 400 192 423 c 1
 192 502 l 1
EndSplineSet
Validated: 3073
EndChar
StartChar: guillemotleft
Encoding: 171 171 322
Width: 543
VWidth: 999
Flags: W
LayerCount: 2
Fore
SplineSet
336 215 m 1
 373.5 172.5 411 124 463 45 c 1
 460.5 35 449.5 27.25 439 26 c 1
 359.5 111.5 309.5 160 254 209 c 1
 254 221 l 1
 309.5 270 359.5 318.5 439 404 c 1
 449.5 402.75 460.5 395 463 385 c 1
 411 306 373.5 257.5 336 215 c 1
156 215 m 1
 193.5 172.5 231 124 283 45 c 1
 280.5 35 269.5 27.25 259 26 c 1
 179.5 111.5 129.5 160 74 209 c 1
 74 221 l 1
 129.5 270 179.5 318.5 259 404 c 1
 269.5 402.75 280.5 395 283 385 c 1
 231 306 193.5 257.5 156 215 c 1
EndSplineSet
Validated: 3073
Substitution2: "'smcp' Gemeine nach Kapitaelchen 1" guillemotleft.sc
Substitution2: "'c2sc' Versale nach Kapitaelchen 1" uniF6B6
AlternateSubs2: "'aalt' Alle Alternativen zeigen 1" uniF6B6
Substitution2: "'case' Versalformen 1" guillemotleft.sc
EndChar
StartChar: logicalnot
Encoding: 172 172 323
Width: 599
VWidth: 487
Flags: W
HStem: 323 44<38.2062 499>
VStem: 499 54<96.8023 323>
LayerCount: 2
Fore
SplineSet
499 99 m 1
 499 323 l 1
 40 323 l 1
 36.3191 335.817 33.2941 348.963 40 367 c 1
 553 367 l 1
 553 99 l 1
 536.361 92.6312 518 90 499 99 c 1
EndSplineSet
Validated: 3105
EndChar
StartChar: registered
Encoding: 174 174 325
Width: 642
VWidth: 999
Flags: W
HStem: 23 32<235.426 405.988> 167 24<196.354 232.584 292.416 328.646 432.562 467.374> 288 24<286 322.795> 421 24<196.354 232.584 295.373 360.615> 556 32<235.611 406.189>
VStem: 34 40<208.888 403.383> 239 47<193.9 288 312 417.515> 376 54<317.396 414.706> 568 40<208.477 403.383>
LayerCount: 2
Fore
SplineSet
263 443 m 3
 279 443 315 445 335 445 c 3
 410 445 430 400 430 370 c 3
 430 331 404 306 373 296 c 1
 421 214 l 2
 432.016 195.18 448 187 464 190 c 1
 468 186 469 179 468 173 c 1
 456 168 444 166 432 166 c 3
 412 166 388 175 371 204 c 2
 323 284 l 1
 319 287 291 288 286 288 c 1
 286 232 l 6
 286 200 294 194 326 191 c 5
 330 187 330 171 326 167 c 5
 308 168 279 169 263 169 c 7
 247 169 217 168 199 167 c 5
 195 171 195 187 199 191 c 5
 231 194 239 200 239 232 c 6
 239 380 l 2
 239 412 231 418 199 421 c 1
 195 425 195 441 199 445 c 1
 217 444 247 443 263 443 c 3
376 370 m 3
 376 404 360 421 326 421 c 3
 301 421 286 405 286 387 c 2
 286 312 l 1
 328 312 l 2
 358 312 376 323.957 376 370 c 3
EndSplineSet
Refer: 2280 57600 N 1 0 0 1 0 0 3
Colour: ff9ccc
EndChar
StartChar: macron
Encoding: 175 175 326
Width: 397
VWidth: 999
Flags: W
HStem: 529 44<60.002 337.515>
VStem: 59 280<529.205 573>
LayerCount: 2
Fore
SplineSet
315 529 m 2
 71 529 l 2
 62 529 59 537 59 544 c 0
 59 556 69 573 81 573 c 2
 325 573 l 2
 335 573 339 565 339 559 c 0
 339 547 328 529 315 529 c 2
EndSplineSet
Validated: 3073
EndChar
StartChar: degree
Encoding: 176 176 327
Width: 267
VWidth: 999
Flags: W
HStem: 409 30<92.5357 174.982> 580 30<92.944 174.612>
VStem: 34 34<461.515 557.37> 199 34<461.708 557.452>
LayerCount: 2
Fore
SplineSet
34 509 m 3
 34 565 79 610 134 610 c 3
 189 610 233 565 233 509 c 3
 233 454 189 409 134 409 c 3
 79 409 34 454 34 509 c 3
199 508 m 3
 199 541 179 580 134 580 c 3
 91 580 68 544 68 508 c 3
 68 473 92 439 134 439 c 3
 175 439 199 474 199 508 c 3
EndSplineSet
Validated: 3073
EndChar
StartChar: plusminus
Encoding: 177 177 328
Width: 550
VWidth: 999
Flags: W
HStem: 37 50<62.4893 486.691> 311 50<62.4893 250 300 486.691> 527 20<278 287>
VStem: 250 50<128.489 311 361 543.691>
LayerCount: 2
Back
SplineSet
-58.1055 256.836 m 29
 565.43 256.836 l 1053
0 572.012 m 5
 527.344 572.012 l 5
 527.344 0 l 5
 0 0 l 5
 0 572.012 l 5
EndSplineSet
Fore
Refer: 8 43 N 1 0 0 1 0 85 2
Refer: 1204 8722 N 1 0 0 1 0 -189 2
Validated: 32769
Colour: ff00ff
EndChar
StartChar: two.superior
Encoding: 178 178 329
Width: 307
VWidth: 487
Flags: HW
HStem: 364 32<105 211.579> 658 30<114.414 182.986>
VStem: 53 53<584.498 633.607> 193 62<555.116 654.193> 237 24<432.876 461.331>
LayerCount: 2
Back
SplineSet
0.488281 687.988 m 29
 307.617 687.988 l 29
 307.617 358.398 l 29
 0.488281 358.398 l 29
 0.488281 687.988 l 29
0.488281 682.129 m 29
 307.617 682.129 l 29
 307.617 364.258 l 29
 0.488281 364.258 l 29
 0.488281 682.129 l 29
EndSplineSet
Fore
SplineSet
79 584 m 3xf0
 67 584 53 595 53 608 c 3
 53 634 84 688 158 688 c 3
 213.009090158 688 255 668.008789062 255 611 c 3xf0
 255 569.98828125 231 546 173 503 c 0
 115 460 110 437 105 396 c 1
 179 396 l 2
 220 396 229 420 245 463 c 1
 253 465 263.668945312 461.680664062 269 458 c 1xe8
 264.743164062 422.326171875 256 385 250 364 c 1
 43 364 l 1
 43 412 56.6446511485 456.498294564 135 512 c 0
 183 546 193 565 193 602 c 7
 193 641 177 658 151 658 c 3
 120 658 113 646 108 634 c 0
 104.538085938 625.692382812 107.315429688 612.890625 106 605 c 0
 103 587 89 584 79 584 c 3xf0
EndSplineSet
EndChar
StartChar: three.superior
Encoding: 179 179 330
Width: 307
VWidth: 487
Flags: HMW
HStem: 358 30<95.5172 184.829> 524 27<113.689 136.673> 658 30<104.379 179.496>
VStem: 46 50<605.453 651.037> 186 59<583.006 655.12> 212 62<408.072 512.655>
LayerCount: 2
Back
SplineSet
0.488281 687.988 m 29
 307.617 687.988 l 29
 307.617 358.398 l 29
 0.488281 358.398 l 29
 0.488281 687.988 l 29
0.488281 682.129 m 29
 307.617 682.129 l 29
 307.617 364.258 l 29
 0.488281 364.258 l 29
 0.488281 682.129 l 29
EndSplineSet
Fore
SplineSet
186 621 m 3xf8
 186 647 169.023796042 662 148 662 c 3
 126.976203958 662 98 658 96 634 c 0
 95.0000062218 622.000074661 92 605 69 605 c 3
 50 605 46 617 46 626 c 3
 46 643 73 688 160 688 c 3
 212 688 245 663 245 626 c 3xf8
 245 593 221 571 196 557 c 1
 229 554 274 529 274 471 c 3
 274 402 215 358 135 358 c 3
 108.813 358 38.2248 369.319 38.2248 400.843 c 3
 38.2248 414.12 50.7243 423 63 423 c 3
 77 423 87 418 93 406 c 0
 98.7271 394.546 109 383 141 383 c 3
 170.016601562 383 212 398.9921875 212 463 c 3xf4
 212 510.34208001 182.5467545 526.340820312 154 526.340820312 c 3
 140.995533133 526.340820312 128 525 117 523 c 1
 111.561523438 529.458984375 110.34765625 538.927734375 113 548 c 1
 157 554 186 580 186 621 c 3xf8
EndSplineSet
EndChar
StartChar: uni00B5
Encoding: 181 181 332
Width: 515
VWidth: 999
Flags: MW
HStem: -234 21G<98.5 119> -10 45<159.519 280.779 391.5 487.007> 419 20G<118 133.625 408 421>
VStem: 50 100<-215.817 -75.696> 57 79<58.8436 428.943> 342 79<84.1749 429>
LayerCount: 2
Back
SplineSet
424.805 38.0859 m 0
 436.279 38.0859 444.58 48.0957 459.473 81.543 c 1
 483.562 70.9648 l 1
 460.205 8.05664 432.129 -10.2539 386.23 -10.2539 c 1024
427.246 124.023 m 2
 427.246 71.2891 428.223 54.1992 435.547 46.3867 c 0
 439.941 42.4805 445.801 39.5508 453.613 39.5508 c 0
 471.191 39.5508 481.934 57.6172 492.676 83.4961 c 1
 508.789 76.6602 l 1
 493.164 30.7617 471.191 -5.85938 415.039 -5.85938 c 1024
EndSplineSet
Fore
SplineSet
340 60 m 5xec
 301 16 258 -10 194 -10 c 4
 167 -10 141 0 129 13 c 5
 123 13 116 9 116 4 c 4
 116 -61 150 -131 150 -174 c 4
 150 -215 131 -234 107 -234 c 4
 90 -234 50 -210 50 -169 c 4xf4
 50 -118 66 -71 66 -8 c 4
 66 25 57 76 57 134 c 6
 57 322 l 6
 57 350 46 429 46 429 c 5
 70 429 103 436 133 439 c 5
 133 439 136 375 136 343 c 6
 136 147 l 6
 136 85 153 35 209 35 c 4
 264 35 319 74 342 107 c 5
 342 429 l 5
 367 429 395 436 421 439 c 5
 421 121 l 6
 421 75 422 34 463 34 c 4
 489 34 492 50 498 50 c 4
 502 50 510 42 510 35 c 4
 510 30 474 -10 422 -10 c 4
 361 -10 345 32 342 60 c 13
 340 60 l 5xec
EndSplineSet
Validated: 3073
EndChar
StartChar: pilcrow
Encoding: 182 182 333
Width: 602
VWidth: 999
Flags: HW
HStem: -238 21G<221 288.5> 256 391<130.922 299.163> 595 50<380.5 440.811> 614 33<513.875 581.625>
VStem: 37 325<351.449 551.377> 310 52<57.6326 275> 441 52<24.3882 594.854>
LayerCount: 2
Back
SplineSet
408 645 m 11xe8
 477 645 537.5 645 585 647 c 1
 587 645 l 1
 587 626 l 2
 587 621 582.988 618.307 579 618 c 2
 553 616 l 2
 513.274 612.944 498 604 498 574 c 10
 498 -161 l 2
 498 -191 513.274 -199.944 553 -203 c 2
 579 -205 l 2
 582.988 -205.307 587 -208 587 -213 c 2
 587 -232 l 1
 585 -234 l 1
 537.5 -232 477 -232 408 -232 c 27
 339 -232 280 -232 231 -234 c 1
 229 -232 l 1
 229 -213 l 2
 229 -208 232.011 -205.296 236 -205 c 2
 263 -203 l 2
 304.623 -199.917 317 -189 317 -161 c 2
 317 285 l 1xd8
 308 283 300 282 285 282 c 3
 139 282 57 347 57 481 c 3
 57 560 115 647 247 647 c 3
 322 647 381 645 408 645 c 11xe8
367 574 m 10
 367 -161 l 18
 367 -188 384 -199 407 -199 c 3
 430 -199 448 -192 448 -161 c 2
 448 574 l 18
 448 605 430 612 407 612 c 3
 384 612 367 601 367 574 c 10
448 71 m 2xdc
 448 574 l 2
 448 606 475.07 615.132 492 616 c 2
 531 618 l 2
 534.995 618.205 537 620 537 624 c 2
 537 645 l 1
 535 646 l 1xec
 535 646 454 645 408 645 c 0
 378 645 304 654 278 654 c 0
 93 654 57 545 57 486 c 0
 57 401 109 282 291 282 c 0
 326 282 345 285 367 292 c 1
 367 71 l 2
 367 41 352.137 31.8994 313 29 c 2
 286 27 l 2
 282.011 26.7041 278 24 278 19 c 2
 278 0 l 1
 280 -2 l 1
 280 -2 367 0 406 0 c 0
 442 0 535 -2 535 -2 c 1
 537 0 l 1
 537 19 l 2
 537 24 533.985 26.6162 529 27 c 2
 503 29 l 2
 462.892 32.085 448 43 448 71 c 2xdc
EndSplineSet
Fore
SplineSet
362 275 m 6xa6
 362 -75.4423828125 353 -162.396484375 224 -238 c 5
 218 -237 215 -233 214 -226 c 5
 300.350585938 -138.83203125 310 -60 310 275 c 5xa6
 306 277 l 5
 267 259 230 256 198 256 c 7
 152 256 37 303 37 446 c 4
 37 569 97.939453125 647 230 647 c 7xca
 305.026367188 647 343 645 425 645 c 7xaa
 484 645 536 646 576 647 c 5
 586 641 586 620 576 614 c 5x9a
 521 611 493 606 493 523 c 6
 493 236 l 6
 493 -63 482 -131.606445312 382 -208 c 5
 374 -207 370 -204 368 -197 c 5
 419.548828125 -115 441 -61 441 217 c 6
 441 563 l 22
 441 592 438 595 428 595 c 7
 407.439453125 595 386.1328125 586.817382812 378.458007812 569 c 4
 365.104492188 538 362 463 362 294 c 6
 362 275 l 6xa6
EndSplineSet
EndChar
StartChar: periodcentered
Encoding: 183 183 334
Width: 250
VWidth: 999
Flags: W
HStem: 199 108<83.0803 166.92>
VStem: 71 108<211.08 294.92>
LayerCount: 2
Back
SplineSet
-58.1055 256.836 m 29
 565.43 256.836 l 1053
0 572.012 m 5
 527.344 572.012 l 5
 527.344 0 l 5
 0 0 l 5
 0 572.012 l 5
EndSplineSet
Fore
SplineSet
125 199 m 7
 97 199 71 225 71 253 c 7
 71 281 97 307 125 307 c 7
 153 307 179 281 179 253 c 7
 179 225 153 199 125 199 c 7
EndSplineSet
EndChar
StartChar: one.superior
Encoding: 185 185 336
Width: 307
VWidth: 944
Flags: W
HStem: 364 29<75.4345 135.126 212.861 260.25> 605 21G<74.0436 90.5>
VStem: 149 54<401.951 619.993>
LayerCount: 2
Back
SplineSet
0.488281 687.988 m 25
 307.617 687.988 l 25
 307.617 358.398 l 25
 0.488281 358.398 l 25
 0.488281 687.988 l 25
0.488281 682.129 m 25
 307.617 682.129 l 25
 307.617 364.258 l 25
 0.488281 364.258 l 25
 0.488281 682.129 l 25
EndSplineSet
Fore
SplineSet
135 620 m 3
 122 620 103 614 78 605 c 1
 70.0872 611.126 68 620 68 632 c 1
 115 649 141 661 185 688 c 1
 190.333 690.881 197.667 692.986 203 688 c 1
 203 449 l 6
 203 398 224 395 258 393 c 5
 262 385 262 371 258 364 c 5
 228 365 207 365 174 365 c 23
 138.683 365 108 365 78 364 c 5
 74 370 73 385 78 393 c 5
 118 395 149 398 149 449 c 6
 149 579 l 2
 149 611 147 620 135 620 c 3
EndSplineSet
Validated: 3073
EndChar
StartChar: ordmasculine
Encoding: 186 186 337
Width: 349
VWidth: 914
Flags: W
HStem: 303 26<141.029 220.509> 540 26<132.913 212.689>
VStem: 39 58<364.647 507.97> 253 58<361.326 507.172>
LayerCount: 2
Back
SplineSet
0.488281 687.988 m 29
 307.617 687.988 l 29
 307.617 358.398 l 29
 0.488281 358.398 l 29
 0.488281 687.988 l 29
0.488281 682.129 m 29
 307.617 682.129 l 29
 307.617 364.258 l 29
 0.488281 364.258 l 29
 0.488281 682.129 l 29
EndSplineSet
Fore
SplineSet
171 540 m 3
 121 540 97 493 97 439 c 3
 97 390 123 329 183 329 c 3
 210 329 253 347 253 419 c 3
 253 499 221 540 171 540 c 3
39 429 m 3
 39 510 93 566 179 566 c 3
 266 566 311 504 311 435 c 3
 311 370 266 303 172 303 c 3
 98 303 39 358 39 429 c 3
EndSplineSet
EndChar
StartChar: onequarter
Encoding: 188 188 339
Width: 660
VWidth: 999
Flags: W
HStem: -81 29<472.435 521.777 587.172 633.25> 18 34<430 528 580 630> 315 29<72.4345 132.126 209.861 257.25> 556 21<71.0436 87.5> 581 20G<542.985 598>
VStem: 146 54<352.951 570.993> 528 52<-48.0801 18 52 191.655>
DStem2: 98 -54 140 -62 0.573882 0.818938<17.5515 799.816>
LayerCount: 2
Back
SplineSet
352.539 239.258 m 29
 660.156 239.258 l 29
 660.156 -78.6133 l 29
 352.539 -78.6133 l 29
 352.539 239.258 l 29
0.488281 633.789 m 29
 308.105 633.789 l 29
 308.105 315.918 l 29
 0.488281 315.918 l 29
 0.488281 633.789 l 29
532.412 600.586 m 5
 573.916 600.586 l 5
 115.418 -54.1992 l 5
 73.9141 -53.7109 l 5
 532.412 600.586 l 5
EndSplineSet
Fore
SplineSet
557 601 m 1
 598 593 l 1
 140 -62 l 1
 98 -54 l 1
 557 601 l 1
EndSplineSet
Refer: 1089 8324 N 1 0 0 1 348 30 2
Refer: 336 185 N 1 0 0 1 -3 -49 2
Ligature2: "'frac' Brueche 1" one slash four
LCarets2: 2 215 424
Colour: ff9ccc
EndChar
StartChar: onehalf
Encoding: 189 189 340
Width: 660
VWidth: 999
Flags: HW
HStem: -79 32<465 578.303> 215 30<464.096 545.255> 315 29<74.4345 134.126 211.861 259.25> 556 21<73.0436 89.5> 581 20G<518.015 574>
VStem: 148 54<352.951 570.993> 405 53<144.498 193.607> 558 62<103.208 207.7> 604 24<-7.81601 18.188>
DStem2: 74 -54 115 -62 0.573882 0.818938<16.9776 799.242>
LayerCount: 2
Back
SplineSet
352.539 239.258 m 29
 660.156 239.258 l 29
 660.156 -78.6133 l 29
 352.539 -78.6133 l 29
 352.539 239.258 l 29
0.488281 633.789 m 29
 308.105 633.789 l 29
 308.105 315.918 l 29
 0.488281 315.918 l 29
 0.488281 633.789 l 29
532.412 600.586 m 5
 573.916 600.586 l 5
 115.418 -54.1992 l 5
 73.9141 -53.7109 l 5
 532.412 600.586 l 5
EndSplineSet
Fore
SplineSet
532 601 m 1xfe
 574 593 l 1
 115 -62 l 1
 74 -54 l 1
 532 601 l 1xfe
EndSplineSet
Refer: 329 178 N 1 0 0 1 358 -443 2
Refer: 336 185 N 1 0 0 1 -1 -49 2
LCarets2: 2 208 414
Ligature2: "'frac' Brueche 1" one slash two
Colour: ff9ccc
EndChar
StartChar: threequarters
Encoding: 190 190 341
Width: 660
VWidth: 999
Flags: HW
HStem: -79 29<476.435 525.777 591.172 637.25> 20 34<434 532 584 634> 307 30<93.5172 182.829> 473 27<111.689 134.673> 581 20G<547.985 603> 607 30<102.379 177.496>
VStem: 44 50<554.453 600.037> 184 59<532.006 604.12> 210 62<357.072 461.655> 532 52<-46.0801 20 54 193.655>
DStem2: 103 -54 145 -62 0.573882 0.818938<17.5515 799.816>
LayerCount: 2
Back
SplineSet
352.539 239.258 m 29
 660.156 239.258 l 29
 660.156 -78.6133 l 29
 352.539 -78.6133 l 29
 352.539 239.258 l 29
0.488281 633.789 m 29
 308.105 633.789 l 29
 308.105 315.918 l 29
 0.488281 315.918 l 29
 0.488281 633.789 l 29
532.412 600.586 m 5
 573.916 600.586 l 5
 115.418 -54.1992 l 5
 73.9141 -53.7109 l 5
 532.412 600.586 l 5
EndSplineSet
Fore
SplineSet
562 601 m 1xfe40
 603 593 l 1
 145 -62 l 1
 103 -54 l 1
 562 601 l 1xfe40
EndSplineSet
Refer: 330 179 N 1 0 0 1 -2 -51 2
Refer: 1089 8324 N 1 0 0 1 352 32 2
LCarets2: 2 260 447
Ligature2: "'frac' Brueche 1" three slash four
Colour: ff9ccc
EndChar
StartChar: Adieresis
Encoding: 196 196 347
Width: 695
VWidth: 999
Flags: W
HStem: -2 33<3.625 68.0908 159.081 227.375 436.625 510.911 622.197 688.375> 241 42<241.019 440> 638 20G<381.5 396.203> 658 96<201.332 280.668 438.332 517.668>
VStem: 193 96<666.332 745.668> 430 96<666.332 745.668>
AnchorPoint: "top_akzent" 362 894 basechar 0
LayerCount: 2
Fore
SplineSet
430 706 m 3xdc
 430 732 452 754 478 754 c 3
 504 754 526 732 526 706 c 3
 526 680 504 658 478 658 c 3
 452 658 430 680 430 706 c 3xdc
193 706 m 3
 193 732 215 754 241 754 c 3
 267 754 289 732 289 706 c 3
 289 680 267 658 241 658 c 3
 215 658 193 680 193 706 c 3
EndSplineSet
Refer: 24 65 N 1 0 0 1 0 0 3
Position2: "'cpsp' Versalabstaende 1" dx=2 dy=0 dh=5 dv=0
Substitution2: "'ss01' Stilgruppe 1 1" Adieresis.alt
Substitution2: "'c2sc' Versale nach Kapitaelchen 1" uniE074
AlternateSubs2: "'aalt' Alle Alternativen zeigen 1" uniE074
Colour: ff9ccc
EndChar
StartChar: Aring
Encoding: 197 197 348
Width: 695
VWidth: 999
Flags: W
HStem: -2 33<3.625 68.0908 159.081 227.375 436.625 510.911 622.197 688.375> 241 42<241.019 440> 629 32<323.639 393.812> 638 20G<381.5 396.203> 767 32<323.639 394.555>
VStem: 271 40<670.365 757.898> 407 40<670.587 758.252>
AnchorPoint: "top_akzent" 364 894 basechar 0
LayerCount: 2
Back
SplineSet
358 770 m 4
 328 770 305 743 305 714 c 4
 305 686 327 658 358 658 c 4
 390 658 412 686 412 714 c 4
 412 745 388 770 358 770 c 4
273 714 m 4
 273 759 311 797 358 797 c 4
 404 797 444 760 444 714 c 4
 444 678 420 647 387 636 c 5
 390 628 l 6
 595 86 l 6
 609 47 629 27 669 27 c 6
 680 27 l 6
 685 27 690 24 690 19 c 6
 690 0 l 5
 687 -2 l 5
 687 -2 610 0 571 0 c 4
 536 0 438 -2 438 -2 c 5
 437 0 l 5
 437 19 l 6
 437 24 439 27 444 27 c 6
 472 27 l 6
 503 27 519 39 519 55 c 4
 519 60 518 66 516 72 c 6
 452 244 l 5
 241 244 l 6
 217 244 209 238 205 227 c 6
 140 72 l 6
 137 65 136 59 136 53 c 4
 136 37 152 27 182 27 c 6
 211 27 l 6
 215 27 219 24 219 19 c 6
 219 0 l 5
 217 -2 l 5
 217 -2 118 0 94 0 c 4
 68 0 4 -2 4 -2 c 5
 2 0 l 5
 2 19 l 6
 2 24 5 27 10 27 c 6
 22 27 l 6
 63 27 81 47 95 81 c 6
 329 628 l 6
 330 631 331 633 332 635 c 5
 298 646 273 677 273 714 c 4
259 283 m 6
 438 283 l 5
 339 550 l 5
 235 301 l 6
 234 297 233 295 233 292 c 4
 233 286 240 283 259 283 c 6
EndSplineSet
Fore
Refer: 24 65 N 1 0 0 1 0 0 3
Refer: 665 730 N 1 0 0 1 178 43 2
Position2: "'cpsp' Versalabstaende 1" dx=2 dy=0 dh=5 dv=0
Substitution2: "'c2sc' Versale nach Kapitaelchen 1" uniE075
AlternateSubs2: "'aalt' Alle Alternativen zeigen 1" uniE075
Colour: ff00ff
EndChar
StartChar: AE
Encoding: 198 198 349
Width: 865
VWidth: 999
Flags: W
HStem: -2 33<3.625 66.5218 157.318 227.375 338.625 411.75> 0 39<517.719 749.897> 266 39<271 429> 323 38<513 681.322> 605 40<518.062 720.552> 614 33<291.258 354.648>
VStem: 429 84<43.3809 266 305 323 361 597.901> 695 33<251.625 306.925 373.446 432.375> 767 33<498.32 539.828> 816 35<122.11 168.353>
DStem2: 110.979 101.993 153.997 78.9922 0.461513 0.887134<-25.7488 210.118 253.946 553.627>
AnchorPoint: "top_akzent" 553 805 basechar 0
AnchorPoint: "unten_punkt" 549 -107 basechar 0
AnchorPoint: "unten_anhang" 549 4 basechar 0
LayerCount: 2
Back
SplineSet
516 411 m 5
 741 411 l 5
 741 171 l 5
 516 171 l 5
 516 411 l 5
EndSplineSet
Fore
SplineSet
429 122 m 2xb3c0
 429 266 l 1
 251 266 l 1
 153.997 78.9922 l 2
 133.736 39.9336 186.361 33.5957 224 31 c 1
 230 25 230 4 224 -2 c 1xb3c0
 187 -1 137 0 96 0 c 3x73c0
 57 0 44 -1 7 -2 c 1
 1 4 1 25 7 31 c 1
 50.5 34 79.3105 42.7012 110.979 101.993 c 2
 354.01 557.001 l 2
 370.203 587.698 364 611 294 614 c 1
 288 620 288 641 294 647 c 1xb7c0
 344 646 409 645 409 645 c 18
 389 645.348 549 645 549 645 c 2
 725 645 l 2
 749 645 757 646 774 649 c 1
 777 649 778 648 778 646 c 0
 780 638 795 542 800 501 c 1
 790.245 496.332 779.419 494.244 767 496 c 1
 745 565 729 605 654 605 c 2
 549 605 l 2
 525 605 513 585 513 561 c 2
 513 361 l 1
 604 361 l 2
 689 361 692 374 695 429 c 1
 701 435 722 435 728 429 c 1
 727 399 726 376.549 726 343 c 27
 726 308.671 727 290 728 255 c 1
 722 249 701 249 695 255 c 1
 692 300 689 323 604 323 c 2
 513 323 l 1
 513 82 l 2
 513 55 527 39 549 39 c 2
 685 39 l 2x7bc0
 761 39 796 98 816 170 c 1
 829.099 173.181 840.599 170.95 851 165 c 1
 843 114 828 48 814 -2 c 1xb3c0
 814 -2 734 0 686 0 c 2
 472 0 l 10x73c0
 472 0 391 -1 342 -2 c 1
 336 4 336 25 342 31 c 1
 412 34 429 39 429 122 c 2xb3c0
271 305 m 1
 429 305 l 1
 429 575 l 2
 429 587 428 596 424 598 c 1
 271 305 l 1
EndSplineSet
Validated: 3105
Position2: "'cpsp' Versalabstaende 1" dx=2 dy=0 dh=5 dv=0
Substitution2: "'c2sc' Versale nach Kapitaelchen 1" uniE076
AlternateSubs2: "'aalt' Alle Alternativen zeigen 1" uniE076
EndChar
StartChar: Egrave
Encoding: 200 200 351
Width: 557
VWidth: 999
Flags: W
HStem: -2 33<14.625 87.75> 0 39<198.526 426.897> 323 38<190 358.322> 605 40<199.403 397.552> 614 33<15.2578 87.75> 697 120
VStem: 105 85<45.8954 323 361 596.13> 169 212 372 33<251.625 306.925 373.446 432.375> 444 33<498.32 539.828> 493 35<122.11 168.353>
AnchorPoint: "unten_punkt" 279 -107 basechar 0
AnchorPoint: "unten_anhang" 279 4 basechar 0
LayerCount: 2
Back
SplineSet
242.188 807.129 m 1
 353.877 728.384 l 2
 369.645 717.266 372.593 708.022 366.211 697.754 c 0
 360.596 688.721 342.59 692.612 311.733 704.604 c 2
 166.016 761.23 l 1
 242.188 807.129 l 1
EndSplineSet
Fore
Refer: 2436 58200 N 1 0 0 1 462 126 2
Refer: 28 69 N 1 0 0 1 0 0 3
Position2: "'cpsp' Versalabstaende 1" dx=2 dy=0 dh=5 dv=0
Substitution2: "'c2sc' Versale nach Kapitaelchen 1" uniE078
AlternateSubs2: "'aalt' Alle Alternativen zeigen 1" uniE078
Colour: ff00ff
EndChar
StartChar: Eth
Encoding: 208 208 359
Width: 701
VWidth: 999
Flags: W
HStem: -2 34<15.9238 91.0861 204.846 417.647> 287 39<8.98218 298.936> 613 34<15.9238 91.0861 206.921 373.9>
VStem: 106 85<44.3649 600.097> 562 96<179.249 422.825>
AnchorPoint: "top_akzent" 341 850 basechar 0
LayerCount: 2
Fore
SplineSet
279 287 m 2
 19 287 l 2
 11 287 8 295 8 301 c 3
 8 311 18 326 27 326 c 2
 288 326 l 2
 297 326 300 318 300 313 c 3
 300 302 291 287 279 287 c 2
EndSplineSet
Refer: 27 68 N 1 0 0 1 0 0 3
Position2: "'cpsp' Versalabstaende 1" dx=2 dy=0 dh=5 dv=0
Substitution2: "'c2sc' Versale nach Kapitaelchen 1" uniE080
AlternateSubs2: "'aalt' Alle Alternativen zeigen 1" uniE080
Colour: ff9ccc
EndChar
StartChar: Odieresis
Encoding: 214 214 365
Width: 702
VWidth: 999
Flags: W
HStem: -10 36<287.252 445.886> 622 36<258.76 417.86> 658 96<105.332 184.668 514.332 593.668>
VStem: 37 96<199.246 446.734> 97 96<666.332 745.668> 506 96<666.332 745.668> 570 96<196.263 451.706>
AnchorPoint: "top_akzent" 344 894 basechar 0
LayerCount: 2
Fore
SplineSet
506 706 m 3xa4
 506 732 528 754 554 754 c 3
 580 754 602 732 602 706 c 3
 602 680 580 658 554 658 c 3
 528 658 506 680 506 706 c 3xa4
97 706 m 3xa8
 97 732 119 754 145 754 c 3
 171 754 193 732 193 706 c 3
 193 680 171 658 145 658 c 3
 119 658 97 680 97 706 c 3xa8
EndSplineSet
Refer: 264 79 N 1 0 0 1 0 0 3
Position2: "'cpsp' Versalabstaende 1" dx=2 dy=0 dh=5 dv=0
Substitution2: "'ss01' Stilgruppe 1 1" Odieresis.alt
Substitution2: "'c2sc' Versale nach Kapitaelchen 1" uniE086
AlternateSubs2: "'aalt' Alle Alternativen zeigen 1" uniE086
Colour: ff9ccc
EndChar
StartChar: multiply
Encoding: 215 215 366
Width: 550
VWidth: 999
Flags: W
HStem: 133 315
VStem: 116 315
DStem2: 152 448 116 413 0.707107 -0.707107<0 173.241 222.739 395.273> 116 168 152 133 0.707107 0.707107<0.707106 173.241 222.739 395.98>
LayerCount: 2
Back
SplineSet
-58.1055 256.836 m 29
 565.43 256.836 l 1053
0 572.012 m 5
 527.344 572.012 l 5
 527.344 0 l 5
 0 0 l 5
 0 572.012 l 5
EndSplineSet
Fore
SplineSet
308 290 m 1
 431 168 l 1
 396 133 l 1
 274 255 l 1
 152 133 l 1
 116 168 l 1
 239 290 l 1
 116 413 l 1
 152 448 l 1
 274 325 l 1
 396 448 l 1
 431 413 l 1
 308 290 l 1
EndSplineSet
Validated: 3073
Substitution2: "'sinf' Wissenschaftliche Indices 1" uniE164
Substitution2: "'sups' Hochgestellte 1" uniE142
EndChar
StartChar: Oslash
Encoding: 216 216 367
Width: 702
VWidth: 999
Flags: W
HStem: -13 21G<98.5 124.193> -10 36<287.252 445.886> 622 36<258.76 417.86> 638 20G<574.756 600.5>
VStem: 37 96<199.246 446.734> 570 96<196.263 451.706>
DStem2: 72 19 108 -13 0.629268 0.777188<-6.99464 829.327>
AnchorPoint: "top_akzent" 351 850 basechar 0
LayerCount: 2
Back
SplineSet
563.477 566.406 m 0
 629.395 499.023 659.668 426.27 659.668 324.707 c 0
 659.668 233.887 630.371 155.762 571.289 87.4023 c 0
 510.742 17.5781 439.453 -12.207 355.469 -12.207 c 0
 270.02 -12.207 186.035 20.5078 129.883 76.6602 c 0
 65.918 141.113 34.1797 214.844 34.1797 318.359 c 0
 34.1797 377.441 42.4805 476.074 136.23 569.824 c 0
 195.801 629.883 263.672 657.227 343.75 657.227 c 0
 436.523 657.227 501.953 628.906 563.477 566.406 c 0
331.055 622.559 m 0
 273.926 622.559 228.516 601.562 190.43 555.176 c 0
 145.996 500.977 124.023 433.594 124.023 327.148 c 0
 124.023 227.539 145.508 147.949 214.844 78.6133 c 0
 243.164 50.7812 289.062 20.5078 353.516 20.5078 c 0
 416.992 20.5078 468.75 41.9922 508.789 90.332 c 0
 547.852 137.695 566.895 200.684 566.895 305.176 c 0
 566.895 409.18 549.316 490.723 479.98 560.059 c 0
 435.547 604.492 389.648 622.559 331.055 622.559 c 0
81.543 -41.0156 m 5
 51.7578 -13.6719 l 5
 608.398 670.41 l 5
 638.184 645.02 l 5
 81.543 -41.0156 l 5
EndSplineSet
Fore
SplineSet
108 -13 m 5x9c
 89 -13 75 4 72 19 c 5
 591 658 l 5
 610 658 624.726 642.867 627 628 c 5
 108 -13 l 5x9c
EndSplineSet
Refer: 264 79 N 1 0 0 1 0 0 3
Position2: "'cpsp' Versalabstaende 1" dx=2 dy=0 dh=5 dv=0
Substitution2: "'c2sc' Versale nach Kapitaelchen 1" uniE088
AlternateSubs2: "'aalt' Alle Alternativen zeigen 1" uniE088
Colour: ff9ccc
EndChar
StartChar: Udieresis
Encoding: 220 220 371
Width: 667
VWidth: 999
Flags: W
HStem: -10 41<266.937 438.304> 614 33<8.625 73.1875 190.713 225.628 474.98 513.367 592.125 655.375> 660 94<239.394 318.606 383.394 462.606>
VStem: 89 85<124.125 602.487> 232 94<667.394 746.606> 376 94<667.394 746.606> 529 49<135.217 603.086>
AnchorPoint: "top_akzent" 344 894 basechar 0
LayerCount: 2
Back
SplineSet
320.312 -12.207 m 4
 230.957 -12.207 88.8672 29.7852 88.8672 233.887 c 6
 88.8672 574.219 l 6
 88.8672 604.98 73.7305 617.676 34.1797 617.676 c 6
 7.8125 617.676 l 6
 3.41797 617.676 -0.488281 620.605 -0.488281 625.977 c 6
 -0.488281 644.531 l 5
 1.46484 646.484 l 5
 1.46484 646.484 88.3789 644.531 127.441 644.531 c 4
 163.086 644.531 256.348 646.484 256.348 646.484 c 5
 258.301 644.531 l 5
 258.301 625.977 l 6
 258.301 620.605 255.371 617.676 250.488 617.676 c 6
 224.121 617.676 l 6
 183.105 617.676 169.434 602.051 169.434 574.219 c 6
 169.434 267.09 l 6
 169.434 202.148 169.922 132.188 222.765 79.3457 c 4
 252.459 49.6504 294.184 28.8086 341.797 28.8086 c 4
 510.254 28.8086 525.879 162.598 525.879 275.391 c 6
 525.879 574.219 l 6
 525.879 604.98 510.742 617.676 471.191 617.676 c 6
 444.824 617.676 l 6
 440.43 617.676 436.523 620.605 436.523 625.977 c 6
 436.523 644.531 l 5
 438.477 646.484 l 5
 438.477 646.484 509.766 644.531 548.828 644.531 c 4
 584.473 644.531 658.691 646.484 658.691 646.484 c 5
 660.645 644.531 l 5
 660.645 625.977 l 6
 660.645 620.605 657.715 617.676 652.832 617.676 c 6
 626.465 617.676 l 6
 585.449 617.676 571.777 602.051 571.777 574.219 c 6
 571.777 292.969 l 6
 571.777 114.746 525.879 -12.207 320.312 -12.207 c 4
EndSplineSet
Fore
SplineSet
376 707 m 3
 376 733 397 754 423 754 c 3
 449 754 470 733 470 707 c 3
 470 681 449 660 423 660 c 3
 397 660 376 681 376 707 c 3
232 707 m 3
 232 733 253 754 279 754 c 3
 305 754 326 733 326 707 c 3
 326 681 305 660 279 660 c 3
 253 660 232 681 232 707 c 3
323 -10 m 3
 234 -10 89 32 89 236 c 2
 89 523 l 2
 89 606 72.5 611 12 614 c 1
 6 620 6 641 12 647 c 1
 49 646 93 645 132 645 c 3
 173 645 192 646 217 647 c 1
 230.869 647 230 616 221 614 c 1
 190 609 174 586 174 523 c 2
 174 269 l 2
 174 204 173 134 226 81 c 0
 255 52 297 31 345 31 c 3
 513 31 529 165 529 277 c 2
 529 523 l 2
 529 589 516 607 481 614 c 1
 466.294 625.03 469.343 647 488 647 c 8
 514 647 532 645 555 645 c 3
 578 645 622 646 652 647 c 1
 658 641 658 620 652 614 c 1
 591 611 578 606 578 523 c 2
 578 295 l 2
 578 117 529 -10 323 -10 c 3
EndSplineSet
Validated: 3105
Position2: "'cpsp' Versalabstaende 1" dx=2 dy=0 dh=5 dv=0
Substitution2: "'ss01' Stilgruppe 1 1" Udieresis.alt
Substitution2: "'c2sc' Versale nach Kapitaelchen 1" uniE08C
AlternateSubs2: "'aalt' Alle Alternativen zeigen 1" uniE08C
EndChar
StartChar: Thorn
Encoding: 222 222 373
Width: 527
VWidth: 999
Flags: HMW
HStem: -2 33<7.625 80.75 200.25 273.375> 150 33<183.572 327.956> 490 33<184.346 338.289> 614 33<7.625 80.75 200.25 273.375>
VStem: 98 85<43.3808 159 184.631 483.495 519 601.619> 400 93<260.331 430.711>
AnchorPoint: "top_akzent" 281 850 basechar 0
LayerCount: 2
Fore
SplineSet
183 122 m 2
 183 39 200 34 270 31 c 1
 276 25 276 4 270 -2 c 1
 220 -1 191 0 141 0 c 27
 90 0 60 -1 11 -2 c 1
 5 4 5 25 11 31 c 1
 81 34 98 39 98 122 c 2
 98 523 l 2
 98 606 81 611 11 614 c 1
 5 620 5 641 11 647 c 1
 61 646 90 645 140 645 c 27
 191 645 221 646 270 647 c 1
 276 641 276 620 270 614 c 1
 200 611 183 606 183 523 c 2
 183 519 l 1
 219 521 254 523 273 523 c 3
 458 523 493 414 493 343 c 3
 493 268 437 150 259 150 c 3
 224 150 198 154 183 159 c 1
 183 122 l 2
183 479 m 1
 183 188 l 1
 192 185 216 183 254 183 c 3
 326 183 400 214 400 343 c 3
 400 463 331 490 272 490 c 3
 253 490 204 485 183 479 c 1
EndSplineSet
Validated: 3073
Position2: "'cpsp' Versalabstaende 1" dx=2 dy=0 dh=5 dv=0
Substitution2: "'c2sc' Versale nach Kapitaelchen 1" uniE08E
AlternateSubs2: "'aalt' Alle Alternativen zeigen 1" uniE08E
EndChar
StartChar: germandbls
Encoding: 223 223 374
Width: 541
VWidth: 999
Flags: HMW
HStem: -10 33<294.419 376.921> -2 33<19.625 78.875 181.5 222.375> 398 33<33.552 87.7122> 665 33<230.958 336.523>
VStem: 92 79<39.9611 397.997 433.133 581.141> 365 83<514.044 641.806> 415 85<76.4562 243.284>
LayerCount: 2
Back
SplineSet
167 86 m 6
 167 51 184 32 210 27 c 4
 214.91 26.0558 219 24 219 19 c 6
 219 0 l 5
 217 -2 l 5
 180 -1 166 0 128 0 c 7
 92 0 61 -1 24 -2 c 5
 22 0 l 5
 22 19 l 6
 22 24 25.0273 26.4766 30 27 c 6
 49 29 l 6
 82.7315 32.5507 92 43 92 72 c 1030
EndSplineSet
Fore
SplineSet
92 122 m 2x7c
 92 386 l 18
 92 394 89 398 80 398 c 2
 29 398 l 1
 23 404 31 431 44 431 c 3
 80.0556 431 92 436 92 477 c 3
 92 642 217 698 296 698 c 3
 400 698 448 635 448 587 c 3x7c
 448 510 390 464 320 411 c 9
 320 409 l 17
 399 357 500 289 500 173 c 3
 500 68 436 -10 344 -10 c 3
 260 -10 240 42 240 86 c 7
 240 102 255 121 271 121 c 7
 291 121 299 111 299 91 c 7
 299 74 291 65 291 53 c 7
 291 23 321 23 344 23 c 3
 374 23 415 65 415 156 c 3xba
 415 249 344 332 260 396 c 9
 260 409 l 1
 327 461 365 501 365 574 c 3
 365 628 340 665 287 665 c 3
 183 665 171 550 171 442 c 2
 171 122 l 2
 171 39 183 36 219 31 c 1
 225 25 225 4 219 -2 c 1
 196 -1 166 0 132 0 c 19
 92 0 53 -1 23 -2 c 1
 17 4 17 25 23 31 c 1
 80 34 92 39 92 122 c 2x7c
EndSplineSet
Substitution2: "'ss03' Stilgruppe 3 1" germandbls.ss03
Substitution2: "'smcp' Gemeine nach Kapitaelchen 1" germandbls.sc
AlternateSubs2: "'aalt' Alle Alternativen zeigen 1" uniE092 uniE04C uniE091 uniE04D
EndChar
StartChar: aacute
Encoding: 225 225 376
Width: 452
VWidth: 999
Flags: W
HStem: -12 49<135.986 230.912 329.815 423.014> 404 35<147.52 257.151>
VStem: 41 83<49.7405 154.018> 55 77<291.902 375.751> 288 78<74.5304 217 244.062 374.836>
AnchorPoint: "top_akzent" 255 834 basechar 0
LayerCount: 2
Back
SplineSet
-90.8203 672.852 m 5
 528.32 672.852 l 5
 528.32 510.254 l 5
 -90.8203 510.254 l 5
 -90.8203 672.852 l 5
EndSplineSet
Fore
Refer: 670 769 N 1 0 0 1 396 -37 2
Refer: 281 97 N 1 0 0 1 0 0 3
Substitution2: "'smcp' Gemeine nach Kapitaelchen 1" aacute.sc
AlternateSubs2: "'aalt' Alle Alternativen zeigen 1" uniE071
Colour: ff00ff
EndChar
StartChar: atilde
Encoding: 227 227 378
Width: 452
VWidth: 999
Flags: W
HStem: -12 49<135.986 230.912 329.815 423.014> 404 35<147.52 257.151> 526 44<232 319> 574 46<114 205> 613 10
VStem: 41 83<49.7405 154.018> 55 77<291.902 375.751> 288 78<74.5304 217 244.062 374.836>
AnchorPoint: "top_akzent" 255 834 basechar 0
LayerCount: 2
Back
SplineSet
-87.8906 622.07 m 5
 531.25 622.07 l 5
 531.25 525.391 l 5
 -87.8906 525.391 l 5
 -87.8906 622.07 l 5
EndSplineSet
Fore
Refer: 667 732 N 1 0 0 1 74 -48 2
Refer: 281 97 N 1 0 0 1 0 0 3
Substitution2: "'smcp' Gemeine nach Kapitaelchen 1" atilde.sc
AlternateSubs2: "'aalt' Alle Alternativen zeigen 1" uniE073
Colour: ff00ff
EndChar
StartChar: adieresis
Encoding: 228 228 379
Width: 452
VWidth: 999
Flags: W
HStem: -12 49<135.986 230.912 329.815 423.014> 404 35<147.52 257.151> 528 95<91.0156 168.984 260.016 337.984>
VStem: 41 83<49.7405 154.018> 55 77<291.902 375.751> 83 94<535.394 615.312> 252 94<535.394 615.312> 288 78<74.5304 217 244.062 374.836>
AnchorPoint: "top_akzent" 255 834 basechar 0
LayerCount: 2
Back
SplineSet
-91 623 m 5
 528 623 l 5
 528 527 l 5
 -91 527 l 5
 -91 623 l 5
EndSplineSet
Fore
Refer: 319 168 N 1 0 0 1 33 0 2
Refer: 281 97 N 1 0 0 1 0 0 3
Substitution2: "'smcp' Gemeine nach Kapitaelchen 1" adieresis.sc
AlternateSubs2: "'aalt' Alle Alternativen zeigen 1" uniE074
Colour: ff00ff
EndChar
StartChar: aring
Encoding: 229 229 380
Width: 452
VWidth: 999
Flags: W
HStem: -12 49<135.986 230.912 329.815 423.014> 404 35<147.52 257.151> 497 32<174.639 244.812> 635 32<174.639 245.555>
VStem: 41 83<49.7405 154.018> 55 77<291.902 375.751> 122 40<538.365 625.898> 258 40<538.587 626.252> 288 78<74.5304 217 244.062 374.836>
AnchorPoint: "top_akzent" 255 834 basechar 0
LayerCount: 2
Back
SplineSet
-90.8203 665.527 m 5
 528.32 665.527 l 5
 528.32 499.512 l 5
 -90.8203 499.512 l 5
 -90.8203 665.527 l 5
EndSplineSet
Fore
Refer: 1414 778 N 1 0 0 1 392 -71 2
Refer: 281 97 N 1 0 0 1 0 0 3
Substitution2: "'smcp' Gemeine nach Kapitaelchen 1" aring.sc
AlternateSubs2: "'aalt' Alle Alternativen zeigen 1" uniE075
Colour: ff00ff
EndChar
StartChar: ae
Encoding: 230 230 381
Width: 690
VWidth: 999
Flags: W
HStem: -10 49<438.711 571.318> -10 42<132.793 243.1> 218 35<215.914 298 375 528.097> 406 33<149.076 257.138 448.298 548.196>
VStem: 39 72<52.4808 155.985> 60 73<295.734 386.997> 298 76<118.234 215> 575 76<283.001 385.018>
AnchorPoint: "unten_punkt" 327 -109 basechar 0
AnchorPoint: "ogonek" 607 30 basechar 0
AnchorPoint: "top_akzent" 332 644 basechar 0
LayerCount: 2
Back
SplineSet
636 93 m 5
 648 92 654 87 657 77 c 5
 617 25 563 -12 487 -12 c 7
 415 -12 368 14 334 54 c 4
 301 92 287 146 287 202 c 7
 287 354 387 437 487 437 c 7
 626 437 651 347 651 263 c 7
 651 252 644 246 632 246 c 6
 371 248 l 5
 371 190 383 144 403 111 c 4
 434 60 476 37 512 37 c 7
 570 37 599 55 636 93 c 5
374 287 m 5
 550 285 l 6
 560 285 565 290 565 299 c 7
 565 383 525 404 487 404 c 7
 463 404 393 400 374 287 c 5
945.137 388.672 m 0xb580
 929.512 404.297 908.027 413.574 887.031 413.574 c 0
 848.457 413.574 802.559 396.973 802.559 366.211 c 0
 802.559 356.607 804.023 348.633 805.977 345.703 c 0
 807.93 342.285 809.395 335.287 809.395 327.637 c 0
 809.395 312.5 795.234 294.922 770.332 294.922 c 0
 738.594 294.922 729.805 320.312 729.805 339.844 c 0
 729.805 398.438 807.93 443.848 889.961 443.848 c 0xab80
 914.375 443.848 990.547 440.918 1027.66 373.535 c 1
 1060.86 418.945 1113.11 444.336 1170.23 444.336 c 0
 1284.49 444.336 1328.44 393.555 1328.44 348.633 c 0
 1328.44 262.695 1262.96 225.834 1006.66 216.309 c 0
 862.129 210.938 791.328 163.557 791.328 108.887 c 0
 791.328 64.4531 817.695 31.7383 881.66 31.7383 c 0
 917.729 31.7383 952.557 49.1133 969.062 98.6328 c 0
 975.898 119.141 978.34 174.619 978.34 229.98 c 0
 978.34 322.754 969.062 364.746 945.137 388.672 c 0xb580
1050.61 219.727 m 0
 1050.61 112.793 1112.62 41.9922 1187.81 41.9922 c 0
 1242.5 41.9922 1273.75 56.6406 1304.02 92.2852 c 1
 1320.62 82.0312 l 1
 1292.3 28.3203 1244.45 -7.32422 1178.05 -7.32422 c 0x7580
 1087.69 -7.32422 1040.14 31.6709 1019.84 57.1289 c 1
 990.547 16.1133 934.883 -10.7422 880.195 -10.7422 c 0
 774.727 -10.7422 719.062 36.1328 719.062 104.004 c 0
 719.062 206.25 824.531 244.629 1024.24 251.953 c 0
 1183.87 257.808 1252.27 281.25 1252.27 346.191 c 0
 1252.27 387.695 1217.11 410.156 1169.26 410.156 c 0xb580
 1092.11 410.156 1050.61 318.359 1050.61 219.727 c 0
EndSplineSet
Fore
SplineSet
375 253 m 1x33
 528 255 575 275 575 326 c 3
 575 368 550 406 502 406 c 3
 434 406 383 338 375 253 c 1x33
298 215 m 1
 228.685 209.455 178.741 192.532 148 169.859 c 0
 123.304 151.645 111 129.719 111 107 c 3
 111 63.9884 137.991 32 194 32 c 3x7b
 226.016 32 278 73 293 113 c 1
 297 132 298 165 298 215 c 1
210 406 m 3
 171 406 133 392.017 133 363 c 3
 133 353 134 346 136 343 c 0
 138 339 139 332 139 325 c 3
 139 309 125 292 100 292 c 3
 69 292 60 317 60 337 c 3
 60 395 138 439 220 439 c 3
 260.5 439 316 431 348 359 c 1
 381 414 456 439 513 439 c 3
 617 439 651 373 651 339 c 3
 651 258 605 221 374 218 c 1
 374 128 423 39 498 39 c 3
 552 39 597 64 627 99 c 1
 635.66 98.2012 643.652 88.2969 647 83 c 1
 618 29 550 -10 484 -10 c 3xb7
 393 -10 361.27 35.0712 340 59 c 0
 332 68 327.867 64.1254 316 52 c 0
 270 5 219.054 -10 182 -10 c 3
 146 -10 109.894 -4.45312 88 8 c 0
 53.4795 27.6357 39 60.3896 39 102 c 3
 39 142.012 66 184 102 205.219 c 0
 145.097 230.621 211.19 243.872 298 250 c 1
 296.702 352.533 271.5 406 210 406 c 3
EndSplineSet
Substitution2: "'smcp' Gemeine nach Kapitaelchen 1" ae.sc
AlternateSubs2: "'aalt' Alle Alternativen zeigen 1" uniE076 uniE046
EndChar
StartChar: egrave
Encoding: 232 232 383
Width: 447
VWidth: 999
Flags: W
HStem: -10 50<198.819 330.136> 248 34<124 318.997> 402 35<181.946 289.32>
VStem: 37 84<130.927 248 282 308.257> 319 87<257.5 366.769>
AnchorPoint: "top_akzent" 255 834 basechar 0
LayerCount: 2
Back
SplineSet
-90.8203 672.852 m 1
 528.32 672.852 l 1
 528.32 510.254 l 1
 -90.8203 510.254 l 5
 -90.8203 672.852 l 1
EndSplineSet
Fore
Refer: 669 768 N 1 0 0 1 366 -37 2
Refer: 285 101 N 1 0 0 1 0 0 3
Substitution2: "'smcp' Gemeine nach Kapitaelchen 1" egrave.sc
AlternateSubs2: "'aalt' Alle Alternativen zeigen 1" uniE078
Colour: ff00ff
EndChar
StartChar: eacute
Encoding: 233 233 384
Width: 447
VWidth: 999
Flags: W
HStem: -10 50<198.819 330.136> 248 34<124 318.997> 402 35<181.946 289.32>
VStem: 37 84<130.927 248 282 308.257> 319 87<257.5 366.769>
AnchorPoint: "top_akzent" 255 834 basechar 0
LayerCount: 2
Back
SplineSet
-90.8203 672.852 m 5
 528.32 672.852 l 5
 528.32 510.254 l 5
 -90.8203 510.254 l 5
 -90.8203 672.852 l 5
EndSplineSet
Fore
Refer: 670 769 N 1 0 0 1 422 -37 2
Refer: 285 101 N 1 0 0 1 0 0 3
Substitution2: "'smcp' Gemeine nach Kapitaelchen 1" eacute.sc
AlternateSubs2: "'aalt' Alle Alternativen zeigen 1" uniE079
Colour: ff00ff
EndChar
StartChar: edieresis
Encoding: 235 235 386
Width: 447
VWidth: 999
Flags: W
HStem: -10 50<198.819 330.136> 248 34<124 318.997> 402 35<181.946 289.32> 528 95<107.016 184.984 276.016 353.984>
VStem: 37 84<130.927 248 282 308.257> 99 94<535.394 615.312> 268 94<535.394 615.312> 319 87<257.5 366.769>
AnchorPoint: "top_akzent" 255 834 basechar 0
LayerCount: 2
Back
SplineSet
-91 623 m 5
 528 623 l 5
 528 527 l 5
 -91 527 l 5
 -91 623 l 5
EndSplineSet
Fore
Refer: 319 168 N 1 0 0 1 49 0 2
Refer: 285 101 N 1 0 0 1 0 0 3
Substitution2: "'smcp' Gemeine nach Kapitaelchen 1" edieresis.sc
AlternateSubs2: "'aalt' Alle Alternativen zeigen 1" uniE07B
Colour: ff00ff
EndChar
StartChar: igrave
Encoding: 236 236 387
Width: 271
VWidth: 999
Flags: W
HStem: -2 33<26.625 88.875 194.125 256.375> 422 20<157.75 176>
VStem: 102 79<40.8314 380.346>
AnchorPoint: "top_akzent" 255 834 basechar 0
LayerCount: 2
Back
SplineSet
-90.8203 672.852 m 5
 528.32 672.852 l 5
 528.32 510.254 l 5
 -90.8203 510.254 l 5
 -90.8203 672.852 l 5
EndSplineSet
Fore
Refer: 669 768 N 1 0 0 1 255 -37 2
Refer: 419 305 N 1 0 0 1 0 0 3
Substitution2: "'smcp' Gemeine nach Kapitaelchen 1" igrave.sc
AlternateSubs2: "'aalt' Alle Alternativen zeigen 1" uniE07C
Colour: ff00ff
EndChar
StartChar: idieresis
Encoding: 239 239 390
Width: 271
VWidth: 999
Flags: W
HStem: -2 33<26.625 88.875 194.125 256.375> 422 20<157.75 176> 528 95<4.0156 81.984 173.016 250.984>
VStem: -4 94<535.394 615.312> 102 79<40.8314 380.346> 165 94<535.394 615.312>
AnchorPoint: "top_akzent" 137 795 basechar 0
LayerCount: 2
Back
SplineSet
-91 623 m 5
 528 623 l 5
 528 527 l 5
 -91 527 l 5
 -91 623 l 5
EndSplineSet
Fore
Refer: 319 168 S 1 0 0 1 -54 0 2
Refer: 419 305 N 1 0 0 1 0 0 3
Substitution2: "'smcp' Gemeine nach Kapitaelchen 1" idieresis.sc
AlternateSubs2: "'aalt' Alle Alternativen zeigen 1" uniE07F
Colour: ff00ff
EndChar
StartChar: eth
Encoding: 240 240 391
Width: 486
VWidth: 999
Flags: W
HStem: -10 36<196.34 302.512> 404 35<184.075 311.444> 678 20G<125.762 158.5 323.141 366.75>
VStem: 34 86<113.956 316.057> 363 84<120.205 356.329>
DStem2: 104 531 126 499 0.830508 0.557007<0.446939 126.751 183.499 299.817>
LayerCount: 2
Back
SplineSet
93.4814 539.229 m 5
 343.015 706.289 l 5
 364.746 673.828 l 5
 115.213 506.768 l 5
 93.4814 539.229 l 5
437.012 240.723 m 4
 437.012 152.344 412.748 96.166 367.57 50.7812 c 4
 331.428 14.4736 281.901 -7.32422 220.703 -7.32422 c 4
 170.898 -7.32422 128.418 8.78906 95.7031 45.4102 c 4
 52.7344 91.7969 31.7383 147.461 31.7383 210.938 c 4
 31.7383 283.203 52.7344 341.309 95.2148 383.789 c 4
 103.027 391.113 111.349 398.408 120.117 404.785 c 4
 154.869 430.061 193.848 443.848 237.793 443.848 c 4
 271.585 443.848 307.647 437.154 337.891 416.992 c 5
 348.633 345.703 l 5
 327.978 382.075 286.053 409.18 235.84 409.18 c 4
 215.332 409.18 173.065 405.615 141.113 358.887 c 4
 127.047 338.314 109.375 295.898 109.375 228.516 c 4
 109.863 173.34 121.546 129.252 141.602 98.1445 c 4
 165.527 61.0352 196.777 35.1562 237.305 35.1562 c 4
 272.949 35.1562 305.664 52.7344 323.242 82.0312 c 4
 341.448 112.375 355.957 145.508 355.957 226.562 c 4
 355.957 376.427 288.574 520.181 182.532 626.221 c 4
 161.279 647.476 138.553 666.851 114.746 684.082 c 5
 130.371 704.59 l 5
 182.926 677.168 237.38 638.931 285.555 590.576 c 4
 371.207 504.604 437.012 386.665 437.012 240.723 c 4
EndSplineSet
Fore
SplineSet
34 208 m 3
 34 381 166 439 248 439 c 3
 274 439 299 435 324 425 c 1
 302 478 272 526 235 572 c 1
 126 499 l 1
 104 531 l 1
 209 602 l 1
 193 618 l 2
 172 640 149 660 125 677 c 1
 141 698 l 1
 176 679 212 655 247 627 c 1
 353 698 l 1
 375 666 l 1
 278 601 l 1
 296 583 l 2
 382 497 447 383 447 237 c 3
 447 68 343 -10 231 -10 c 3
 107 -10 34 104 34 208 c 3
248 26 m 3
 295 26 363 61 363 223 c 3
 363 269 359 313 347 356 c 1
 324 385 289 404 246 404 c 3
 145 404 120 301 120 225 c 3
 120 111 177 26 248 26 c 3
EndSplineSet
Validated: 3073
Substitution2: "'smcp' Gemeine nach Kapitaelchen 1" eth.sc
AlternateSubs2: "'aalt' Alle Alternativen zeigen 1" uniE080
EndChar
StartChar: ntilde
Encoding: 241 241 392
Width: 542
VWidth: 999
Flags: W
HStem: -2 33<22.625 82.5404 186.702 238.375 314.188 366.637 471.435 527.812> 387 52<256.725 356.667> 526 44<295 382> 574 46<177 268> 613 10
VStem: 96 79<40.3691 331.425 370.116 376.975> 379 79<40.3691 350.057>
AnchorPoint: "top_akzent" 255 834 basechar 0
LayerCount: 2
Back
SplineSet
-87.8906 622.07 m 5
 531.25 622.07 l 5
 531.25 525.391 l 5
 -87.8906 525.391 l 5
 -87.8906 622.07 l 5
EndSplineSet
Fore
Refer: 667 732 N 1 0 0 1 137 -48 2
Refer: 294 110 N 1 0 0 1 0 0 3
Substitution2: "'smcp' Gemeine nach Kapitaelchen 1" ntilde.sc
AlternateSubs2: "'aalt' Alle Alternativen zeigen 1" uniE081
Colour: ff00ff
EndChar
StartChar: ograve
Encoding: 242 242 32
Width: 504
VWidth: 999
Flags: W
HStem: -10 35<205.698 321.376> 404 35<184.225 299.49>
VStem: 41 86<117.524 314.731> 377 86<109.15 316.258>
AnchorPoint: "top_akzent" 255 834 basechar 0
AnchorPoint: "komb_OR" 420 396 basechar 0
LayerCount: 2
Back
SplineSet
-90.8203 672.852 m 5
 528.32 672.852 l 5
 528.32 510.254 l 5
 -90.8203 510.254 l 5
 -90.8203 672.852 l 5
EndSplineSet
Fore
Refer: 669 768 N 1 0 0 1 380 -37 2
Refer: 295 111 N 1 0 0 1 0 0 3
Substitution2: "'smcp' Gemeine nach Kapitaelchen 1" ograve.sc
AlternateSubs2: "'aalt' Alle Alternativen zeigen 1" uniE082
Colour: ff00ff
EndChar
StartChar: ocircumflex
Encoding: 244 244 34
Width: 504
VWidth: 999
Flags: W
HStem: -10 35<205.698 321.376> 404 35<184.225 299.49>
VStem: 41 86<117.524 314.731> 125 253<517 517> 377 86<109.15 316.258>
AnchorPoint: "top_akzent" 255 833 basechar 0
AnchorPoint: "komb_OR" 420 396 basechar 0
LayerCount: 2
Back
SplineSet
151.855 645.508 m 1
 180.664 598.633 217.285 555.664 252.93 515.625 c 1
 232.422 502.441 l 1
 193.359 531.25 159.668 556.152 125.977 592.285 c 1
 88.8672 554.199 56.1523 529.297 19.043 502.441 c 1
 -0.488281 515.625 l 1
 34.668 555.176 72.7539 599.609 102.051 645.508 c 1
 151.855 645.508 l 1
-90.5762 664.062 m 1
 528.076 664.062 l 1
 528.076 500.732 l 1
 -90.5762 500.732 l 1
 -90.5762 664.062 l 1
EndSplineSet
Fore
Refer: 656 710 N 1 0 0 1 74 -22 2
Refer: 295 111 N 1 0 0 1 0 0 3
Substitution2: "'smcp' Gemeine nach Kapitaelchen 1" ocircumflex.sc
AlternateSubs2: "'aalt' Alle Alternativen zeigen 1" uniE084
Colour: ff00ff
EndChar
StartChar: otilde
Encoding: 245 245 35
Width: 504
VWidth: 999
Flags: W
HStem: -10 35<205.698 321.376> 404 35<184.225 299.49> 526 44<253 340> 574 46<135 226> 613 10
VStem: 41 86<117.524 314.731> 377 86<109.15 316.258>
AnchorPoint: "top_akzent" 255 834 basechar 0
AnchorPoint: "komb_OR" 420 396 basechar 0
LayerCount: 2
Back
SplineSet
-87.8906 622.07 m 5
 531.25 622.07 l 5
 531.25 525.391 l 5
 -87.8906 525.391 l 5
 -87.8906 622.07 l 5
EndSplineSet
Fore
Refer: 667 732 N 1 0 0 1 95 -48 2
Refer: 295 111 N 1 0 0 1 0 0 3
Substitution2: "'smcp' Gemeine nach Kapitaelchen 1" otilde.sc
AlternateSubs2: "'aalt' Alle Alternativen zeigen 1" uniE085
Colour: ff00ff
EndChar
StartChar: odieresis
Encoding: 246 246 36
Width: 504
VWidth: 999
Flags: W
HStem: -10 35<205.698 321.376> 404 35<184.225 299.49> 528 95<129.016 206.984 298.016 375.984>
VStem: 41 86<117.524 314.731> 121 94<535.394 615.312> 290 94<535.394 615.312> 377 86<109.15 316.258>
AnchorPoint: "top_akzent" 255 834 basechar 0
LayerCount: 2
Back
SplineSet
-91 623 m 5
 528 623 l 5
 528 527 l 5
 -91 527 l 5
 -91 623 l 5
EndSplineSet
Fore
Refer: 319 168 S 1 0 0 1 71 0 2
Refer: 295 111 N 1 0 0 1 0 0 3
Substitution2: "'smcp' Gemeine nach Kapitaelchen 1" odieresis.sc
AlternateSubs2: "'aalt' Alle Alternativen zeigen 1" uniE086
Colour: ff00ff
EndChar
StartChar: divide
Encoding: 247 247 37
Width: 550
VWidth: 999
Flags: W
HStem: 74.6186 88.8428<236.392 303.989> 226 50<62.4893 486.691> 342.619 88.8428<236.392 303.989>
VStem: 225.774 88.8428<85.3309 152.144 353.331 420.144>
LayerCount: 2
Back
SplineSet
-58.1055 256.836 m 29
 565.43 256.836 l 1053
0 572.012 m 5
 527.344 572.012 l 5
 527.344 0 l 5
 0 0 l 5
 0 572.012 l 5
EndSplineSet
Fore
Refer: 256 46 S 0.83814 0 0 0.83814 178 351 2
Refer: 256 46 S 0.83814 0 0 0.83814 178 83 2
Refer: 1204 8722 N 1 0 0 1 0 0 3
Substitution2: "'sinf' Wissenschaftliche Indices 1" uniE165
Substitution2: "'sups' Hochgestellte 1" uniE143
Colour: ff00ff
EndChar
StartChar: oslash
Encoding: 248 248 393
Width: 504
VWidth: 999
Flags: W
HStem: -10 35<205.698 321.376> 404 35<184.225 299.49> 450 20G<410.517 435.5>
VStem: 41 86<117.524 314.731> 377 86<109.15 316.258>
LayerCount: 2
Back
SplineSet
413.574 454.102 m 1
 444.824 430.664 l 1
 68.3594 -28.3203 l 1
 38.0859 -1.95312 l 1
 413.574 454.102 l 1
EndSplineSet
Fore
SplineSet
427 470 m 1
 444 470 454 460 458 447 c 1
 68 -28 l 1
 52 -28 40 -17 38 -2 c 1
 427 470 l 1
EndSplineSet
Refer: 295 111 N 1 0 0 1 0 0 2
Substitution2: "'smcp' Gemeine nach Kapitaelchen 1" oslash.sc
AlternateSubs2: "'aalt' Alle Alternativen zeigen 1" uniE088
Colour: ff9ccc
EndChar
StartChar: ugrave
Encoding: 249 249 38
Width: 531
VWidth: 999
Flags: W
HStem: -10 47<193.895 293.898> 398 33<22.625 74.0917 297.625 349.478>
VStem: 88 79<63.8821 388.068> 363 79<80.6055 388.455>
AnchorPoint: "top_akzent" 255 834 basechar 0
LayerCount: 2
Back
SplineSet
-90.8203 672.852 m 5
 528.32 672.852 l 5
 528.32 510.254 l 5
 -90.8203 510.254 l 5
 -90.8203 672.852 l 5
EndSplineSet
Fore
Refer: 669 768 N 1 0 0 1 375 -37 2
Refer: 301 117 N 1 0 0 1 0 0 3
Substitution2: "'smcp' Gemeine nach Kapitaelchen 1" ugrave.sc
AlternateSubs2: "'aalt' Alle Alternativen zeigen 1" uniE089
Colour: ff00ff
EndChar
StartChar: uacute
Encoding: 250 250 39
Width: 531
VWidth: 999
Flags: W
HStem: -10 47<193.895 293.898> 398 33<22.625 74.0917 297.625 349.478>
VStem: 88 79<63.8821 388.068> 363 79<80.6055 388.455>
AnchorPoint: "top_akzent" 255 834 basechar 0
LayerCount: 2
Back
SplineSet
-90.8203 672.852 m 5
 528.32 672.852 l 5
 528.32 510.254 l 5
 -90.8203 510.254 l 5
 -90.8203 672.852 l 5
EndSplineSet
Fore
Refer: 670 769 N 1 0 0 1 449 -37 2
Refer: 301 117 N 1 0 0 1 0 0 3
Substitution2: "'smcp' Gemeine nach Kapitaelchen 1" uacute.sc
AlternateSubs2: "'aalt' Alle Alternativen zeigen 1" uniE08A
Colour: ff00ff
EndChar
StartChar: udieresis
Encoding: 252 252 394
Width: 531
VWidth: 999
Flags: W
HStem: -10 47<193.895 293.898> 398 33<22.625 74.0917 297.625 349.478> 528 95<131.016 208.984 300.016 377.984>
VStem: 88 79<63.8821 388.068> 123 94<535.394 615.312> 292 94<535.394 615.312> 363 79<80.6055 388.455>
AnchorPoint: "top_akzent" 255 834 basechar 0
LayerCount: 2
Back
SplineSet
-91 623 m 5
 528 623 l 5
 528 527 l 5
 -91 527 l 5
 -91 623 l 5
EndSplineSet
Fore
Refer: 319 168 N 1 0 0 1 73 0 2
Refer: 301 117 N 1 0 0 1 0 0 3
Substitution2: "'smcp' Gemeine nach Kapitaelchen 1" udieresis.sc
AlternateSubs2: "'aalt' Alle Alternativen zeigen 1" uniE08C
LCarets2: 1 0
Colour: ff00ff
EndChar
StartChar: thorn
Encoding: 254 254 396
Width: 502
VWidth: 999
Flags: W
HStem: -234 33<8.625 70.875 177.375 248.375> -10 34<189.873 312.885> 393 46<220.394 323.239> 641 30<16.0654 69.2832> 678 20G<141.5 158.5>
VStem: 84 79<-190.429 1.88782 44.3289 349.905 390.132 632.721> 379 86<122.575 324.593>
AnchorPoint: "top_akzent" 278 646 basechar 0
LayerCount: 2
Fore
SplineSet
84 559 m 2
 84 631 72 638 20 641 c 1
 14 647 12 663 14 671 c 1
 54 674 129 688 154 698 c 1
 163 698 167 695 167 688 c 1
 167 688 163 648 163 583 c 2
 163 392 l 2
 163 370 165 370 180 385.267 c 0
 205.408 411.127 243.462 439 295 439 c 3
 392 439 465 340 465 235 c 3
 465 154 438 93 393 48 c 0
 354 9 306 -10 253 -10 c 3
 225.575 -10 202.792 -5.35712 182 3.04439 c 0
 171.044 7.47123 163 18 163 -10 c 2
 163 -110 l 2
 163 -193 174 -197 245 -201 c 1
 251 -207 251 -228 245 -234 c 1
 202 -233 171 -232 124 -232 c 27
 80 -232 54 -233 12 -234 c 1
 6 -228 6 -207 12 -201 c 1
 73 -198 84 -193 84 -110 c 2
 84 559 l 2
161 288 m 2
 161 98 l 2
 161 66.2351 166 60 178 49.6379 c 0
 206.279 25.2184 233.822 24 248 24 c 3
 354 24 379 121 379 208 c 3
 379 268 370 326 327 369 c 0
 312 384 294 393 269 393 c 3
 235.505 393 161 357.994 161 288 c 2
EndSplineSet
Substitution2: "'smcp' Gemeine nach Kapitaelchen 1" thorn.sc
AlternateSubs2: "'aalt' Alle Alternativen zeigen 1" uniE08E
EndChar
StartChar: ydieresis
Encoding: 255 255 397
Width: 515
VWidth: 999
Flags: W
HStem: -232 80<67.752 163.025> 398 33<12.625 60.4822 166.624 213.375 337.625 389.171 454.526 506.375> 528 95<148.016 225.984 317.016 394.984>
VStem: 140 94<535.394 615.312> 309 94<535.394 615.312>
DStem2: 177.233 333 94.9014 323 0.395053 -0.918658<-53.1996 236.484> 222 -34 245 -74 0.397404 0.917644<-98.3122 43.0767 162.026 449.353>
AnchorPoint: "top_akzent" 255 834 basechar 0
LayerCount: 2
Back
SplineSet
-91 623 m 5
 528 623 l 5
 528 527 l 5
 -91 527 l 5
 -91 623 l 5
EndSplineSet
Fore
Refer: 319 168 N 1 0 0 1 90 0 2
Refer: 305 121 N 1 0 0 1 0 0 3
Substitution2: "'smcp' Gemeine nach Kapitaelchen 1" ydieresis.sc
AlternateSubs2: "'aalt' Alle Alternativen zeigen 1" uniE08F
Colour: ff00ff
EndChar
StartChar: amacron
Encoding: 257 257 399
Width: 452
VWidth: 999
Flags: W
HStem: -12 49<135.986 230.912 329.815 423.014> 404 35<147.52 257.151> 518 50<86.8907 343.59>
VStem: 41 83<49.7405 154.018> 55 77<291.902 375.751> 85 261<518.239 568> 288 78<74.5304 217 244.062 374.836>
AnchorPoint: "unten_punkt" 196 -108 basechar 0
AnchorPoint: "unten_anhang" 167 -3 basechar 0
AnchorPoint: "ogonek" 410 16 basechar 0
AnchorPoint: "top_akzent" 209 715 basechar 0
LayerCount: 2
Back
SplineSet
226 539 m 6
 -171 539 l 6
 -178 539 -182 546 -182 553 c 4
 -182 565 -172 583 -162 583 c 6
 235 583 l 6
 244 583 248 575 248 568 c 4
 248 556 238 539 226 539 c 6
EndSplineSet
Fore
Refer: 659 713 N 1 0 0 1 11 0 2
Refer: 281 97 N 1 0 0 1 0 0 3
Colour: ff00ff
EndChar
StartChar: Aogonek
Encoding: 260 260 402
Width: 695
VWidth: 999
Flags: W
HStem: -200 38<572.519 655.833> -2 17<644.684 671> -2 33<3.625 68.0908 159.081 227.375 436.625 510.911 622.197 688.375> 241 42<241.019 440> 638 20G<381.5 396.203>
VStem: 503 62<-155.299 -63.1465>
AnchorPoint: "top_akzent" 365 850 basechar 0
LayerCount: 2
Back
SplineSet
684.082 -178.223 m 5
 660.156 -207.031 624.512 -219.238 594.238 -219.238 c 4
 540.527 -219.238 491.211 -187.988 491.211 -133.301 c 4
 491.211 -62.9883 559.082 -16.1133 621.094 24.4141 c 5
 633.301 6.34766 l 5
 583.496 -26.8555 551.27 -78.125 551.27 -129.883 c 4
 551.27 -161.621 573.242 -187.988 609.375 -187.988 c 4
 639.16 -187.988 653.809 -178.223 677.246 -158.691 c 5
 684.082 -178.223 l 5
EndSplineSet
Fore
SplineSet
701 -135 m 1xbc
 672 -180 632 -200 591 -200 c 0
 541 -200 503 -180 503 -126 c 0
 503 -70 568 15 671 15 c 1xdc
 685 -2 l 1
 614 -2 565 -69 565 -115 c 0
 565 -141 578 -162 615 -162 c 0
 644 -162 660 -146 682 -124 c 1
 691 -124 697 -128 701 -135 c 1xbc
EndSplineSet
Refer: 24 65 N 1 0 0 1 0 0 3
Position2: "'cpsp' Versalabstaende 1" dx=2 dy=0 dh=5 dv=0
Substitution2: "'c2sc' Versale nach Kapitaelchen 1" uniE099
Colour: ff9ccc
EndChar
